<?xml version="1.0" encoding="UTF-8" standalone="no"?>
<!-- Created with Inkscape (http://www.inkscape.org/) -->

<svg
   width="79.800835mm"
   height="48.039383mm"
   viewBox="0 0 79.800835 48.039383"
   version="1.1"
   id="svg5"
   sodipodi:docname="image_space.svg"
   inkscape:version="1.2.2 (1:1.2.2+202212051550+b0a8486541)"
   xmlns:inkscape="http://www.inkscape.org/namespaces/inkscape"
   xmlns:sodipodi="http://sodipodi.sourceforge.net/DTD/sodipodi-0.dtd"
   xmlns="http://www.w3.org/2000/svg"
   xmlns:svg="http://www.w3.org/2000/svg">
  <sodipodi:namedview
     id="namedview7"
     pagecolor="#ffffff"
     bordercolor="#666666"
     borderopacity="1.0"
     inkscape:showpageshadow="2"
     inkscape:pageopacity="0.0"
     inkscape:pagecheckerboard="0"
     inkscape:deskcolor="#d1d1d1"
     inkscape:document-units="mm"
     showgrid="false"
     inkscape:zoom="2.2280469"
     inkscape:cx="150.80473"
     inkscape:cy="90.886777"
     inkscape:window-width="1280"
     inkscape:window-height="656"
     inkscape:window-x="0"
     inkscape:window-y="27"
     inkscape:window-maximized="1"
     inkscape:current-layer="layer1" />
  <defs
     id="defs2">
    <marker
       style="overflow:visible"
       id="TriangleStart"
       refX="0"
       refY="0"
       orient="auto-start-reverse"
       inkscape:stockid="TriangleStart"
       markerWidth="11"
       markerHeight="12.1"
       viewBox="0 0 5.3244081 6.1553851"
       inkscape:isstock="true"
       inkscape:collect="always"
       preserveAspectRatio="xMidYMid">
      <path
         transform="scale(0.5)"
         style="fill:context-stroke;fill-rule:evenodd;stroke:context-stroke;stroke-width:1pt"
         d="M 5.77,0 -2.88,5 V -5 Z"
         id="path135" />
    </marker>
    <inkscape:path-effect
       effect="spiro"
       id="path-effect162"
       is_visible="true"
       lpeversion="1" />
  </defs>
  <g
     inkscape:label="Layer 1"
     inkscape:groupmode="layer"
     id="layer1"
     transform="translate(-22.17968,-98.535657)">
    <path
       style="fill:#ff9797;fill-opacity:1;stroke:#ff0000;stroke-width:0.264583px;stroke-linecap:butt;stroke-linejoin:miter;stroke-opacity:1"
       d="m 46.198644,105.18449 c 0.412258,-0.13478 0.819955,-0.28307 1.227392,-0.43179 7.577008,-2.76576 15.26045,-5.728871 23.319829,-6.055819 4.02969,-0.163474 8.120245,0.35477 11.867991,1.844579 3.747746,1.4898 7.14082,3.98504 9.409335,7.31955 1.977234,2.90635 3.066248,6.49216 2.613185,9.978 -0.226531,1.74292 -0.83542,3.44134 -1.814736,4.9008 -0.979317,1.45947 -2.332039,2.67455 -3.912801,3.44285 -2.37138,1.15256 -5.112585,1.25961 -7.743613,1.08778 -2.631029,-0.17184 -5.258779,-0.6002 -7.89024,-0.43512 -3.730369,0.23403 -7.280965,1.64802 -10.666751,3.23133 -3.385786,1.58331 -6.70696,3.36316 -10.294806,4.41091 -7.203455,2.10361 -15.288327,1.00443 -21.645615,-2.98303 -3.107613,-1.94918 -5.858102,-4.63311 -7.306788,-8.00325 -0.724343,-1.68507 -1.110525,-3.52433 -1.041053,-5.35717 0.06947,-1.83284 0.602653,-3.65681 1.601858,-5.1949 1.102631,-1.6973 2.739954,-3.00537 4.54656,-3.91794 1.806606,-0.91257 3.782521,-1.44793 5.774197,-1.80827 3.983351,-0.72067 8.108449,-0.77058 11.956056,-2.02851 z"
       id="path160"
       inkscape:path-effect="#path-effect162"
       inkscape:original-d="m 46.198644,105.18449 c 7.425338,-2.58516 0.818526,-0.2876 1.227392,-0.43179 0.408866,-0.1442 29.731699,2.07247 44.597155,3.10831 14.865449,1.03584 -2.075971,12.2147 -3.114352,18.32165 -1.038381,6.10696 -10.422303,0.43538 -15.633853,0.65266 -5.211549,0.21729 -13.974107,5.09509 -20.961557,7.64224 -6.987449,2.54714 -14.430147,-1.98842 -21.645615,-2.98303 -7.21547,-0.99461 -4.497056,-12.36995 -6.745983,-18.55532 -2.248925,-6.18538 14.851473,-5.16955 22.276813,-7.75472 z"
       inkscape:export-filename="image_space.svg"
       inkscape:export-xdpi="200"
       inkscape:export-ydpi="200" />
    <ellipse
       style="fill:#7ab7ff;fill-opacity:1;stroke:#0074ff;stroke-width:0.600001;stroke-linejoin:round;stroke-miterlimit:4.5;stroke-opacity:1"
       id="path1208"
       cx="83.192886"
       cy="118.80317"
       rx="2.8978984"
       ry="2.7340271" />
    <g
       aria-label="image space"
       id="text2324"
       style="font-size:6.35px;line-height:1.25;font-family:Chilanka;-inkscape-font-specification:Chilanka;letter-spacing:0px;word-spacing:0px;stroke-width:0.264583">
      <path
         d="m 28.923632,113.24216 c 0,0.17674 0.133325,0.32247 0.285254,0.32247 0.07131,0 0.151928,-0.0217 0.241845,-0.0682 0.161231,-0.0558 0.26355,-0.19843 0.26355,-0.35036 0,-0.16123 -0.155029,-0.36587 -0.347266,-0.36587 -0.198437,0 -0.443383,0.23254 -0.443383,0.46198 z m 0.502295,3.26182 c 0.031,-0.62012 0.031,-1.11621 0.031,-1.78904 0,-0.20464 -0.0031,-0.41237 -0.0062,-0.63252 0,-0.13022 -0.09612,-0.19223 -0.195337,-0.19223 -0.102319,0 -0.204638,0.0651 -0.204638,0.19843 0.0031,0.16124 0.0031,0.33177 0.0031,0.5054 0,0.47749 0.0031,1.95647 -0.08992,2.16731 -0.0093,0.0279 -0.0155,0.0558 -0.0155,0.0806 0,0.11473 0.09612,0.20464 0.204639,0.20464 0.192236,0 0.260449,-0.21084 0.272852,-0.5426 z"
         id="path3538" />
      <path
         d="m 31.673851,113.9708 c -0.300756,0 -0.551904,0.18914 -0.74104,0.57051 -0.05891,-0.22014 -0.139526,-0.39067 -0.238745,-0.5178 -0.04341,-0.0527 -0.09612,-0.0744 -0.148828,-0.0744 -0.10852,0 -0.21394,0.093 -0.21394,0.20464 0,0.0403 0.0124,0.0806 0.04651,0.12092 0.170533,0.21394 0.26355,0.63872 0.282154,1.28054 -0.03411,0.26045 -0.04961,0.55191 -0.04961,0.87127 0,0.13332 0.0031,0.27285 0.0093,0.41858 0.0062,0.12092 0.10542,0.18603 0.204639,0.18603 0.09612,0 0.189136,-0.0589 0.198437,-0.17673 l 0.0186,-0.21394 c 0.0186,-0.20154 0.02481,-0.43719 0.02481,-0.71004 0,-0.11162 0,-0.22944 -0.0031,-0.35346 0.05271,-0.39378 0.139526,-0.70074 0.26665,-0.92088 0.111621,-0.19223 0.232544,-0.28835 0.359668,-0.28835 0.148828,0 0.310059,0.12712 0.483692,0.38447 0.15813,0.23564 0.26665,0.5519 0.325561,0.95188 -0.0124,0.15193 -0.0155,0.31626 -0.0155,0.48679 0,0.20464 0.0062,0.42168 0.0217,0.65423 0.0124,0.11782 0.108521,0.17983 0.204639,0.17983 0.09302,0 0.186035,-0.0558 0.198438,-0.17053 0.0279,-0.21704 0.03721,-0.40618 0.03721,-0.57981 0,-0.20464 -0.0155,-0.39068 -0.04031,-0.57981 0.03411,-0.39998 0.111621,-0.76585 0.291455,-1.08211 0.111621,-0.19533 0.254248,-0.29145 0.406177,-0.29145 0.136426,0 0.279053,0.0806 0.409277,0.23874 0.198438,0.24185 0.31936,0.60772 0.31936,1.06661 0,0.35966 -0.09922,0.74414 -0.300756,1.15031 -0.07751,0.15503 0.05891,0.28526 0.179834,0.28526 0.07441,0 0.145727,-0.0341 0.182934,-0.10542 0.226343,-0.46199 0.341065,-0.90537 0.341065,-1.33326 0,-0.5519 -0.148828,-0.99838 -0.396875,-1.29914 -0.204639,-0.25115 -0.465088,-0.41548 -0.74104,-0.41548 -0.142627,0 -0.288355,0.0465 -0.434082,0.14883 -0.213941,0.15193 -0.381372,0.40618 -0.499195,0.75964 -0.189135,-0.42478 -0.533301,-0.84646 -0.989087,-0.84646 z"
         id="path3540" />
      <path
         d="m 38.098265,114.85447 c -0.04031,-0.42788 -0.207739,-0.72244 -0.511597,-0.88367 -0.170532,-0.0899 -0.353466,-0.13642 -0.548803,-0.13642 -0.15503,0 -0.31626,0.0279 -0.483692,0.0837 -0.437182,0.13953 -0.765844,0.42168 -0.979785,0.84336 -0.145727,0.28836 -0.220141,0.58911 -0.220141,0.90537 0,0.4899 0.145727,0.87127 0.396875,1.10691 0.139526,0.13023 0.337963,0.22945 0.573608,0.22945 0.08061,0 0.164331,-0.0124 0.254248,-0.0372 0.145728,-0.0155 0.285254,-0.0775 0.42168,-0.18604 0.223242,-0.17983 0.434082,-0.42788 0.632519,-0.74724 0.0031,0.36277 0.03721,0.66663 0.10232,0.90537 0.0279,0.10232 0.105419,0.14573 0.186035,0.14573 0.102319,0 0.21084,-0.0744 0.21084,-0.18914 0,-0.0186 -0.0031,-0.0372 -0.0093,-0.0589 -0.05891,-0.22324 -0.08992,-0.51159 -0.08992,-0.87126 0,-0.25735 0.0155,-0.5488 0.04651,-0.87437 0.0186,-0.062 0.02791,-0.11472 0.02791,-0.16433 0,-0.0248 -0.0031,-0.0496 -0.0093,-0.0713 z m -0.403076,0.0279 c -0.0031,0.0434 -0.0093,0.0868 -0.0124,0.12713 -0.192237,0.57361 -0.601514,1.18132 -0.911573,1.42627 -0.10542,0.0837 -0.173632,0.12402 -0.207739,0.12712 -0.08992,0.009 -0.155029,0.0341 -0.235644,0.0341 -0.117823,0 -0.223243,-0.0434 -0.31626,-0.13023 -0.148828,-0.13952 -0.254248,-0.43718 -0.254248,-0.79375 0,-0.25424 0.06201,-0.50539 0.192236,-0.75964 0.155029,-0.30386 0.396875,-0.5054 0.728638,-0.61081 0.136426,-0.0434 0.260449,-0.0651 0.37207,-0.0651 0.381372,0 0.607715,0.24805 0.644922,0.64492 z"
         id="path3542" />
      <path
         d="m 39.902806,117.04658 c 0.07751,0 0.164331,-0.0124 0.254248,-0.0403 0.334863,-0.0403 0.682129,-0.41858 1.038696,-1.12862 0.0031,0.0806 0.0031,0.16123 0.0031,0.23875 0,0.65732 -0.09302,1.18132 -0.279053,1.56579 -0.189136,0.39068 -0.440283,0.66973 -0.920874,0.66973 -0.04961,0 -0.10542,-0.003 -0.161231,-0.009 -0.244946,-0.0279 -0.505395,-0.12402 -0.781347,-0.29146 -0.151929,-0.0899 -0.303858,0.0341 -0.303858,0.17364 0,0.0682 0.03101,0.13332 0.09302,0.17053 0.325561,0.19844 0.648022,0.31316 0.964282,0.35036 0.06511,0.006 0.127124,0.0124 0.186035,0.0124 0.641822,0 1.044898,-0.40928 1.286743,-0.89917 0.213941,-0.44339 0.319361,-1.0201 0.319361,-1.73943 0,-0.27905 -0.04651,-1.0666 -0.08372,-1.23403 -0.04341,-0.58291 -0.375171,-1.0263 -0.967383,-1.0263 -0.139526,0 -0.288354,0.0248 -0.437182,0.0806 -0.396875,0.14262 -0.691431,0.42788 -0.880567,0.85576 -0.127124,0.29145 -0.192236,0.59221 -0.192236,0.90227 0,0.65112 0.272851,1.34875 0.861963,1.34875 z m 0.02791,-0.40927 c -0.08992,0 -0.176733,-0.0403 -0.257349,-0.11473 -0.127124,-0.12092 -0.229443,-0.46818 -0.229443,-0.82475 0,-0.25425 0.05581,-0.5054 0.167432,-0.75654 0.139526,-0.31316 0.350366,-0.5209 0.63872,-0.62322 0.10232,-0.0372 0.20774,-0.0558 0.313159,-0.0558 0.350367,0 0.514698,0.21084 0.551905,0.64802 0,0.009 0.0031,0.031 0.0062,0.062 -0.0124,0.0682 -0.06821,0.22324 -0.164331,0.46509 -0.142627,0.35967 -0.430982,0.85886 -0.666626,1.0635 -0.08062,0.0682 -0.133325,0.10232 -0.164331,0.10232 -0.07441,0 -0.127124,0.0341 -0.195337,0.0341 z"
         id="path3544" />
      <path
         d="m 42.659227,115.95828 c 0.0155,0.003 0.03411,0.006 0.04961,0.006 0.861963,0 1.519287,-0.15503 1.968872,-0.45889 0.322461,-0.22014 0.505396,-0.46819 0.505396,-0.80615 0,-0.0992 -0.0186,-0.19224 -0.05891,-0.28215 -0.145728,-0.32246 -0.511597,-0.5054 -0.964283,-0.5054 -0.592212,0 -1.069702,0.17984 -1.435571,0.5457 -0.282153,0.28216 -0.446484,0.62322 -0.492993,1.0139 -0.0093,0.0775 -0.0124,0.14882 -0.0124,0.22014 0,0.31936 0.08992,0.5674 0.251147,0.79375 0.285254,0.40307 0.700732,0.5643 1.168921,0.5643 0.452685,0 0.95188,-0.15192 1.426269,-0.38447 0.06201,-0.031 0.111622,-0.0992 0.111622,-0.18913 0,-0.11163 -0.09612,-0.19534 -0.201539,-0.19534 -0.03101,0 -0.05891,0.006 -0.08992,0.0217 -0.461987,0.22945 -0.871264,0.34417 -1.224731,0.34417 -0.523999,0 -0.883667,-0.25735 -1.001489,-0.68833 z m -0.03411,-0.37827 c 0.05891,-0.77825 0.713135,-1.26504 1.537891,-1.26504 0.204639,0 0.362768,0.0434 0.480591,0.13332 0.08372,0.0651 0.139526,0.12093 0.139526,0.23875 0,0.19533 -0.114722,0.33796 -0.328662,0.48369 -0.384473,0.26045 -0.964282,0.39067 -1.74563,0.39067 -0.0279,0 -0.05581,0.006 -0.08372,0.0186 z"
         id="path3546" />
      <path
         d="m 47.539549,114.73975 c 0,0.0744 0.0093,0.15193 0.03411,0.23254 0.09302,0.32246 0.36897,0.56741 0.694532,0.65423 0.117822,0.031 0.300756,0.0465 0.545703,0.0465 0.10852,0 0.248047,-0.009 0.37207,-0.009 0.285254,0 0.47439,0.093 0.564307,0.27285 0.0279,0.0589 0.04341,0.11473 0.04341,0.17054 0,0.0961 -0.04341,0.18913 -0.124024,0.27905 -0.151928,0.16433 -0.37207,0.24805 -0.657324,0.24805 -0.458887,0 -0.806152,-0.14573 -1.094507,-0.39998 -0.03721,-0.031 -0.08371,-0.0465 -0.133325,-0.0465 -0.10852,0 -0.201538,0.0868 -0.201538,0.19844 0,0.0558 0.02481,0.11472 0.06821,0.15193 0.322461,0.28215 0.728638,0.44958 1.221631,0.49609 0.04651,0.003 0.08992,0.006 0.133325,0.006 0.21394,0 0.415479,-0.0434 0.610815,-0.13332 0.306958,-0.13953 0.492994,-0.35967 0.561206,-0.66043 0.0124,-0.0496 0.0155,-0.0992 0.0155,-0.14883 0,-0.11162 -0.0279,-0.22324 -0.08371,-0.33796 -0.173633,-0.34727 -0.492994,-0.49919 -1.026294,-0.49919 -0.108521,0 -0.226343,0.0124 -0.325562,0.0124 -0.300757,0 -0.517798,-0.0589 -0.644922,-0.17673 -0.114721,-0.10542 -0.173633,-0.22015 -0.173633,-0.34417 0,-0.0465 0.0093,-0.093 0.02481,-0.14263 0.07751,-0.23254 0.328662,-0.34726 0.753443,-0.34726 0.415478,0 0.84956,0.22634 1.085205,0.45268 0.04031,0.0372 0.08682,0.0527 0.142627,0.0527 0.117822,-0.003 0.195336,-0.10232 0.195336,-0.20464 0,-0.0496 -0.0186,-0.0992 -0.06201,-0.13952 -0.390674,-0.37207 -0.880567,-0.56431 -1.47898,-0.56431 -0.545703,0 -1.0604,0.30076 -1.0604,0.88057 z"
         id="path3548" />
      <path
         d="m 50.810668,114.20335 c 0,0.29145 0.06511,0.71003 0.06511,1.02629 0,0.009 0,0.0155 0,0.0248 0,0.13023 0.0062,0.21705 0.0217,0.26045 0.0124,0.36897 0.0217,1.00459 0.03411,1.90997 l 0.0093,0.75964 c 0,0.11162 0.09302,0.19844 0.204639,0.19844 0.108521,0 0.198438,-0.0961 0.198438,-0.20464 l -0.0093,-0.75655 c -0.0062,-0.43098 -0.0093,-0.77514 -0.0155,-1.03249 0.418579,0.42168 0.827856,0.64492 1.224731,0.66973 0.03101,0.003 0.05891,0.003 0.08992,0.003 0.353467,0 0.641822,-0.13953 0.865064,-0.41858 0.257348,-0.32246 0.412378,-0.76895 0.412378,-1.21543 0,-0.33176 -0.08682,-0.66353 -0.275952,-0.94258 -0.272852,-0.40308 -0.694532,-0.62632 -1.261939,-0.62632 -0.455786,0 -0.830957,0.23255 -1.11311,0.70073 -0.0093,-0.17983 -0.0186,-0.32246 -0.03101,-0.42788 -0.0124,-0.11162 -0.08992,-0.21394 -0.198438,-0.21394 -0.158129,0 -0.220141,0.13333 -0.220141,0.28526 z m 1.559594,0.0589 c 0.700733,0 1.134815,0.48059 1.134815,1.18442 0,0.60151 -0.337964,1.21233 -0.880566,1.21233 -0.0155,0 -0.02791,0 -0.04341,0 -0.390673,-0.0279 -0.815454,-0.32556 -1.27434,-0.89297 -0.0031,-0.0961 -0.0031,-0.19223 -0.0062,-0.28215 0.0155,-0.0403 0.03721,-0.10232 0.06511,-0.18914 0.232544,-0.68833 0.567407,-1.03249 1.004589,-1.03249 z"
         id="path3550" />
      <path
         d="m 57.275389,114.85447 c -0.04031,-0.42788 -0.20774,-0.72244 -0.511597,-0.88367 -0.170532,-0.0899 -0.353467,-0.13642 -0.548804,-0.13642 -0.155029,0 -0.316259,0.0279 -0.483691,0.0837 -0.437183,0.13953 -0.765845,0.42168 -0.979785,0.84336 -0.145728,0.28836 -0.220142,0.58911 -0.220142,0.90537 0,0.4899 0.145728,0.87127 0.396875,1.10691 0.139527,0.13023 0.337964,0.22945 0.573609,0.22945 0.08062,0 0.164331,-0.0124 0.254248,-0.0372 0.145727,-0.0155 0.285253,-0.0775 0.421679,-0.18604 0.223242,-0.17983 0.434082,-0.42788 0.63252,-0.74724 0.0031,0.36277 0.03721,0.66663 0.102319,0.90537 0.02791,0.10232 0.10542,0.14573 0.186035,0.14573 0.10232,0 0.21084,-0.0744 0.21084,-0.18914 0,-0.0186 -0.0031,-0.0372 -0.0093,-0.0589 -0.05891,-0.22324 -0.08992,-0.51159 -0.08992,-0.87126 0,-0.25735 0.0155,-0.5488 0.04651,-0.87437 0.0186,-0.062 0.0279,-0.11472 0.0279,-0.16433 0,-0.0248 -0.0031,-0.0496 -0.0093,-0.0713 z m -0.403076,0.0279 c -0.0031,0.0434 -0.0093,0.0868 -0.0124,0.12713 -0.192236,0.57361 -0.601514,1.18132 -0.911572,1.42627 -0.10542,0.0837 -0.173633,0.12402 -0.207739,0.12712 -0.08992,0.009 -0.15503,0.0341 -0.235645,0.0341 -0.117822,0 -0.223242,-0.0434 -0.31626,-0.13023 -0.148828,-0.13952 -0.254248,-0.43718 -0.254248,-0.79375 0,-0.25424 0.06201,-0.50539 0.192237,-0.75964 0.155029,-0.30386 0.396875,-0.5054 0.728637,-0.61081 0.136426,-0.0434 0.26045,-0.0651 0.372071,-0.0651 0.381372,0 0.607714,0.24805 0.644922,0.64492 z"
         id="path3552" />
      <path
         d="m 58.329588,115.80635 c 0,-0.16123 0.03411,-0.33486 0.09922,-0.5116 0.176733,-0.47439 0.604614,-0.90847 1.196826,-0.90847 0.120923,0 0.251147,0.0186 0.387573,0.0589 0.0217,0.006 0.04341,0.009 0.06201,0.009 0.114721,0 0.189136,-0.10852 0.189136,-0.21084 0,-0.0775 -0.04031,-0.15503 -0.136426,-0.18293 -0.182935,-0.0558 -0.356568,-0.0837 -0.5271,-0.0837 -0.775146,0 -1.320849,0.57671 -1.550293,1.18133 -0.08062,0.21704 -0.124023,0.43098 -0.124023,0.63872 0,0.15503 0.0248,0.30696 0.06821,0.45578 0.139526,0.46819 0.555005,0.79995 1.187524,0.79995 0.282153,0 0.610815,-0.0682 0.979785,-0.20153 0.07131,-0.0248 0.136426,-0.0992 0.136426,-0.19534 0,-0.10852 -0.09612,-0.19534 -0.201538,-0.19534 -0.02481,0 -0.04651,0.003 -0.07131,0.0124 -0.322461,0.11782 -0.601513,0.17363 -0.840258,0.17363 -0.548804,0 -0.855762,-0.33176 -0.855762,-0.84026 z"
         id="path3554" />
      <path
         d="m 61.355761,115.95828 c 0.0155,0.003 0.03411,0.006 0.04961,0.006 0.861963,0 1.519287,-0.15503 1.968872,-0.45889 0.322461,-0.22014 0.505396,-0.46819 0.505396,-0.80615 0,-0.0992 -0.0186,-0.19224 -0.05891,-0.28215 -0.145728,-0.32246 -0.511597,-0.5054 -0.964282,-0.5054 -0.592212,0 -1.069703,0.17984 -1.435572,0.5457 -0.282153,0.28216 -0.446484,0.62322 -0.492993,1.0139 -0.0093,0.0775 -0.0124,0.14882 -0.0124,0.22014 0,0.31936 0.08992,0.5674 0.251147,0.79375 0.285254,0.40307 0.700733,0.5643 1.168921,0.5643 0.452686,0 0.95188,-0.15192 1.42627,-0.38447 0.06201,-0.031 0.111621,-0.0992 0.111621,-0.18913 0,-0.11163 -0.09612,-0.19534 -0.201538,-0.19534 -0.03101,0 -0.05891,0.006 -0.08992,0.0217 -0.461988,0.22945 -0.871265,0.34417 -1.224732,0.34417 -0.523999,0 -0.883667,-0.25735 -1.001489,-0.68833 z m -0.03411,-0.37827 c 0.05891,-0.77825 0.713135,-1.26504 1.537891,-1.26504 0.204639,0 0.362769,0.0434 0.480591,0.13332 0.08372,0.0651 0.139526,0.12093 0.139526,0.23875 0,0.19533 -0.114721,0.33796 -0.328662,0.48369 -0.384472,0.26045 -0.964282,0.39067 -1.74563,0.39067 -0.0279,0 -0.05581,0.006 -0.08372,0.0186 z"
         id="path3556" />
    </g>
    <g
       aria-label="real images"
       id="text2324-3"
       style="font-size:6.35px;line-height:1.25;font-family:Chilanka;-inkscape-font-specification:Chilanka;letter-spacing:0px;word-spacing:0px;stroke-width:0.264583">
      <path
         d="m 71.01188,144.85081 c 0.08682,0 0.248047,-0.0899 0.248047,-0.18294 0,-0.0248 -0.0124,-0.0558 -0.0124,-0.10852 0,-0.0961 0.0124,-0.18603 0.02481,-0.37207 0.03101,-0.22944 0.07751,-0.44958 0.136425,-0.65732 0.248047,-0.87437 0.635621,-1.34566 1.15962,-1.41077 0.117822,-0.0124 0.170532,-0.0992 0.170532,-0.18913 0,-0.10542 -0.07131,-0.21084 -0.195337,-0.21084 -0.0093,0 -0.0155,0 -0.02481,0 -0.517798,0.0651 -0.923974,0.39377 -1.224731,0.98598 -0.0093,-0.35966 -0.03721,-0.62321 -0.08061,-0.79065 -0.0217,-0.0775 -0.09612,-0.15192 -0.192237,-0.15192 -0.124023,0 -0.195337,0.0868 -0.195337,0.20463 0,0.0341 0.0031,0.0744 0.0155,0.11783 0.02481,0.0992 0.04341,0.37517 0.05581,0.83405 0.0031,0.15813 0.0062,0.30076 0.0062,0.43099 0,0.36276 -0.04651,0.79685 -0.05891,1.02319 -0.0062,0.0744 -0.04341,0.16123 -0.04341,0.23874 0,0.093 0.09612,0.23875 0.210839,0.23875 z"
         id="path3559" />
      <path
         d="m 73.045865,143.77491 c 0.0155,0.003 0.03411,0.006 0.04961,0.006 0.861963,0 1.519287,-0.15503 1.968872,-0.45889 0.322461,-0.22014 0.505396,-0.46819 0.505396,-0.80615 0,-0.0992 -0.0186,-0.19224 -0.05891,-0.28216 -0.145728,-0.32246 -0.511597,-0.50539 -0.964283,-0.50539 -0.592212,0 -1.069702,0.17983 -1.435571,0.5457 -0.282153,0.28216 -0.446484,0.62322 -0.492993,1.01389 -0.0093,0.0775 -0.0124,0.14883 -0.0124,0.22015 0,0.31936 0.08992,0.5674 0.251147,0.79375 0.285254,0.40307 0.700733,0.5643 1.168921,0.5643 0.452686,0 0.95188,-0.15193 1.426269,-0.38447 0.06201,-0.031 0.111622,-0.0992 0.111622,-0.18914 0,-0.11162 -0.09612,-0.19533 -0.201539,-0.19533 -0.03101,0 -0.05891,0.006 -0.08992,0.0217 -0.461988,0.22944 -0.871265,0.34417 -1.224732,0.34417 -0.523999,0 -0.883667,-0.25735 -1.001489,-0.68833 z m -0.03411,-0.37828 c 0.05891,-0.77824 0.713135,-1.26504 1.537891,-1.26504 0.204639,0 0.362769,0.0434 0.480591,0.13333 0.08372,0.0651 0.139526,0.12092 0.139526,0.23875 0,0.19533 -0.114722,0.33796 -0.328662,0.48369 -0.384473,0.26045 -0.964282,0.39067 -1.74563,0.39067 -0.0279,0 -0.05581,0.006 -0.08372,0.0186 z"
         id="path3561" />
      <path
         d="m 78.933877,142.6711 c -0.04031,-0.42788 -0.207739,-0.72244 -0.511596,-0.88367 -0.170532,-0.0899 -0.353467,-0.13643 -0.548804,-0.13643 -0.155029,0 -0.31626,0.0279 -0.483691,0.0837 -0.437183,0.13953 -0.765845,0.42168 -0.979785,0.84336 -0.145728,0.28835 -0.220142,0.58911 -0.220142,0.90537 0,0.48989 0.145727,0.87126 0.396875,1.10691 0.139526,0.13022 0.337964,0.22944 0.573608,0.22944 0.08062,0 0.164331,-0.0124 0.254248,-0.0372 0.145728,-0.0155 0.285254,-0.0775 0.42168,-0.18604 0.223242,-0.17983 0.434082,-0.42788 0.63252,-0.74724 0.0031,0.36277 0.03721,0.66663 0.102319,0.90537 0.0279,0.10232 0.10542,0.14573 0.186035,0.14573 0.102319,0 0.21084,-0.0744 0.21084,-0.18914 0,-0.0186 -0.0031,-0.0372 -0.0093,-0.0589 -0.05891,-0.22324 -0.08992,-0.5116 -0.08992,-0.87126 0,-0.25735 0.0155,-0.54881 0.04651,-0.87437 0.0186,-0.062 0.02791,-0.11472 0.02791,-0.16433 0,-0.0248 -0.0031,-0.0496 -0.0093,-0.0713 z m -0.403076,0.0279 c -0.0031,0.0434 -0.0093,0.0868 -0.0124,0.12713 -0.192236,0.5736 -0.601514,1.18132 -0.911572,1.42627 -0.10542,0.0837 -0.173633,0.12402 -0.20774,0.12712 -0.08992,0.009 -0.155029,0.0341 -0.235644,0.0341 -0.117822,0 -0.223242,-0.0434 -0.31626,-0.13023 -0.148828,-0.13952 -0.254248,-0.43718 -0.254248,-0.79375 0,-0.25425 0.06201,-0.50539 0.192236,-0.75964 0.15503,-0.30386 0.396875,-0.5054 0.728638,-0.61082 0.136426,-0.0434 0.260449,-0.0651 0.37207,-0.0651 0.381372,0 0.607715,0.24805 0.644922,0.64492 z"
         id="path3563" />
      <path
         d="m 79.901261,140.27124 c -0.10542,0 -0.204639,0.0837 -0.20774,0.19224 -0.07131,1.69292 -0.10852,2.88665 -0.10852,3.58118 0,0.32556 0.0093,0.5426 0.02481,0.64802 0.0186,0.11472 0.10542,0.16743 0.192236,0.16743 0.102319,0 0.207739,-0.0713 0.207739,-0.19224 0,-0.009 0,-0.0217 -0.0031,-0.0341 -0.0155,-0.093 -0.0217,-0.28526 -0.0217,-0.57671 0,-0.66973 0.03721,-1.86035 0.10852,-3.57498 0.0062,-0.11162 -0.08992,-0.21084 -0.192236,-0.21084 z"
         id="path3565" />
      <path
         d="m 82.446841,141.05879 c 0,0.17674 0.133325,0.32246 0.285254,0.32246 0.07131,0 0.151929,-0.0217 0.241846,-0.0682 0.16123,-0.0558 0.26355,-0.19844 0.26355,-0.35037 0,-0.16123 -0.15503,-0.36587 -0.347266,-0.36587 -0.198437,0 -0.443384,0.23255 -0.443384,0.46199 z m 0.502295,3.26182 c 0.03101,-0.62012 0.03101,-1.11621 0.03101,-1.78904 0,-0.20464 -0.0031,-0.41238 -0.0062,-0.63252 0,-0.13022 -0.09612,-0.19224 -0.195337,-0.19224 -0.102319,0 -0.204639,0.0651 -0.204639,0.19844 0.0031,0.16123 0.0031,0.33176 0.0031,0.5054 0,0.47749 0.0031,1.95647 -0.08992,2.16731 -0.0093,0.0279 -0.0155,0.0558 -0.0155,0.0806 0,0.11472 0.09612,0.20464 0.204639,0.20464 0.192236,0 0.260449,-0.21084 0.272851,-0.5426 z"
         id="path3567" />
      <path
         d="m 85.197061,141.78743 c -0.300757,0 -0.551904,0.18914 -0.74104,0.57051 -0.05891,-0.22014 -0.139526,-0.39068 -0.238745,-0.5178 -0.04341,-0.0527 -0.09612,-0.0744 -0.148828,-0.0744 -0.108521,0 -0.213941,0.093 -0.213941,0.20463 0,0.0403 0.0124,0.0806 0.04651,0.12093 0.170532,0.21394 0.26355,0.63872 0.282153,1.28054 -0.03411,0.26045 -0.04961,0.5519 -0.04961,0.87126 0,0.13333 0.0031,0.27286 0.0093,0.41858 0.0062,0.12093 0.10542,0.18604 0.204638,0.18604 0.09612,0 0.189136,-0.0589 0.198438,-0.17674 l 0.0186,-0.21394 c 0.0186,-0.20153 0.02481,-0.43718 0.02481,-0.71003 0,-0.11162 0,-0.22944 -0.0031,-0.35347 0.05271,-0.39377 0.139526,-0.70073 0.26665,-0.92087 0.111621,-0.19224 0.232544,-0.28836 0.359668,-0.28836 0.148828,0 0.310058,0.12713 0.483691,0.38448 0.15813,0.23564 0.266651,0.5519 0.325562,0.95188 -0.0124,0.15193 -0.0155,0.31626 -0.0155,0.48679 0,0.20464 0.0062,0.42168 0.0217,0.65422 0.0124,0.11783 0.10852,0.17984 0.204639,0.17984 0.09302,0 0.186035,-0.0558 0.198437,-0.17054 0.02791,-0.21704 0.03721,-0.40617 0.03721,-0.5798 0,-0.20464 -0.0155,-0.39068 -0.04031,-0.57981 0.03411,-0.39998 0.111621,-0.76585 0.291455,-1.08211 0.111621,-0.19534 0.254248,-0.29145 0.406176,-0.29145 0.136426,0 0.279053,0.0806 0.409278,0.23874 0.198437,0.24185 0.31936,0.60772 0.31936,1.0666 0,0.35967 -0.09922,0.74414 -0.300757,1.15032 -0.07751,0.15503 0.05891,0.28525 0.179834,0.28525 0.07441,0 0.145728,-0.0341 0.182935,-0.10542 0.226343,-0.46198 0.341064,-0.90537 0.341064,-1.33325 0,-0.5519 -0.148828,-0.99839 -0.396875,-1.29914 -0.204638,-0.25115 -0.465088,-0.41548 -0.74104,-0.41548 -0.142627,0 -0.288354,0.0465 -0.434082,0.14883 -0.21394,0.15192 -0.381372,0.40617 -0.499194,0.75964 -0.189136,-0.42478 -0.533301,-0.84646 -0.989087,-0.84646 z"
         id="path3569" />
      <path
         d="m 91.621475,142.6711 c -0.04031,-0.42788 -0.207739,-0.72244 -0.511596,-0.88367 -0.170533,-0.0899 -0.353467,-0.13643 -0.548804,-0.13643 -0.155029,0 -0.31626,0.0279 -0.483692,0.0837 -0.437182,0.13953 -0.765844,0.42168 -0.979785,0.84336 -0.145727,0.28835 -0.220141,0.58911 -0.220141,0.90537 0,0.48989 0.145727,0.87126 0.396875,1.10691 0.139526,0.13022 0.337964,0.22944 0.573608,0.22944 0.08062,0 0.164331,-0.0124 0.254248,-0.0372 0.145728,-0.0155 0.285254,-0.0775 0.42168,-0.18604 0.223242,-0.17983 0.434082,-0.42788 0.632519,-0.74724 0.0031,0.36277 0.03721,0.66663 0.10232,0.90537 0.02791,0.10232 0.10542,0.14573 0.186035,0.14573 0.102319,0 0.21084,-0.0744 0.21084,-0.18914 0,-0.0186 -0.0031,-0.0372 -0.0093,-0.0589 -0.05891,-0.22324 -0.08992,-0.5116 -0.08992,-0.87126 0,-0.25735 0.0155,-0.54881 0.04651,-0.87437 0.0186,-0.062 0.0279,-0.11472 0.0279,-0.16433 0,-0.0248 -0.0031,-0.0496 -0.0093,-0.0713 z m -0.403076,0.0279 c -0.0031,0.0434 -0.0093,0.0868 -0.0124,0.12713 -0.192237,0.5736 -0.601514,1.18132 -0.911573,1.42627 -0.10542,0.0837 -0.173632,0.12402 -0.207739,0.12712 -0.08992,0.009 -0.155029,0.0341 -0.235644,0.0341 -0.117823,0 -0.223243,-0.0434 -0.31626,-0.13023 -0.148828,-0.13952 -0.254248,-0.43718 -0.254248,-0.79375 0,-0.25425 0.06201,-0.50539 0.192236,-0.75964 0.155029,-0.30386 0.396875,-0.5054 0.728638,-0.61082 0.136426,-0.0434 0.260449,-0.0651 0.37207,-0.0651 0.381372,0 0.607715,0.24805 0.644922,0.64492 z"
         id="path3571" />
      <path
         d="m 93.426016,144.86321 c 0.07751,0 0.164331,-0.0124 0.254248,-0.0403 0.334864,-0.0403 0.682129,-0.41858 1.038697,-1.12861 0.0031,0.0806 0.0031,0.16123 0.0031,0.23875 0,0.65732 -0.09302,1.18132 -0.279053,1.56579 -0.189135,0.39067 -0.440283,0.66973 -0.920874,0.66973 -0.04961,0 -0.10542,-0.003 -0.16123,-0.009 -0.244946,-0.0279 -0.505396,-0.12403 -0.781348,-0.29146 -0.151928,-0.0899 -0.303857,0.0341 -0.303857,0.17363 0,0.0682 0.03101,0.13333 0.09302,0.17054 0.325562,0.19843 0.648023,0.31316 0.964283,0.35036 0.06511,0.006 0.127124,0.0124 0.186035,0.0124 0.641821,0 1.044897,-0.40927 1.286743,-0.89917 0.21394,-0.44338 0.31936,-1.02009 0.31936,-1.73942 0,-0.27906 -0.04651,-1.06661 -0.08372,-1.23404 -0.04341,-0.58291 -0.37517,-1.02629 -0.967382,-1.02629 -0.139527,0 -0.288355,0.0248 -0.437183,0.0806 -0.396875,0.14263 -0.691431,0.42788 -0.880566,0.85577 -0.127124,0.29145 -0.192237,0.59221 -0.192237,0.90227 0,0.65112 0.272852,1.34875 0.861963,1.34875 z m 0.0279,-0.40928 c -0.08992,0 -0.176733,-0.0403 -0.257348,-0.11472 -0.127124,-0.12092 -0.229443,-0.46819 -0.229443,-0.82475 0,-0.25425 0.05581,-0.5054 0.167431,-0.75655 0.139527,-0.31316 0.350366,-0.5209 0.638721,-0.62321 0.102319,-0.0372 0.207739,-0.0558 0.313159,-0.0558 0.350366,0 0.514697,0.21084 0.551904,0.64803 0,0.009 0.0031,0.031 0.0062,0.062 -0.0124,0.0682 -0.06821,0.22324 -0.164331,0.46509 -0.142627,0.35966 -0.430981,0.85886 -0.666626,1.0635 -0.08061,0.0682 -0.133325,0.10232 -0.164331,0.10232 -0.07441,0 -0.127124,0.0341 -0.195337,0.0341 z"
         id="path3573" />
      <path
         d="m 96.182436,143.77491 c 0.0155,0.003 0.03411,0.006 0.04961,0.006 0.861963,0 1.519287,-0.15503 1.968872,-0.45889 0.322461,-0.22014 0.505395,-0.46819 0.505395,-0.80615 0,-0.0992 -0.0186,-0.19224 -0.05891,-0.28216 -0.145727,-0.32246 -0.511597,-0.50539 -0.964282,-0.50539 -0.592212,0 -1.069702,0.17983 -1.435571,0.5457 -0.282154,0.28216 -0.446485,0.62322 -0.492993,1.01389 -0.0093,0.0775 -0.0124,0.14883 -0.0124,0.22015 0,0.31936 0.08992,0.5674 0.251148,0.79375 0.285254,0.40307 0.700732,0.5643 1.168921,0.5643 0.452685,0 0.951879,-0.15193 1.426269,-0.38447 0.06201,-0.031 0.111621,-0.0992 0.111621,-0.18914 0,-0.11162 -0.09612,-0.19533 -0.201538,-0.19533 -0.03101,0 -0.05891,0.006 -0.08992,0.0217 -0.461987,0.22944 -0.871265,0.34417 -1.224731,0.34417 -0.523999,0 -0.883667,-0.25735 -1.00149,-0.68833 z m -0.03411,-0.37828 c 0.05891,-0.77824 0.713135,-1.26504 1.537891,-1.26504 0.204638,0 0.362768,0.0434 0.48059,0.13333 0.08372,0.0651 0.139527,0.12092 0.139527,0.23875 0,0.19533 -0.114722,0.33796 -0.328662,0.48369 -0.384473,0.26045 -0.964283,0.39067 -1.74563,0.39067 -0.02791,0 -0.05581,0.006 -0.08372,0.0186 z"
         id="path3575" />
      <path
         d="m 99.326431,142.55638 c 0,0.0744 0.0093,0.15192 0.03411,0.23254 0.09302,0.32246 0.368969,0.56741 0.694529,0.65422 0.11782,0.031 0.30076,0.0465 0.5457,0.0465 0.10852,0 0.24805,-0.009 0.37207,-0.009 0.28526,0 0.47439,0.093 0.56431,0.27285 0.0279,0.0589 0.0434,0.11472 0.0434,0.17053 0,0.0961 -0.0434,0.18914 -0.12403,0.27906 -0.15192,0.16433 -0.37207,0.24804 -0.65732,0.24804 -0.45889,0 -0.80615,-0.14572 -1.094504,-0.39997 -0.03721,-0.031 -0.08372,-0.0465 -0.133325,-0.0465 -0.108521,0 -0.201539,0.0868 -0.201539,0.19844 0,0.0558 0.02481,0.11472 0.06821,0.15192 0.322461,0.28216 0.728638,0.44959 1.221628,0.4961 0.0465,0.003 0.0899,0.006 0.13333,0.006 0.21394,0 0.41548,-0.0434 0.61081,-0.13333 0.30696,-0.13952 0.493,-0.35966 0.56121,-0.66042 0.0124,-0.0496 0.0155,-0.0992 0.0155,-0.14883 0,-0.11162 -0.0279,-0.22324 -0.0837,-0.33796 -0.17364,-0.34727 -0.493,-0.4992 -1.0263,-0.4992 -0.10852,0 -0.22634,0.0124 -0.32556,0.0124 -0.30076,0 -0.5178,-0.0589 -0.64492,-0.17674 -0.114722,-0.10542 -0.173633,-0.22014 -0.173633,-0.34416 0,-0.0465 0.0093,-0.093 0.02481,-0.14263 0.07751,-0.23254 0.328663,-0.34727 0.753443,-0.34727 0.41548,0 0.84956,0.22635 1.08521,0.45269 0.0403,0.0372 0.0868,0.0527 0.14263,0.0527 0.11782,-0.003 0.19533,-0.10232 0.19533,-0.20464 0,-0.0496 -0.0186,-0.0992 -0.062,-0.13952 -0.39067,-0.37207 -0.88057,-0.56431 -1.47898,-0.56431 -0.545706,0 -1.060404,0.30076 -1.060404,0.88057 z"
         id="path3577" />
    </g>
    <path
       style="fill:none;fill-rule:evenodd;stroke:#000000;stroke-width:0.26499999;stroke-linecap:butt;stroke-linejoin:miter;stroke-dasharray:none;stroke-opacity:1;marker-end:url(#TriangleStart)"
       d="M 81.612112,137.94669 C 77.755175,135.8579 75.237929,129.06065 79.994987,121.8372"
       id="path3132"
       sodipodi:nodetypes="cc" />
  </g>
</svg>
