<?xml version="1.0" encoding="UTF-8" standalone="no"?>
<!-- Created with Inkscape (http://www.inkscape.org/) -->

<svg
   width="220.03967mm"
   height="66.508293mm"
   viewBox="0 0 220.03967 66.508293"
   version="1.1"
   id="svg5"
   inkscape:version="1.2 (1:1.2.1+202207142221+cd75a1ee6d)"
   sodipodi:docname="unreliable_channel.svg"
   xmlns:inkscape="http://www.inkscape.org/namespaces/inkscape"
   xmlns:sodipodi="http://sodipodi.sourceforge.net/DTD/sodipodi-0.dtd"
   xmlns="http://www.w3.org/2000/svg"
   xmlns:svg="http://www.w3.org/2000/svg">
  <sodipodi:namedview
     id="namedview7"
     pagecolor="#ffffff"
     bordercolor="#666666"
     borderopacity="1.0"
     inkscape:showpageshadow="2"
     inkscape:pageopacity="0.0"
     inkscape:pagecheckerboard="0"
     inkscape:deskcolor="#d1d1d1"
     inkscape:document-units="mm"
     showgrid="false"
     inkscape:zoom="0.6173296"
     inkscape:cx="520.79149"
     inkscape:cy="324.78598"
     inkscape:window-width="1280"
     inkscape:window-height="656"
     inkscape:window-x="0"
     inkscape:window-y="27"
     inkscape:window-maximized="1"
     inkscape:current-layer="layer1" />
  <defs
     id="defs2">
    <linearGradient
       id="linearGradient2464"
       inkscape:swatch="solid">
      <stop
         style="stop-color:#000000;stop-opacity:1;"
         offset="0"
         id="stop2462" />
    </linearGradient>
    <marker
       style="overflow:visible"
       id="TriangleStart"
       refX="0"
       refY="0"
       orient="auto-start-reverse"
       inkscape:stockid="TriangleStart"
       markerWidth="5.3244081"
       markerHeight="6.155385"
       viewBox="0 0 5.3244081 6.1553851"
       inkscape:isstock="true"
       inkscape:collect="always"
       preserveAspectRatio="xMidYMid">
      <path
         transform="scale(0.5)"
         style="fill:context-stroke;fill-rule:evenodd;stroke:context-stroke;stroke-width:1pt"
         d="M 5.77,0 -2.88,5 V -5 Z"
         id="path135" />
    </marker>
  </defs>
  <g
     inkscape:label="Layer 1"
     inkscape:groupmode="layer"
     id="layer1"
     transform="translate(-32.619842,-21.042046)">
    <rect
       style="fill:#aadaff;fill-opacity:1;stroke:#000000;stroke-width:0.202;stroke-linecap:round;stroke-linejoin:round;stroke-dasharray:none;stroke-opacity:1"
       id="rect234"
       width="18.921894"
       height="18.921894"
       x="150.04134"
       y="47.604691"
       inkscape:export-filename="../unreliable_channel.svg"
       inkscape:export-xdpi="200"
       inkscape:export-ydpi="200" />
    <rect
       style="fill:#aadaff;fill-opacity:1;stroke:#000000;stroke-width:0.202;stroke-linecap:round;stroke-linejoin:round;stroke-dasharray:none;stroke-opacity:1"
       id="rect234-3"
       width="18.921894"
       height="18.921894"
       x="233.63661"
       y="47.604691" />
    <path
       style="fill:none;fill-rule:evenodd;stroke:#000000;stroke-width:0.264583px;stroke-linecap:butt;stroke-linejoin:miter;stroke-opacity:1"
       d="m 168.96323,57.065638 h 64.67338"
       id="path1024"
       inkscape:connector-type="polyline"
       inkscape:connector-curvature="0"
       inkscape:connection-start="#rect234"
       inkscape:connection-end="#rect234-3" />
    <g
       aria-label="01010"
       id="text1254"
       style="font-size:4.93889px;line-height:1.25;font-family:'Tlwg Typewriter';-inkscape-font-specification:'Tlwg Typewriter';letter-spacing:0px;word-spacing:0px;stroke-width:0.264583">
      <path
         d="m 177.93185,53.017068 v 0.493889 q 0,0.582789 -0.25682,0.948266 -0.25682,0.365478 -0.66675,0.365478 -0.40993,0 -0.66675,-0.365478 -0.25682,-0.365477 -0.25682,-0.948266 v -0.493889 q 0,-0.587728 0.25682,-0.953206 0.25682,-0.365478 0.66675,-0.365478 0.40993,0 0.66675,0.365478 0.25682,0.365478 0.25682,0.953206 z m -1.64465,0.02469 v 0.439561 q 0,0.513645 0.23707,0.879123 0.16792,0.261761 0.48401,0.261761 0.31609,0 0.48401,-0.261761 0.23707,-0.365478 0.23707,-0.879123 v -0.439561 q 0,-0.513645 -0.23707,-0.879122 -0.16792,-0.261762 -0.48401,-0.261762 -0.31609,0 -0.48401,0.261762 -0.23707,0.365477 -0.23707,0.879122 z"
         id="path649" />
      <path
         d="m 180.07532,51.728017 v 2.820106 h 0.68651 q 0.13335,0 0.13335,0.09878 0,0.103717 -0.13335,0.103717 h -1.57551 q -0.13829,0 -0.13829,-0.103717 0,-0.09878 0.13829,-0.09878 h 0.68651 v -2.548467 l -0.65194,0.207434 q -0.0593,0.01482 -0.0691,0.01482 -0.0346,0 -0.0642,-0.02963 -0.0296,-0.03457 -0.0296,-0.06914 0,-0.07408 0.10372,-0.108656 z"
         id="path651" />
      <path
         d="m 183.8585,53.017068 v 0.493889 q 0,0.582789 -0.25682,0.948266 -0.25682,0.365478 -0.66675,0.365478 -0.40993,0 -0.66675,-0.365478 -0.25682,-0.365477 -0.25682,-0.948266 v -0.493889 q 0,-0.587728 0.25682,-0.953206 0.25682,-0.365478 0.66675,-0.365478 0.40993,0 0.66675,0.365478 0.25682,0.365478 0.25682,0.953206 z m -1.64465,0.02469 v 0.439561 q 0,0.513645 0.23707,0.879123 0.16792,0.261761 0.48401,0.261761 0.31609,0 0.48401,-0.261761 0.23707,-0.365478 0.23707,-0.879123 v -0.439561 q 0,-0.513645 -0.23707,-0.879122 -0.16792,-0.261762 -0.48401,-0.261762 -0.31609,0 -0.48401,0.261762 -0.23707,0.365477 -0.23707,0.879122 z"
         id="path653" />
      <path
         d="m 186.00197,51.728017 v 2.820106 h 0.68651 q 0.13335,0 0.13335,0.09878 0,0.103717 -0.13335,0.103717 h -1.57551 q -0.13828,0 -0.13828,-0.103717 0,-0.09878 0.13828,-0.09878 h 0.68651 v -2.548467 l -0.65193,0.207434 q -0.0593,0.01482 -0.0692,0.01482 -0.0346,0 -0.0642,-0.02963 -0.0296,-0.03457 -0.0296,-0.06914 0,-0.07408 0.10372,-0.108656 z"
         id="path655" />
      <path
         d="m 189.78516,53.017068 v 0.493889 q 0,0.582789 -0.25683,0.948266 -0.25682,0.365478 -0.66675,0.365478 -0.40992,0 -0.66675,-0.365478 -0.25682,-0.365477 -0.25682,-0.948266 v -0.493889 q 0,-0.587728 0.25682,-0.953206 0.25683,-0.365478 0.66675,-0.365478 0.40993,0 0.66675,0.365478 0.25683,0.365478 0.25683,0.953206 z m -1.64465,0.02469 v 0.439561 q 0,0.513645 0.23706,0.879123 0.16793,0.261761 0.48401,0.261761 0.31609,0 0.48402,-0.261761 0.23706,-0.365478 0.23706,-0.879123 v -0.439561 q 0,-0.513645 -0.23706,-0.879122 -0.16793,-0.261762 -0.48402,-0.261762 -0.31608,0 -0.48401,0.261762 -0.23706,0.365477 -0.23706,0.879122 z"
         id="path657" />
    </g>
    <g
       aria-label="01111"
       id="text1254-6"
       style="font-size:4.93889px;line-height:1.25;font-family:'Tlwg Typewriter';-inkscape-font-specification:'Tlwg Typewriter';letter-spacing:0px;word-spacing:0px;stroke-width:0.264583">
      <path
         d="m 213.18016,53.017068 v 0.493889 q 0,0.582789 -0.25683,0.948266 -0.25682,0.365478 -0.66675,0.365478 -0.40992,0 -0.66675,-0.365478 -0.25682,-0.365477 -0.25682,-0.948266 v -0.493889 q 0,-0.587728 0.25682,-0.953206 0.25683,-0.365478 0.66675,-0.365478 0.40993,0 0.66675,0.365478 0.25683,0.365478 0.25683,0.953206 z m -1.64465,0.02469 v 0.439561 q 0,0.513645 0.23706,0.879123 0.16793,0.261761 0.48401,0.261761 0.31609,0 0.48402,-0.261761 0.23706,-0.365478 0.23706,-0.879123 v -0.439561 q 0,-0.513645 -0.23706,-0.879122 -0.16793,-0.261762 -0.48402,-0.261762 -0.31608,0 -0.48401,0.261762 -0.23706,0.365477 -0.23706,0.879122 z"
         style="fill:#1a1a1a"
         id="path660" />
      <path
         d="m 215.32363,51.728017 v 2.820106 h 0.6865 q 0.13335,0 0.13335,0.09878 0,0.103717 -0.13335,0.103717 h -1.5755 q -0.13829,0 -0.13829,-0.103717 0,-0.09878 0.13829,-0.09878 h 0.6865 v -2.548467 l -0.65193,0.207434 q -0.0593,0.01482 -0.0691,0.01482 -0.0346,0 -0.0642,-0.02963 -0.0296,-0.03457 -0.0296,-0.06914 0,-0.07408 0.10371,-0.108656 z"
         id="path662" />
      <path
         d="m 218.28695,51.728017 v 2.820106 h 0.68651 q 0.13335,0 0.13335,0.09878 0,0.103717 -0.13335,0.103717 h -1.57551 q -0.13828,0 -0.13828,-0.103717 0,-0.09878 0.13828,-0.09878 h 0.68651 v -2.548467 l -0.65193,0.207434 q -0.0593,0.01482 -0.0692,0.01482 -0.0346,0 -0.0642,-0.02963 -0.0296,-0.03457 -0.0296,-0.06914 0,-0.07408 0.10372,-0.108656 z"
         style="fill:#ff0000"
         id="path664" />
      <path
         d="m 221.25028,51.728017 v 2.820106 h 0.68651 q 0.13335,0 0.13335,0.09878 0,0.103717 -0.13335,0.103717 h -1.57551 q -0.13829,0 -0.13829,-0.103717 0,-0.09878 0.13829,-0.09878 h 0.68651 v -2.548467 l -0.65194,0.207434 q -0.0593,0.01482 -0.0691,0.01482 -0.0346,0 -0.0642,-0.02963 -0.0296,-0.03457 -0.0296,-0.06914 0,-0.07408 0.10372,-0.108656 z"
         id="path666" />
      <path
         d="m 224.21361,51.728017 v 2.820106 h 0.6865 q 0.13335,0 0.13335,0.09878 0,0.103717 -0.13335,0.103717 h -1.5755 q -0.13829,0 -0.13829,-0.103717 0,-0.09878 0.13829,-0.09878 h 0.6865 v -2.548467 l -0.65193,0.207434 q -0.0593,0.01482 -0.0692,0.01482 -0.0346,0 -0.0642,-0.02963 -0.0296,-0.03457 -0.0296,-0.06914 0,-0.07408 0.10371,-0.108656 z"
         style="fill:#ff0000"
         id="path668" />
    </g>
    <path
       style="fill:none;stroke:#000000;stroke-width:0.264583px;stroke-linecap:butt;stroke-linejoin:miter;stroke-opacity:1"
       d="m 201.29992,47.750983 v 18.62931"
       id="path1347" />
    <path
       d="m 155.07017,55.023283 c 1.02664,0 1.73633,0.0827 2.11874,0.25149 0.0345,0.0172 0.0689,0.0241 0.0999,0.0241 0.12747,0 0.2067,-0.0965 0.21015,-0.2136 0.003,-0.0999 -0.0379,-0.1757 -0.12747,-0.21704 -0.37896,-0.16881 -1.00253,-0.26183 -1.88103,-0.28939 -0.4513,-0.0138 -0.87505,-0.0103 -1.26779,0.0138 l -0.24805,0.0172 c -0.11024,0.007 -0.21015,0.10679 -0.21015,0.22048 0,0.69247 0.0241,1.32981 0.0241,1.90514 0,0.76137 -0.0689,2.41846 -0.0689,2.54593 0,0.12747 0.11024,0.23427 0.22393,0.23427 1.62609,0 2.66651,-0.0172 3.11782,-0.0586 0.13435,-0.0103 0.19637,-0.11369 0.19637,-0.22049 0,-0.11369 -0.0758,-0.24115 -0.2136,-0.22737 -0.40997,0.0345 -1.36081,0.0551 -2.86632,0.0586 l 0.0172,-0.33073 c 0.0172,-0.36173 0.031,-0.84749 0.0379,-1.46072 l 2.49769,0.0172 c 0.1447,0.003 0.21705,-0.11025 0.21705,-0.22393 0,-0.11025 -0.0724,-0.22393 -0.2136,-0.22393 l -2.4977,-0.0172 c 0,-0.5271 -0.007,-1.1231 -0.0207,-1.78456 0.21704,-0.0138 0.56499,-0.0207 0.85438,-0.0207 z"
       id="path1503"
       style="font-size:7.05556px;line-height:1.25;font-family:Chilanka;-inkscape-font-specification:Chilanka;letter-spacing:0px;word-spacing:0px;stroke-width:0.264583" />
    <path
       d="m 158.41881,55.963793 c -0.11369,0 -0.23083,0.0861 -0.23083,0.22049 0,0.0586 0.031,0.11713 0.0827,0.18259 0.0586,0.0723 0.12403,0.23771 0.19638,0.50298 0.0724,0.26527 0.11368,0.66146 0.12402,1.18856 -0.0448,0.28594 -0.0689,0.596 -0.0689,0.93362 0,0.0999 0.003,0.19982 0.007,0.30317 0.007,0.1378 0.11713,0.20671 0.22738,0.20671 0.10335,0 0.20326,-0.062 0.21704,-0.18948 l 0.0138,-0.13436 c 0.0345,-0.33418 0.0517,-0.66835 0.0517,-0.99908 0,-0.031 0,-0.0586 0,-0.0896 0.12746,-0.73381 0.49954,-1.53307 1.18166,-1.63298 0.0551,-0.007 0.11025,-0.0103 0.16192,-0.0103 0.58567,0 0.98186,0.47198 1.0921,0.99908 0.0241,0.12403 0.0379,0.24805 0.0379,0.37552 0,0.43064 -0.14125,0.88883 -0.42719,1.38837 -0.0999,0.16881 0.0551,0.33073 0.19981,0.33073 0.0724,0 0.14814,-0.0345 0.18948,-0.1068 0.32384,-0.56499 0.48576,-1.10243 0.48576,-1.60886 0,-0.16192 -0.0172,-0.31695 -0.0482,-0.47198 -0.14814,-0.71658 -0.69591,-1.35736 -1.52617,-1.35736 -0.0758,0 -0.15159,0.007 -0.23083,0.0172 -0.49954,0.0724 -0.89917,0.39274 -1.20923,0.95429 -0.0758,-0.41685 -0.19637,-0.72347 -0.36173,-0.92328 -0.0448,-0.0551 -0.1068,-0.0792 -0.16537,-0.0792 z"
       id="path1505"
       style="font-size:7.05556px;line-height:1.25;font-family:Chilanka;-inkscape-font-specification:Chilanka;letter-spacing:0px;word-spacing:0px;stroke-width:0.264583" />
    <path
       d="m 163.09725,58.175543 c 0,-0.17914 0.0379,-0.37207 0.11024,-0.56844 0.19637,-0.5271 0.6718,-1.00941 1.32981,-1.00941 0.13436,0 0.27905,0.0207 0.43064,0.0655 0.0241,0.007 0.0482,0.0103 0.0689,0.0103 0.12746,0 0.21015,-0.12058 0.21015,-0.23427 0,-0.0861 -0.0448,-0.17225 -0.15159,-0.20326 -0.20326,-0.062 -0.39618,-0.093 -0.58566,-0.093 -0.86128,0 -1.46762,0.64078 -1.72255,1.31258 -0.0896,0.24115 -0.13781,0.47887 -0.13781,0.70969 0,0.17225 0.0276,0.34106 0.0758,0.50643 0.15503,0.52021 0.61668,0.88883 1.31948,0.88883 0.3135,0 0.67868,-0.0758 1.08865,-0.22393 0.0792,-0.0276 0.15158,-0.11024 0.15158,-0.21704 0,-0.12058 -0.1068,-0.21704 -0.22393,-0.21704 -0.0276,0 -0.0517,0.003 -0.0792,0.0138 -0.35829,0.13091 -0.66835,0.19292 -0.93362,0.19292 -0.60978,0 -0.95085,-0.36862 -0.95085,-0.93362 z"
       id="path1507"
       style="font-size:7.05556px;line-height:1.25;font-family:Chilanka;-inkscape-font-specification:Chilanka;letter-spacing:0px;word-spacing:0px;stroke-width:0.264583" />
    <g
       aria-label="Dec"
       id="text1351-5"
       style="font-size:7.05556px;line-height:1.25;font-family:Chilanka;-inkscape-font-specification:Chilanka;letter-spacing:0px;word-spacing:0px;stroke-width:0.264583"
       transform="translate(125.56814,-53.655267)">
      <path
         d="m 112.35832,113.005 c 0.0103,0.11369 0.10335,0.21704 0.22393,0.21704 0.007,0 0.0103,0 0.0172,0 1.42627,-0.1068 2.54248,-0.75103 2.7733,-1.97059 0.031,-0.15159 0.0413,-0.30317 0.0413,-0.45131 0,-0.98185 -0.596,-1.82246 -1.20234,-2.22209 -0.37896,-0.24805 -0.77859,-0.37207 -1.20234,-0.37207 -0.16191,0 -0.32728,0.0172 -0.49609,0.0551 -0.093,0.0207 -0.1757,0.11024 -0.1757,0.22049 z m 0.42719,-4.33738 c 0.0758,-0.0103 0.14814,-0.0138 0.22049,-0.0138 0.33417,0 0.64768,0.0965 0.94051,0.28595 0.52021,0.34106 1.01631,1.03353 1.01631,1.86724 0,0.12747 -0.0103,0.26183 -0.0379,0.39963 -0.1757,0.9164 -1.06454,1.41594 -2.11874,1.5434 z"
         id="path1510" />
      <path
         d="m 116.59235,112.0197 c 0.0172,0.003 0.0379,0.007 0.0551,0.007 0.95774,0 1.6881,-0.17225 2.18764,-0.50987 0.35829,-0.2446 0.56155,-0.52021 0.56155,-0.89573 0,-0.11024 -0.0207,-0.21359 -0.0655,-0.3135 -0.16192,-0.35829 -0.56844,-0.56155 -1.07143,-0.56155 -0.65801,0 -1.18855,0.19981 -1.59508,0.60634 -0.3135,0.3135 -0.49609,0.69246 -0.54777,1.12654 -0.0103,0.0861 -0.0138,0.16537 -0.0138,0.24461 0,0.35484 0.0999,0.63045 0.27906,0.88194 0.31694,0.44786 0.77859,0.62701 1.2988,0.62701 0.50298,0 1.05764,-0.16881 1.58474,-0.42719 0.0689,-0.0345 0.12403,-0.11025 0.12403,-0.21016 0,-0.12402 -0.1068,-0.21704 -0.22394,-0.21704 -0.0345,0 -0.0654,0.007 -0.0999,0.0241 -0.51332,0.25494 -0.96808,0.38241 -1.36082,0.38241 -0.58222,0 -0.98185,-0.28595 -1.11276,-0.76482 z m -0.0379,-0.4203 c 0.0655,-0.86472 0.79237,-1.4056 1.70877,-1.4056 0.22738,0 0.40308,0.0482 0.53399,0.14814 0.093,0.0724 0.15503,0.13436 0.15503,0.26527 0,0.21704 -0.12747,0.37552 -0.36518,0.53744 -0.42719,0.28939 -1.07143,0.43408 -1.93959,0.43408 -0.031,0 -0.062,0.007 -0.093,0.0207 z"
         id="path1512" />
      <path
         d="m 120.53354,111.85089 c 0,-0.17914 0.0379,-0.37207 0.11024,-0.56844 0.19637,-0.5271 0.6718,-1.00941 1.32981,-1.00941 0.13436,0 0.27905,0.0207 0.43064,0.0655 0.0241,0.007 0.0482,0.0103 0.0689,0.0103 0.12747,0 0.21015,-0.12058 0.21015,-0.23427 0,-0.0861 -0.0448,-0.17225 -0.15158,-0.20326 -0.20327,-0.062 -0.39619,-0.093 -0.58567,-0.093 -0.86128,0 -1.46761,0.64078 -1.72255,1.31258 -0.0896,0.24116 -0.1378,0.47887 -0.1378,0.70969 0,0.17225 0.0276,0.34106 0.0758,0.50643 0.15503,0.52021 0.61667,0.88883 1.31947,0.88883 0.3135,0 0.67868,-0.0758 1.08865,-0.22393 0.0792,-0.0276 0.15159,-0.11024 0.15159,-0.21704 0,-0.12058 -0.1068,-0.21704 -0.22394,-0.21704 -0.0276,0 -0.0517,0.003 -0.0792,0.0138 -0.35829,0.13091 -0.66835,0.19293 -0.93362,0.19293 -0.60979,0 -0.95085,-0.36863 -0.95085,-0.93363 z"
         id="path1514" />
    </g>
    <g
       aria-label="sent"
       id="text1388"
       style="font-size:5.64444px;line-height:1.25;font-family:Chilanka;-inkscape-font-specification:Chilanka;letter-spacing:0px;word-spacing:0px;stroke-width:0.264583"
       transform="translate(125.56814,-53.655267)">
      <path
         d="m 51.693405,97.579638 c 0,0.06614 0.0083,0.135047 0.03032,0.206705 0.08268,0.286632 0.327973,0.504362 0.617361,0.581532 0.104731,0.02756 0.267339,0.04134 0.485069,0.04134 0.09646,0 0.220486,-0.0083 0.330729,-0.0083 0.253559,0 0.421679,0.08268 0.501605,0.242534 0.02481,0.05237 0.03859,0.101975 0.03859,0.151584 0,0.08544 -0.03859,0.168121 -0.110243,0.248047 -0.135048,0.146072 -0.330729,0.220486 -0.584288,0.220486 -0.407899,0 -0.71658,-0.129535 -0.972894,-0.355534 -0.03307,-0.02756 -0.07441,-0.04134 -0.118512,-0.04134 -0.09646,0 -0.179144,0.07717 -0.179144,0.176389 0,0.04961 0.02205,0.101975 0.06063,0.135048 0.286632,0.250803 0.647678,0.399631 1.085893,0.440972 0.04134,0.0028 0.07993,0.0055 0.118512,0.0055 0.190169,0 0.369314,-0.03858 0.542946,-0.118511 0.272852,-0.124024 0.438216,-0.319705 0.49885,-0.587044 0.01102,-0.0441 0.01378,-0.08819 0.01378,-0.132292 0,-0.09922 -0.02481,-0.198437 -0.07441,-0.300412 -0.15434,-0.30868 -0.438216,-0.443728 -0.91226,-0.443728 -0.09646,0 -0.201194,0.01102 -0.289388,0.01102 -0.267339,0 -0.460265,-0.05236 -0.573264,-0.157096 -0.101974,-0.09371 -0.15434,-0.195681 -0.15434,-0.305924 0,-0.04134 0.0083,-0.08268 0.02205,-0.126779 0.0689,-0.206706 0.292144,-0.308681 0.669726,-0.308681 0.369314,0 0.755164,0.201194 0.964626,0.402387 0.03583,0.03307 0.07717,0.04685 0.126779,0.04685 0.104731,-0.0028 0.173633,-0.09095 0.173633,-0.181901 0,-0.0441 -0.01654,-0.08819 -0.05512,-0.124023 -0.347265,-0.330729 -0.782725,-0.501605 -1.314647,-0.501605 -0.485069,0 -0.942577,0.267339 -0.942577,0.782725 z"
         id="path1494" />
      <path
         d="m 54.995182,98.662775 c 0.01378,0.0028 0.03032,0.0055 0.0441,0.0055 0.766188,0 1.350476,-0.137804 1.750107,-0.407899 0.286632,-0.195681 0.44924,-0.416167 0.44924,-0.716579 0,-0.08819 -0.01654,-0.170877 -0.05236,-0.250803 -0.129536,-0.286632 -0.454753,-0.44924 -0.85714,-0.44924 -0.52641,0 -0.950845,0.159852 -1.276062,0.485069 -0.250803,0.250803 -0.396875,0.553971 -0.438216,0.901236 -0.0083,0.0689 -0.01102,0.132292 -0.01102,0.195681 0,0.283876 0.07993,0.504362 0.223242,0.705555 0.253559,0.35829 0.622873,0.501606 1.03904,0.501606 0.402387,0 0.846115,-0.135048 1.267794,-0.341753 0.05512,-0.02756 0.09922,-0.08819 0.09922,-0.168121 0,-0.09922 -0.08544,-0.173632 -0.179145,-0.173632 -0.02756,0 -0.05237,0.0055 -0.07993,0.01929 -0.410655,0.20395 -0.774457,0.305924 -1.088649,0.305924 -0.465777,0 -0.785482,-0.228754 -0.890212,-0.611848 z m -0.03032,-0.336241 c 0.05236,-0.691775 0.633897,-1.124479 1.367013,-1.124479 0.1819,0 0.32246,0.03859 0.427191,0.118512 0.07441,0.05788 0.124023,0.107487 0.124023,0.212217 0,0.173633 -0.101974,0.300412 -0.292143,0.429948 -0.341754,0.23151 -0.85714,0.347265 -1.55167,0.347265 -0.02481,0 -0.04961,0.0055 -0.07441,0.01654 z"
         id="path1496" />
      <path
         d="m 57.974498,96.758328 c -0.09095,0 -0.184657,0.0689 -0.184657,0.176388 0,0.04685 0.02481,0.09371 0.06615,0.146072 0.04685,0.05788 0.09922,0.190169 0.157096,0.402387 0.05788,0.212218 0.09095,0.529166 0.09922,0.950846 -0.03583,0.228754 -0.05512,0.476801 -0.05512,0.746896 0,0.07993 0.0028,0.159852 0.0055,0.242534 0.0055,0.110243 0.09371,0.165365 0.181901,0.165365 0.08268,0 0.162609,-0.04961 0.173633,-0.151584 l 0.01102,-0.107487 c 0.02756,-0.267339 0.04134,-0.534679 0.04134,-0.799262 0,-0.0248 0,-0.04685 0,-0.07166 0.101975,-0.587043 0.399631,-1.226453 0.945334,-1.306379 0.0441,-0.0055 0.08819,-0.0083 0.129535,-0.0083 0.468533,0 0.785482,0.377582 0.873676,0.799261 0.01929,0.09922 0.03032,0.198438 0.03032,0.300413 0,0.344509 -0.112999,0.711067 -0.341753,1.110698 -0.07993,0.135047 0.0441,0.264583 0.159852,0.264583 0.05788,0 0.118511,-0.02756 0.151584,-0.08544 0.259071,-0.451996 0.388606,-0.881943 0.388606,-1.287086 0,-0.129536 -0.01378,-0.253559 -0.03858,-0.377583 -0.118511,-0.573263 -0.556727,-1.085893 -1.220941,-1.085893 -0.06063,0 -0.121267,0.0055 -0.184657,0.01378 -0.39963,0.05788 -0.719335,0.314192 -0.967382,0.763432 -0.06063,-0.333485 -0.157096,-0.578775 -0.289387,-0.738628 -0.03583,-0.0441 -0.08544,-0.06339 -0.132292,-0.06339 z"
         id="path1498" />
      <path
         d="m 62.800384,99.50889 c 0,-0.07166 -0.0441,-0.132292 -0.09922,-0.162609 -0.04685,-0.0248 -0.09095,-0.09922 -0.132292,-0.220486 -0.09095,-0.270095 -0.135047,-0.735871 -0.135047,-1.402841 0,-0.146072 0,-0.303169 0.0055,-0.468533 0.143316,0 0.283875,0.0028 0.427191,0.0028 h 0.0028 c 0.112999,0 0.170877,-0.08819 0.170877,-0.176389 0,-0.09095 -0.05788,-0.179145 -0.173633,-0.181901 l -0.416167,-0.0028 c 0.0083,-0.170876 0.02481,-0.66697 0.02481,-0.967382 0,-0.05512 -0.0028,-0.101975 -0.0028,-0.14056 -0.0028,-0.112999 -0.09095,-0.16812 -0.179145,-0.16812 -0.0882,0 -0.179145,0.05788 -0.179145,0.170876 0,0.04134 0.0028,0.0882 0.0028,0.146072 0,0.2949 -0.01654,0.79375 -0.02481,0.956358 l -0.553971,-0.0028 c -0.09371,0 -0.179144,0.08544 -0.179144,0.173633 0,0.09646 0.08268,0.184657 0.179144,0.184657 0.181901,0 0.361046,0.0028 0.542947,0.0028 -0.0055,0.181901 -0.0083,0.355533 -0.0083,0.518142 0,0.325217 0.01102,0.611848 0.03307,0.857139 0.04961,0.564995 0.192925,0.91226 0.429947,1.03904 0.02756,0.01378 0.05512,0.02205 0.08268,0.02205 0.09646,0 0.181901,-0.07993 0.181901,-0.179144 z"
         id="path1500" />
    </g>
    <g
       aria-label="received"
       id="text1388-6"
       style="font-size:5.64444px;line-height:1.25;font-family:Chilanka;-inkscape-font-specification:Chilanka;letter-spacing:0px;word-spacing:0px;stroke-width:0.264583"
       transform="translate(125.56814,-53.655267)">
      <path
         d="m 82.554062,99.66185 c 0.07717,0 0.220486,-0.07993 0.220486,-0.162609 0,-0.02205 -0.01102,-0.04961 -0.01102,-0.09646 0,-0.08544 0.01102,-0.165365 0.02205,-0.330729 0.02756,-0.20395 0.0689,-0.399631 0.121268,-0.584288 0.220486,-0.777213 0.564995,-1.196136 1.030771,-1.254014 0.104731,-0.01102 0.151584,-0.08819 0.151584,-0.16812 0,-0.09371 -0.06339,-0.187413 -0.173632,-0.187413 -0.0083,0 -0.01378,0 -0.02205,0 -0.460264,0.05788 -0.82131,0.350021 -1.088649,0.876431 -0.0083,-0.319704 -0.03307,-0.553971 -0.07166,-0.702799 -0.01929,-0.0689 -0.08544,-0.135047 -0.170877,-0.135047 -0.110243,0 -0.173632,0.07717 -0.173632,0.181901 0,0.03032 0.0028,0.06614 0.01378,0.10473 0.02205,0.08819 0.03858,0.333485 0.04961,0.741384 0.0028,0.14056 0.0055,0.26734 0.0055,0.383095 0,0.32246 -0.04134,0.708311 -0.05237,0.909504 -0.0055,0.06615 -0.03858,0.143316 -0.03858,0.212218 0,0.08268 0.08544,0.212218 0.187413,0.212218 z"
         id="path1477" />
      <path
         d="m 84.362047,98.705492 c 0.01378,0.0028 0.03032,0.0055 0.0441,0.0055 0.766189,0 1.350476,-0.137804 1.750107,-0.407899 0.286632,-0.195681 0.44924,-0.416167 0.44924,-0.716579 0,-0.0882 -0.01654,-0.170877 -0.05236,-0.250803 -0.129536,-0.286632 -0.454752,-0.44924 -0.857139,-0.44924 -0.52641,0 -0.950846,0.159852 -1.276063,0.485069 -0.250802,0.250803 -0.396874,0.553971 -0.438215,0.901236 -0.0083,0.0689 -0.01102,0.132292 -0.01102,0.195681 0,0.283876 0.07993,0.504362 0.223242,0.705555 0.253559,0.35829 0.622873,0.501606 1.03904,0.501606 0.402387,0 0.846115,-0.135048 1.267794,-0.341753 0.05512,-0.02756 0.09922,-0.08819 0.09922,-0.168121 0,-0.09922 -0.08544,-0.173632 -0.179145,-0.173632 -0.02756,0 -0.05236,0.0055 -0.07993,0.01929 -0.410655,0.20395 -0.774457,0.305924 -1.088649,0.305924 -0.465777,0 -0.785481,-0.228754 -0.890212,-0.611848 z m -0.03032,-0.336241 c 0.05237,-0.691775 0.633897,-1.124479 1.367013,-1.124479 0.181901,0 0.322461,0.03858 0.427191,0.118512 0.07441,0.05788 0.124024,0.107487 0.124024,0.212217 0,0.173633 -0.101975,0.300412 -0.292144,0.429948 -0.341753,0.23151 -0.857139,0.347265 -1.55167,0.347265 -0.02481,0 -0.04961,0.0055 -0.07441,0.01654 z"
         id="path1479" />
      <path
         d="m 87.514996,98.570444 c 0,-0.143316 0.03032,-0.297656 0.08819,-0.454752 0.157096,-0.421679 0.537435,-0.80753 1.063845,-0.80753 0.107487,0 0.223242,0.01654 0.344509,0.05237 0.01929,0.0055 0.03858,0.0083 0.05512,0.0083 0.101974,0 0.16812,-0.09646 0.16812,-0.187413 0,-0.0689 -0.03583,-0.137804 -0.121267,-0.162609 -0.162608,-0.04961 -0.316949,-0.07441 -0.468533,-0.07441 -0.689018,0 -1.174087,0.51263 -1.378037,1.050065 -0.07166,0.192925 -0.110243,0.383094 -0.110243,0.567751 0,0.137804 0.02205,0.272851 0.06063,0.405143 0.124023,0.416167 0.493337,0.711067 1.055576,0.711067 0.250803,0 0.542947,-0.06063 0.87092,-0.179145 0.06339,-0.02205 0.121267,-0.08819 0.121267,-0.173632 0,-0.09646 -0.08544,-0.173633 -0.179145,-0.173633 -0.02205,0 -0.04134,0.0028 -0.06339,0.01102 -0.286631,0.104731 -0.534678,0.15434 -0.746896,0.15434 -0.487825,0 -0.760676,-0.2949 -0.760676,-0.746896 z"
         id="path1481" />
      <path
         d="m 90.204924,98.705492 c 0.01378,0.0028 0.03032,0.0055 0.0441,0.0055 0.766188,0 1.350476,-0.137804 1.750107,-0.407899 0.286631,-0.195681 0.44924,-0.416167 0.44924,-0.716579 0,-0.0882 -0.01654,-0.170877 -0.05237,-0.250803 -0.129535,-0.286632 -0.454752,-0.44924 -0.857139,-0.44924 -0.52641,0 -0.950845,0.159852 -1.276062,0.485069 -0.250803,0.250803 -0.396875,0.553971 -0.438216,0.901236 -0.0083,0.0689 -0.01102,0.132292 -0.01102,0.195681 0,0.283876 0.07993,0.504362 0.223242,0.705555 0.253559,0.35829 0.622873,0.501606 1.03904,0.501606 0.402387,0 0.846115,-0.135048 1.267794,-0.341753 0.05512,-0.02756 0.09922,-0.08819 0.09922,-0.168121 0,-0.09922 -0.08544,-0.173632 -0.179145,-0.173632 -0.02756,0 -0.05237,0.0055 -0.07993,0.01929 -0.410655,0.20395 -0.774457,0.305924 -1.08865,0.305924 -0.465776,0 -0.785481,-0.228754 -0.890212,-0.611848 z m -0.03032,-0.336241 c 0.05237,-0.691775 0.633898,-1.124479 1.367013,-1.124479 0.181901,0 0.322461,0.03858 0.427192,0.118512 0.07441,0.05788 0.124023,0.107487 0.124023,0.212217 0,0.173633 -0.101975,0.300412 -0.292144,0.429948 -0.341753,0.23151 -0.857139,0.347265 -1.551669,0.347265 -0.02481,0 -0.04961,0.0055 -0.07442,0.01654 z"
         id="path1483" />
      <path
         d="m 92.999584,96.291171 c 0,0.157096 0.118511,0.286631 0.253558,0.286631 0.06339,0 0.135048,-0.01929 0.214974,-0.06063 0.143316,-0.04961 0.234267,-0.176389 0.234267,-0.311437 0,-0.143315 -0.137804,-0.325216 -0.308681,-0.325216 -0.176389,0 -0.394118,0.206705 -0.394118,0.410655 z m 0.446484,2.89939 c 0.02756,-0.551215 0.02756,-0.992187 0.02756,-1.590255 0,-0.181901 -0.0028,-0.366558 -0.0055,-0.562239 0,-0.115755 -0.08544,-0.170877 -0.173632,-0.170877 -0.09095,0 -0.181901,0.05788 -0.181901,0.176389 0.0028,0.143316 0.0028,0.2949 0.0028,0.44924 0,0.424436 0.0028,1.739083 -0.07993,1.926496 -0.0083,0.02481 -0.01378,0.04961 -0.01378,0.07166 0,0.101975 0.08544,0.181901 0.181901,0.181901 0.170877,0 0.23151,-0.187413 0.242535,-0.482313 z"
         id="path1485" />
      <path
         d="m 94.256354,97.010506 c 0.107487,0.774457 0.220486,1.375281 0.341753,1.807985 0.118511,0.432704 0.267339,0.694531 0.440972,0.785481 0.05512,0.03032 0.107487,0.0441 0.162608,0.0441 0.165365,0 0.325217,-0.137803 0.476801,-0.416167 0.203949,-0.366558 0.440972,-1.091405 0.708311,-2.171787 0.0028,-0.01654 0.0055,-0.03032 0.0055,-0.0441 0,-0.110243 -0.09371,-0.170876 -0.187413,-0.170876 -0.07441,0 -0.148828,0.04134 -0.16812,0.129535 -0.341754,1.380793 -0.620117,2.149738 -0.837847,2.304078 -0.201193,-0.162608 -0.396875,-0.934309 -0.5898,-2.317858 -0.01102,-0.101975 -0.09095,-0.148828 -0.170876,-0.148828 -0.09095,0 -0.184657,0.06063 -0.184657,0.16812 0,0.0083 0,0.01929 0.0028,0.03032 z"
         id="path1487" />
      <path
         d="m 97.332132,98.705492 c 0.01378,0.0028 0.03032,0.0055 0.0441,0.0055 0.766189,0 1.350477,-0.137804 1.750107,-0.407899 0.286632,-0.195681 0.449241,-0.416167 0.449241,-0.716579 0,-0.0882 -0.01654,-0.170877 -0.05237,-0.250803 -0.129535,-0.286632 -0.454752,-0.44924 -0.857139,-0.44924 -0.52641,0 -0.950846,0.159852 -1.276062,0.485069 -0.250803,0.250803 -0.396875,0.553971 -0.438216,0.901236 -0.0083,0.0689 -0.01102,0.132292 -0.01102,0.195681 0,0.283876 0.07993,0.504362 0.223242,0.705555 0.253558,0.35829 0.622872,0.501606 1.03904,0.501606 0.402386,0 0.846114,-0.135048 1.267794,-0.341753 0.05512,-0.02756 0.09922,-0.08819 0.09922,-0.168121 0,-0.09922 -0.08544,-0.173632 -0.179144,-0.173632 -0.02756,0 -0.05237,0.0055 -0.07993,0.01929 -0.410655,0.20395 -0.774456,0.305924 -1.088649,0.305924 -0.465776,0 -0.785481,-0.228754 -0.890212,-0.611848 z m -0.03032,-0.336241 c 0.05237,-0.691775 0.633897,-1.124479 1.367013,-1.124479 0.181901,0 0.322461,0.03858 0.427192,0.118512 0.07441,0.05788 0.124023,0.107487 0.124023,0.212217 0,0.173633 -0.101975,0.300412 -0.292144,0.429948 -0.341753,0.23151 -0.857139,0.347265 -1.55167,0.347265 -0.0248,0 -0.04961,0.0055 -0.07441,0.01654 z"
         id="path1489" />
      <path
         d="m 102.82499,98.465713 c 0,-0.03858 0,-0.07717 0,-0.112999 0,-0.08544 -0.006,-0.140559 -0.0165,-0.173632 -0.003,-0.124024 -0.003,-0.283876 -0.003,-0.479557 0,-0.314193 0.003,-0.722092 0.006,-1.218185 l 0.006,-0.675238 c 0.003,-0.115755 -0.0882,-0.176389 -0.17914,-0.176389 -0.0882,0 -0.17915,0.05788 -0.17915,0.173633 l -0.006,0.672482 c -0.003,0.383094 -0.003,0.689018 -0.003,0.917772 -0.36655,-0.383094 -0.7276,-0.587043 -1.07762,-0.614604 -0.0331,-0.0028 -0.0689,-0.0028 -0.10198,-0.0028 -0.30317,0 -0.55672,0.112999 -0.75241,0.352777 -0.23977,0.286632 -0.3886,0.697287 -0.3886,1.110698 0,0.815798 0.56224,1.386306 1.36426,1.386306 0.39687,0 0.72209,-0.20395 0.9784,-0.606337 0.006,0.159853 0.0138,0.289388 0.022,0.383095 0.008,0.09922 0.0772,0.190169 0.17363,0.190169 0.14607,0 0.19568,-0.118511 0.19568,-0.264583 0,-0.242535 -0.0386,-0.5898 -0.0386,-0.862652 z m -1.32843,0.802018 c -0.62012,0 -1.00597,-0.424435 -1.00597,-1.044552 0,-0.540191 0.30593,-1.091406 0.79375,-1.091406 0.0165,0 0.0331,0.0028 0.0496,0.0028 0.34727,0.03032 0.71658,0.300413 1.11621,0.813042 v 0.250803 c -0.0138,0.03583 -0.0331,0.09095 -0.0606,0.168121 -0.21773,0.600824 -0.51263,0.901236 -0.89297,0.901236 z"
         id="path1491" />
    </g>
    <rect
       style="fill:#aadaff;fill-opacity:1;stroke:#000000;stroke-width:0.402;stroke-linecap:round;stroke-linejoin:round;stroke-dasharray:none;stroke-dashoffset:0;stroke-opacity:1"
       id="rect234-36"
       width="18.921894"
       height="18.921894"
       x="32.820843"
       y="21.243046"
       inkscape:export-filename="../unreliable_channel.svg"
       inkscape:export-xdpi="200"
       inkscape:export-ydpi="200"
       ry="9.460947" />
    <rect
       style="fill:#aadaff;fill-opacity:1;stroke:#000000;stroke-width:0.402;stroke-linecap:round;stroke-linejoin:round;stroke-dasharray:none;stroke-dashoffset:0;stroke-opacity:1"
       id="rect234-36-5"
       width="18.921894"
       height="18.921894"
       x="32.820843"
       y="68.427444"
       inkscape:export-filename="../unreliable_channel.svg"
       inkscape:export-xdpi="200"
       inkscape:export-ydpi="200"
       ry="9.460947" />
    <rect
       style="fill:#aadaff;fill-opacity:1;stroke:#000000;stroke-width:0.402;stroke-linecap:round;stroke-linejoin:round;stroke-dasharray:none;stroke-dashoffset:0;stroke-opacity:1"
       id="rect234-36-5-3"
       width="18.921894"
       height="18.921894"
       x="92.675499"
       y="68.427444"
       inkscape:export-filename="../unreliable_channel.svg"
       inkscape:export-xdpi="200"
       inkscape:export-ydpi="200"
       ry="9.460947" />
    <rect
       style="fill:#aadaff;fill-opacity:1;stroke:#000000;stroke-width:0.402;stroke-linecap:round;stroke-linejoin:round;stroke-dasharray:none;stroke-dashoffset:0;stroke-opacity:1"
       id="rect234-36-7"
       width="18.921894"
       height="18.921894"
       x="92.675499"
       y="21.243046"
       inkscape:export-filename="../unreliable_channel.svg"
       inkscape:export-xdpi="200"
       inkscape:export-ydpi="200"
       ry="9.460947" />
    <g
       aria-label="1"
       id="text1656"
       style="font-size:17.6389px;line-height:1.25;font-family:'Tlwg Typewriter';-inkscape-font-specification:'Tlwg Typewriter';letter-spacing:0px;word-spacing:0px;stroke-width:0.0700042">
      <path
         d="m 102.50687,72.490881 v 10.071813 h 2.4518 q 0.47625,0 0.47625,0.352778 0,0.370417 -0.47625,0.370417 h -5.626805 q -0.493889,0 -0.493889,-0.370417 0,-0.352778 0.493889,-0.352778 h 2.451805 v -9.101673 l -2.328333,0.740834 q -0.211667,0.05292 -0.246944,0.05292 -0.123473,0 -0.229306,-0.105833 -0.105833,-0.123472 -0.105833,-0.246945 0,-0.264583 0.370416,-0.388055 z"
         id="path672" />
    </g>
    <g
       aria-label="1"
       id="text1656-2"
       style="font-size:17.6389px;line-height:1.25;font-family:'Tlwg Typewriter';-inkscape-font-specification:'Tlwg Typewriter';letter-spacing:0px;word-spacing:0px;stroke-width:0.0700042">
      <path
         d="m 42.652196,72.490881 v 10.071813 h 2.451807 q 0.47625,0 0.47625,0.352778 0,0.370417 -0.47625,0.370417 h -5.62681 q -0.493889,0 -0.493889,-0.370417 0,-0.352778 0.493889,-0.352778 h 2.451808 v -9.101673 l -2.328335,0.740834 q -0.211667,0.05292 -0.246945,0.05292 -0.123472,0 -0.229306,-0.105833 -0.105833,-0.123472 -0.105833,-0.246945 0,-0.264583 0.370417,-0.388055 z"
         id="path676" />
    </g>
    <g
       aria-label="0"
       id="text1656-2-0"
       style="font-size:17.6389px;line-height:1.25;font-family:'Tlwg Typewriter';-inkscape-font-specification:'Tlwg Typewriter';letter-spacing:0px;word-spacing:0px;stroke-width:0.0700042">
      <path
         d="m 45.580253,29.958301 v 1.76389 q 0,2.08139 -0.917223,3.386669 -0.917223,1.305279 -2.381251,1.305279 -1.464029,0 -2.381252,-1.305279 -0.917223,-1.305279 -0.917223,-3.386669 v -1.76389 q 0,-2.099029 0.917223,-3.404308 0.917223,-1.305278 2.381252,-1.305278 1.464028,0 2.381251,1.305278 0.917223,1.305279 0.917223,3.404308 z m -5.873754,0.0882 v 1.569862 q 0,1.834445 0.846667,3.139724 0.599723,0.934862 1.728613,0.934862 1.128889,0 1.728612,-0.934862 0.846667,-1.305279 0.846667,-3.139724 v -1.569862 q 0,-1.834446 -0.846667,-3.139725 -0.599723,-0.934862 -1.728612,-0.934862 -1.12889,0 -1.728613,0.934862 -0.846667,1.305279 -0.846667,3.139725 z"
         id="path679" />
    </g>
    <path
       style="fill:none;fill-rule:evenodd;stroke:#000000;stroke-width:0.365;stroke-linecap:butt;stroke-linejoin:miter;stroke-dasharray:none;stroke-opacity:1;marker-end:url(#TriangleStart)"
       d="M 51.742737,30.703993 H 92.675499"
       id="path671"
       inkscape:connector-type="polyline"
       inkscape:connector-curvature="0"
       inkscape:connection-end="#rect234-36-7"
       inkscape:connection-start="#rect234-36" />
    <path
       style="fill:none;fill-rule:evenodd;stroke:#000000;stroke-width:0.365;stroke-linecap:butt;stroke-linejoin:miter;stroke-dasharray:none;stroke-opacity:1;marker-end:url(#TriangleStart)"
       d="M 49.718446,36.56643 94.69979,72.025954"
       id="path673"
       inkscape:connector-type="polyline"
       inkscape:connector-curvature="0"
       inkscape:connection-start="#rect234-36"
       inkscape:connection-end="#rect234-36-5-3" />
    <path
       style="fill:none;fill-rule:evenodd;stroke:#000000;stroke-width:0.365;stroke-linecap:butt;stroke-linejoin:miter;stroke-dasharray:none;stroke-opacity:1;marker-end:url(#TriangleStart)"
       d="M 49.718446,72.025954 94.69979,36.56643"
       id="path675"
       inkscape:connector-type="polyline"
       inkscape:connector-curvature="0"
       inkscape:connection-start="#rect234-36-5"
       inkscape:connection-end="#rect234-36-7" />
    <path
       style="fill:none;fill-rule:evenodd;stroke:#000000;stroke-width:0.365;stroke-linecap:butt;stroke-linejoin:miter;stroke-dasharray:none;stroke-opacity:1;marker-end:url(#TriangleStart)"
       d="M 51.742737,77.888391 H 92.675499"
       id="path677"
       inkscape:connector-type="polyline"
       inkscape:connector-curvature="0"
       inkscape:connection-end="#rect234-36-5-3"
       inkscape:connection-start="#rect234-36-5" />
    <g
       aria-label="0"
       id="text1759"
       style="font-size:17.6389px;line-height:1.25;font-family:'Tlwg Typewriter';-inkscape-font-specification:'Tlwg Typewriter';letter-spacing:0px;word-spacing:0px;stroke-width:0.264583">
      <path
         d="m 105.43492,29.83086 v 1.76389 q 0,2.08139 -0.91722,3.386669 -0.91722,1.305278 -2.38125,1.305278 -1.46403,0 -2.381251,-1.305278 -0.917223,-1.305279 -0.917223,-3.386669 v -1.76389 q 0,-2.09903 0.917223,-3.404308 0.917221,-1.305279 2.381251,-1.305279 1.46403,0 2.38125,1.305279 0.91722,1.305278 0.91722,3.404308 z m -5.873749,0.08819 v 1.569862 q 0,1.834446 0.846669,3.139725 0.59972,0.934861 1.72861,0.934861 1.12889,0 1.72861,-0.934861 0.84667,-1.305279 0.84667,-3.139725 V 29.91905 q 0,-1.834446 -0.84667,-3.139724 -0.59972,-0.934862 -1.72861,-0.934862 -1.12889,0 -1.72861,0.934862 -0.846669,1.305278 -0.846669,3.139724 z"
         id="path682" />
    </g>
    <g
       aria-label="p(0|0)"
       id="text1828"
       style="font-size:6.35px;line-height:1.25;font-family:'Tlwg Typewriter';-inkscape-font-specification:'Tlwg Typewriter';letter-spacing:0px;word-spacing:0px;stroke-width:0.264583">
      <path
         d="m 64.319644,24.016378 q -0.4699,0 -0.8001,0.33655 -0.3302,0.33655 -0.3302,0.81915 0,0.4826 0.3302,0.8255 0.3302,0.33655 0.8001,0.33655 0.46355,0 0.79375,-0.33655 0.33655,-0.33655 0.33655,-0.80645 0,-0.4953 -0.3302,-0.83185 -0.32385,-0.3429 -0.8001,-0.3429 z m -1.1303,1.9177 v 1.47955 h 0.6223 q 0.17145,0 0.17145,0.127 0,0.13335 -0.17145,0.13335 h -1.22555 q -0.17145,0 -0.17145,-0.13335 0,-0.127 0.17145,-0.127 h 0.3429 v -3.30835 h -0.3429 q -0.17145,0 -0.17145,-0.13335 0,-0.127 0.17145,-0.127 h 0.60325 v 0.56515 q 0.4572,-0.65405 1.143,-0.65405 0.57785,0 0.9779,0.4064 0.40005,0.4064 0.40005,0.99695 0,0.5969 -0.4064,1.016 -0.40005,0.4191 -0.97155,0.4191 -0.69215,0 -1.143,-0.6604 z"
         id="path685" />
      <path
         d="m 68.866234,22.657478 q 0.0508,0 0.0889,0.0381 0.0381,0.0381 0.0381,0.0889 0,0.0254 -0.01905,0.06985 -0.635,1.12395 -0.635,2.11455 0,0.97155 0.635,2.11455 0.01905,0.04445 0.01905,0.06985 0,0.0508 -0.04445,0.0889 -0.0381,0.0381 -0.0889,0.0381 -0.08255,0 -0.2667,-0.29845 -0.64135,-1.0668 -0.64135,-2.032 0,-0.99695 0.6985,-2.07645 0.13335,-0.2159 0.2159,-0.2159 z"
         id="path687" />
      <path
         d="m 72.987375,24.264028 v 0.635 q 0,0.7493 -0.3302,1.2192 -0.3302,0.4699 -0.85725,0.4699 -0.52705,0 -0.85725,-0.4699 -0.3302,-0.4699 -0.3302,-1.2192 v -0.635 q 0,-0.75565 0.3302,-1.22555 0.3302,-0.4699 0.85725,-0.4699 0.52705,0 0.85725,0.4699 0.3302,0.4699 0.3302,1.22555 z m -2.11455,0.03175 v 0.56515 q 0,0.6604 0.3048,1.1303 0.2159,0.33655 0.6223,0.33655 0.4064,0 0.6223,-0.33655 0.3048,-0.4699 0.3048,-1.1303 v -0.56515 q 0,-0.6604 -0.3048,-1.1303 -0.2159,-0.33655 -0.6223,-0.33655 -0.4064,0 -0.6223,0.33655 -0.3048,0.4699 -0.3048,1.1303 z"
         id="path689" />
      <path
         d="m 75.736915,22.828928 v 4.2799 q 0,0.17145 -0.127,0.17145 -0.127,0 -0.127,-0.17145 v -4.2799 q 0,-0.17145 0.127,-0.17145 0.127,0 0.127,0.17145 z"
         id="path691" />
      <path
         d="m 80.607355,24.264028 v 0.635 q 0,0.7493 -0.3302,1.2192 -0.3302,0.4699 -0.85725,0.4699 -0.52705,0 -0.85725,-0.4699 -0.3302,-0.4699 -0.3302,-1.2192 v -0.635 q 0,-0.75565 0.3302,-1.22555 0.3302,-0.4699 0.85725,-0.4699 0.52705,0 0.85725,0.4699 0.3302,0.4699 0.3302,1.22555 z m -2.11455,0.03175 v 0.56515 q 0,0.6604 0.3048,1.1303 0.2159,0.33655 0.6223,0.33655 0.4064,0 0.6223,-0.33655 0.3048,-0.4699 0.3048,-1.1303 v -0.56515 q 0,-0.6604 -0.3048,-1.1303 -0.2159,-0.33655 -0.6223,-0.33655 -0.4064,0 -0.6223,0.33655 -0.3048,0.4699 -0.3048,1.1303 z"
         id="path693" />
      <path
         d="m 82.391696,22.657478 q 0.0889,0 0.2667,0.29845 0.64135,1.0541 0.64135,2.032 0,0.99695 -0.6985,2.07645 -0.13335,0.2159 -0.2159,0.2159 -0.0508,0 -0.0889,-0.0381 -0.0381,-0.0381 -0.0381,-0.0889 0,-0.0254 0.01905,-0.06985 0.635,-1.12395 0.635,-2.11455 0,-0.9779 -0.635,-2.11455 -0.01905,-0.0508 -0.01905,-0.06985 0,-0.0508 0.0381,-0.0889 0.04445,-0.0381 0.09525,-0.0381 z"
         id="path695" />
    </g>
    <g
       aria-label="p(1|1)"
       id="text1828-0"
       style="font-size:6.35px;line-height:1.25;font-family:'Tlwg Typewriter';-inkscape-font-specification:'Tlwg Typewriter';letter-spacing:0px;word-spacing:0px;stroke-width:0.264583">
      <path
         d="m 64.319644,82.366212 q -0.4699,0 -0.8001,0.33655 -0.3302,0.33655 -0.3302,0.81915 0,0.4826 0.3302,0.8255 0.3302,0.33655 0.8001,0.33655 0.46355,0 0.79375,-0.33655 0.33655,-0.33655 0.33655,-0.80645 0,-0.4953 -0.3302,-0.83185 -0.32385,-0.3429 -0.8001,-0.3429 z m -1.1303,1.9177 v 1.47955 h 0.6223 q 0.17145,0 0.17145,0.127 0,0.13335 -0.17145,0.13335 h -1.22555 q -0.17145,0 -0.17145,-0.13335 0,-0.127 0.17145,-0.127 h 0.3429 v -3.30835 h -0.3429 q -0.17145,0 -0.17145,-0.13335 0,-0.127 0.17145,-0.127 h 0.60325 v 0.56515 q 0.4572,-0.65405 1.143,-0.65405 0.57785,0 0.9779,0.4064 0.40005,0.4064 0.40005,0.99695 0,0.5969 -0.4064,1.016 -0.40005,0.4191 -0.97155,0.4191 -0.69215,0 -1.143,-0.6604 z"
         id="path698" />
      <path
         d="m 68.866234,81.007312 q 0.0508,0 0.0889,0.0381 0.0381,0.0381 0.0381,0.0889 0,0.0254 -0.01905,0.06985 -0.635,1.12395 -0.635,2.11455 0,0.97155 0.635,2.11455 0.01905,0.04445 0.01905,0.06985 0,0.0508 -0.04445,0.0889 -0.0381,0.0381 -0.0889,0.0381 -0.08255,0 -0.2667,-0.29845 -0.64135,-1.0668 -0.64135,-2.032 0,-0.99695 0.6985,-2.07645 0.13335,-0.2159 0.2159,-0.2159 z"
         id="path700" />
      <path
         d="m 71.933275,80.956512 v 3.62585 h 0.88265 q 0.17145,0 0.17145,0.127 0,0.13335 -0.17145,0.13335 h -2.02565 q -0.1778,0 -0.1778,-0.13335 0,-0.127 0.1778,-0.127 h 0.88265 v -3.2766 l -0.8382,0.2667 q -0.0762,0.01905 -0.0889,0.01905 -0.04445,0 -0.08255,-0.0381 -0.0381,-0.04445 -0.0381,-0.0889 0,-0.09525 0.13335,-0.1397 z"
         id="path702" />
      <path
         d="m 75.736915,81.178762 v 4.2799 q 0,0.17145 -0.127,0.17145 -0.127,0 -0.127,-0.17145 v -4.2799 q 0,-0.17145 0.127,-0.17145 0.127,0 0.127,0.17145 z"
         id="path704" />
      <path
         d="m 79.553255,80.956512 v 3.62585 h 0.88265 q 0.17145,0 0.17145,0.127 0,0.13335 -0.17145,0.13335 h -2.02565 q -0.1778,0 -0.1778,-0.13335 0,-0.127 0.1778,-0.127 h 0.88265 v -3.2766 l -0.8382,0.2667 q -0.0762,0.01905 -0.0889,0.01905 -0.04445,0 -0.08255,-0.0381 -0.0381,-0.04445 -0.0381,-0.0889 0,-0.09525 0.13335,-0.1397 z"
         id="path706" />
      <path
         d="m 82.391696,81.007312 q 0.0889,0 0.2667,0.29845 0.64135,1.0541 0.64135,2.032 0,0.99695 -0.6985,2.07645 -0.13335,0.2159 -0.2159,0.2159 -0.0508,0 -0.0889,-0.0381 -0.0381,-0.0381 -0.0381,-0.0889 0,-0.0254 0.01905,-0.06985 0.635,-1.12395 0.635,-2.11455 0,-0.9779 -0.635,-2.11455 -0.01905,-0.0508 -0.01905,-0.06985 0,-0.0508 0.0381,-0.0889 0.04445,-0.0381 0.09525,-0.0381 z"
         id="path708" />
    </g>
    <g
       aria-label="p(1|0)"
       id="text1828-0-2"
       style="font-size:6.35px;line-height:1.25;font-family:'Tlwg Typewriter';-inkscape-font-specification:'Tlwg Typewriter';letter-spacing:0px;word-spacing:0px;stroke-width:0.264583">
      <path
         d="m 93.598892,61.734377 q -0.4699,0 -0.8001,0.336549 -0.3302,0.33655 -0.3302,0.81915 0,0.4826 0.3302,0.8255 0.3302,0.33655 0.8001,0.33655 0.46355,0 0.79375,-0.33655 0.33655,-0.33655 0.33655,-0.80645 0,-0.4953 -0.3302,-0.83185 -0.32385,-0.342899 -0.8001,-0.342899 z m -1.1303,1.917699 v 1.47955 h 0.6223 q 0.17145,0 0.17145,0.127 0,0.13335 -0.17145,0.13335 h -1.22555 q -0.17145,0 -0.17145,-0.13335 0,-0.127 0.17145,-0.127 h 0.3429 v -3.308349 h -0.3429 q -0.17145,0 -0.17145,-0.13335 0,-0.127 0.17145,-0.127 h 0.60325 v 0.565149 q 0.4572,-0.654049 1.143,-0.654049 0.57785,0 0.9779,0.406399 0.40005,0.4064 0.40005,0.99695 0,0.5969 -0.4064,1.016 -0.40005,0.4191 -0.97155,0.4191 -0.69215,0 -1.143,-0.6604 z"
         id="path711" />
      <path
         d="m 98.145482,60.375477 q 0.0508,0 0.0889,0.0381 0.0381,0.0381 0.0381,0.0889 0,0.0254 -0.01905,0.06985 -0.635,1.12395 -0.635,2.114549 0,0.97155 0.635,2.11455 0.01905,0.04445 0.01905,0.06985 0,0.0508 -0.04445,0.0889 -0.0381,0.0381 -0.0889,0.0381 -0.08255,0 -0.2667,-0.29845 -0.64135,-1.0668 -0.64135,-2.032 0,-0.996949 0.6985,-2.076449 0.13335,-0.2159 0.2159,-0.2159 z"
         id="path713" />
      <path
         d="m 101.21252,60.324677 v 3.625849 h 0.88265 q 0.17145,0 0.17145,0.127 0,0.13335 -0.17145,0.13335 h -2.02565 q -0.177798,0 -0.177798,-0.13335 0,-0.127 0.177798,-0.127 h 0.88265 v -3.276599 l -0.8382,0.2667 q -0.0762,0.01905 -0.0889,0.01905 -0.04445,0 -0.08255,-0.0381 -0.0381,-0.04445 -0.0381,-0.0889 0,-0.09525 0.13335,-0.1397 z"
         id="path715" />
      <path
         d="m 105.01616,60.546927 v 4.279899 q 0,0.17145 -0.127,0.17145 -0.127,0 -0.127,-0.17145 v -4.279899 q 0,-0.17145 0.127,-0.17145 0.127,0 0.127,0.17145 z"
         id="path717" />
      <path
         d="m 109.8866,61.982026 v 0.635 q 0,0.7493 -0.3302,1.2192 -0.3302,0.4699 -0.85725,0.4699 -0.52705,0 -0.85725,-0.4699 -0.3302,-0.4699 -0.3302,-1.2192 v -0.635 q 0,-0.755649 0.3302,-1.225549 0.3302,-0.4699 0.85725,-0.4699 0.52705,0 0.85725,0.4699 0.3302,0.4699 0.3302,1.225549 z m -2.11455,0.03175 v 0.56515 q 0,0.6604 0.3048,1.1303 0.2159,0.33655 0.6223,0.33655 0.4064,0 0.6223,-0.33655 0.3048,-0.4699 0.3048,-1.1303 v -0.56515 q 0,-0.660399 -0.3048,-1.130299 -0.2159,-0.33655 -0.6223,-0.33655 -0.4064,0 -0.6223,0.33655 -0.3048,0.4699 -0.3048,1.130299 z"
         id="path719" />
      <path
         d="m 111.67094,60.375477 q 0.0889,0 0.2667,0.29845 0.64135,1.0541 0.64135,2.031999 0,0.99695 -0.6985,2.07645 -0.13335,0.2159 -0.2159,0.2159 -0.0508,0 -0.0889,-0.0381 -0.0381,-0.0381 -0.0381,-0.0889 0,-0.0254 0.0191,-0.06985 0.635,-1.12395 0.635,-2.11455 0,-0.977899 -0.635,-2.114549 -0.0191,-0.0508 -0.0191,-0.06985 0,-0.0508 0.0381,-0.0889 0.0445,-0.0381 0.0953,-0.0381 z"
         id="path721" />
    </g>
    <g
       aria-label="p(0|1)"
       id="text1828-0-2-1"
       style="font-size:6.35px;line-height:1.25;font-family:'Tlwg Typewriter';-inkscape-font-specification:'Tlwg Typewriter';letter-spacing:0px;word-spacing:0px;stroke-width:0.264583">
      <path
         d="m 93.598892,44.952062 q -0.4699,0 -0.8001,0.33655 -0.3302,0.33655 -0.3302,0.81915 0,0.4826 0.3302,0.8255 0.3302,0.33655 0.8001,0.33655 0.46355,0 0.79375,-0.33655 0.33655,-0.33655 0.33655,-0.80645 0,-0.4953 -0.3302,-0.83185 -0.32385,-0.3429 -0.8001,-0.3429 z m -1.1303,1.9177 v 1.47955 h 0.6223 q 0.17145,0 0.17145,0.127 0,0.13335 -0.17145,0.13335 h -1.22555 q -0.17145,0 -0.17145,-0.13335 0,-0.127 0.17145,-0.127 h 0.3429 v -3.30835 h -0.3429 q -0.17145,0 -0.17145,-0.13335 0,-0.127 0.17145,-0.127 h 0.60325 v 0.56515 q 0.4572,-0.65405 1.143,-0.65405 0.57785,0 0.9779,0.4064 0.40005,0.4064 0.40005,0.99695 0,0.5969 -0.4064,1.016 -0.40005,0.4191 -0.97155,0.4191 -0.69215,0 -1.143,-0.6604 z"
         id="path724" />
      <path
         d="m 98.145482,43.593162 q 0.0508,0 0.0889,0.0381 0.0381,0.0381 0.0381,0.0889 0,0.0254 -0.01905,0.06985 -0.635,1.12395 -0.635,2.11455 0,0.97155 0.635,2.11455 0.01905,0.04445 0.01905,0.06985 0,0.0508 -0.04445,0.0889 -0.0381,0.0381 -0.0889,0.0381 -0.08255,0 -0.2667,-0.29845 -0.64135,-1.0668 -0.64135,-2.032 0,-0.99695 0.6985,-2.07645 0.13335,-0.2159 0.2159,-0.2159 z"
         id="path726" />
      <path
         d="m 102.26662,45.199712 v 0.635 q 0,0.7493 -0.3302,1.2192 -0.3302,0.4699 -0.85725,0.4699 -0.52705,0 -0.85725,-0.4699 -0.330198,-0.4699 -0.330198,-1.2192 v -0.635 q 0,-0.75565 0.330198,-1.22555 0.3302,-0.4699 0.85725,-0.4699 0.52705,0 0.85725,0.4699 0.3302,0.4699 0.3302,1.22555 z m -2.11455,0.03175 v 0.56515 q 0,0.6604 0.3048,1.1303 0.2159,0.33655 0.6223,0.33655 0.4064,0 0.6223,-0.33655 0.3048,-0.4699 0.3048,-1.1303 v -0.56515 q 0,-0.6604 -0.3048,-1.1303 -0.2159,-0.33655 -0.6223,-0.33655 -0.4064,0 -0.6223,0.33655 -0.3048,0.4699 -0.3048,1.1303 z"
         id="path728" />
      <path
         d="m 105.01616,43.764612 v 4.2799 q 0,0.17145 -0.127,0.17145 -0.127,0 -0.127,-0.17145 v -4.2799 q 0,-0.17145 0.127,-0.17145 0.127,0 0.127,0.17145 z"
         id="path730" />
      <path
         d="m 108.8325,43.542362 v 3.62585 h 0.88265 q 0.17145,0 0.17145,0.127 0,0.13335 -0.17145,0.13335 h -2.02565 q -0.1778,0 -0.1778,-0.13335 0,-0.127 0.1778,-0.127 h 0.88265 v -3.2766 l -0.8382,0.2667 q -0.0762,0.01905 -0.0889,0.01905 -0.0444,0 -0.0825,-0.0381 -0.0381,-0.04445 -0.0381,-0.0889 0,-0.09525 0.13335,-0.1397 z"
         id="path732" />
      <path
         d="m 111.67094,43.593162 q 0.0889,0 0.2667,0.29845 0.64135,1.0541 0.64135,2.032 0,0.99695 -0.6985,2.07645 -0.13335,0.2159 -0.2159,0.2159 -0.0508,0 -0.0889,-0.0381 -0.0381,-0.0381 -0.0381,-0.0889 0,-0.0254 0.0191,-0.06985 0.635,-1.12395 0.635,-2.11455 0,-0.9779 -0.635,-2.11455 -0.0191,-0.0508 -0.0191,-0.06985 0,-0.0508 0.0381,-0.0889 0.0445,-0.0381 0.0953,-0.0381 z"
         id="path734" />
    </g>
  </g>
</svg>
