<?xml version="1.0" encoding="UTF-8" standalone="no"?>
<!-- Created with Inkscape (http://www.inkscape.org/) -->

<svg
   width="84.284622mm"
   height="52.164486mm"
   viewBox="0 0 84.284622 52.164486"
   version="1.1"
   id="svg1"
   xmlns:inkscape="http://www.inkscape.org/namespaces/inkscape"
   xmlns:sodipodi="http://sodipodi.sourceforge.net/DTD/sodipodi-0.dtd"
   xmlns="http://www.w3.org/2000/svg"
   xmlns:svg="http://www.w3.org/2000/svg">
  <sodipodi:namedview
     id="namedview1"
     pagecolor="#ffffff"
     bordercolor="#666666"
     borderopacity="1.0"
     inkscape:showpageshadow="2"
     inkscape:pageopacity="0.0"
     inkscape:pagecheckerboard="0"
     inkscape:deskcolor="#d1d1d1"
     inkscape:document-units="mm" />
  <defs
     id="defs1">
    <marker
       style="overflow:visible"
       id="marker8"
       refX="0"
       refY="0"
       orient="auto"
       inkscape:stockid="Dot"
       markerWidth="1"
       markerHeight="1"
       viewBox="0 0 1 1"
       inkscape:isstock="true"
       inkscape:collect="always"
       preserveAspectRatio="xMidYMid">
      <path
         transform="scale(0.5)"
         style="fill:context-stroke;fill-rule:evenodd;stroke:none"
         d="M 5,0 C 5,2.76 2.76,5 0,5 -2.76,5 -5,2.76 -5,0 c 0,-2.76 2.3,-5 5,-5 2.76,0 5,2.24 5,5 z"
         sodipodi:nodetypes="sssss"
         id="path8" />
    </marker>
    <marker
       style="overflow:visible"
       id="Dot"
       refX="0"
       refY="0"
       orient="auto"
       inkscape:stockid="Dot"
       markerWidth="1"
       markerHeight="1"
       viewBox="0 0 1 1"
       inkscape:isstock="true"
       inkscape:collect="always"
       preserveAspectRatio="xMidYMid">
      <path
         transform="scale(0.5)"
         style="fill:context-stroke;fill-rule:evenodd;stroke:none"
         d="M 5,0 C 5,2.76 2.76,5 0,5 -2.76,5 -5,2.76 -5,0 c 0,-2.76 2.3,-5 5,-5 2.76,0 5,2.24 5,5 z"
         sodipodi:nodetypes="sssss"
         id="path17" />
    </marker>
  </defs>
  <g
     inkscape:groupmode="layer"
     id="layer2"
     inkscape:label="Layer 2"
     transform="translate(-6.2847716,-53.455637)">
    <path
       id="rect3"
       style="fill:#ebebeb;stroke:#000000;stroke-width:0.193;stroke-linejoin:round;stroke-miterlimit:4.5"
       d="M 6.3812718,53.552135 H 90.472901 V 105.52362 H 6.3812718 Z" />
  </g>
  <g
     inkscape:label="Layer 1"
     inkscape:groupmode="layer"
     id="layer1"
     transform="translate(-6.2847716,-53.455637)">
    <path
       style="fill:#fff7b9;fill-opacity:1;stroke:#000000;stroke-width:0.264583px;stroke-linecap:butt;stroke-linejoin:miter;stroke-opacity:1"
       d="m 23.279294,70.865189 c 3.207834,-0.767027 7.228242,-4.367536 11.696937,-3.853643 4.468696,0.513893 9.38548,5.142003 11.688211,11.050178 2.30273,5.908175 1.99132,13.096031 -0.836579,16.118984 -2.827899,3.022953 -8.17207,1.880904 -13.335204,2.066666 -5.163135,0.185762 -10.14493,1.699297 -12.746357,-0.224637 -2.601426,-1.923935 -2.822376,-7.285155 -3.811593,-11.479391 -0.989217,-4.194236 -2.746625,-7.22126 -2.983617,-9.867443 -0.236992,-2.646182 1.046419,-4.91137 2.885789,-5.010736 1.83937,-0.09937 4.23458,1.967049 7.442413,1.200022 z"
       id="path2" />
    <path
       style="fill:#fff7b9;fill-opacity:1;stroke:#000000;stroke-width:0.264583px;stroke-linecap:butt;stroke-linejoin:miter;stroke-opacity:1"
       d="m 74.035714,75.428662 c 4.590395,-1.084495 12.02598,-5.500503 11.193856,-8.573027 -0.832123,-3.072525 -9.931588,-4.801498 -16.11068,-3.786509 -6.179091,1.01499 -9.437498,4.773829 -10.210811,9.133496 -0.773312,4.359666 0.938465,9.319889 2.527143,9.389383 1.588679,0.06949 3.054168,-4.751648 4.659547,-6.038735 1.605379,-1.287087 3.350551,0.959886 7.940945,-0.124608 z"
       id="path3" />
  </g>
  <g
     inkscape:groupmode="layer"
     id="layer3"
     inkscape:label="Layer 3"
     transform="translate(-6.2847716,-53.455637)">
    <path
       d="m 31.257032,83.076272 v 0.977899 h 1.329266 v -0.503766 q 0,-0.1143 0.0889,-0.1143 0.08467,0 0.08467,0.1143 v 0.677332 H 30.85487 q -0.1143,0 -0.1143,-0.0889 0,-0.08467 0.1143,-0.08467 h 0.2286 v -2.036232 h -0.2286 q -0.1143,0 -0.1143,-0.0889 0,-0.08467 0.1143,-0.08467 h 1.816098 v 0.588433 q 0,0.1143 -0.0889,0.1143 -0.08467,0 -0.08467,-0.1143 v -0.414867 h -1.240366 v 0.884766 h 0.613833 v -0.1905 q 0,-0.1143 0.0889,-0.1143 0.08467,0 0.08467,0.1143 v 0.554567 q 0,0.114299 -0.08467,0.114299 -0.0889,0 -0.0889,-0.114299 v -0.1905 z m 3.200391,-1.439332 v 2.417231 h 0.588433 q 0.1143,0 0.1143,0.08467 0,0.0889 -0.1143,0.0889 h -1.350432 q -0.118534,0 -0.118534,-0.0889 0,-0.08467 0.118534,-0.08467 h 0.588432 v -2.184398 l -0.558799,0.1778 q -0.0508,0.0127 -0.05927,0.0127 -0.02963,0 -0.05503,-0.0254 -0.0254,-0.02963 -0.0254,-0.05927 0,-0.0635 0.0889,-0.09313 z"
       id="text3"
       style="font-size:4.23333px;line-height:1.25;font-family:'Tlwg Typewriter';-inkscape-font-specification:'Tlwg Typewriter';letter-spacing:0px;word-spacing:0px;stroke-width:0.264583"
       aria-label="E1" />
    <path
       d="m 70.415731,69.360619 v 0.977899 h 1.329266 v -0.503766 q 0,-0.1143 0.0889,-0.1143 0.08467,0 0.08467,0.1143 v 0.677333 h -1.904998 q -0.1143,0 -0.1143,-0.0889 0,-0.08467 0.1143,-0.08467 h 0.2286 v -2.036231 h -0.2286 q -0.1143,0 -0.1143,-0.0889 0,-0.08467 0.1143,-0.08467 h 1.816098 v 0.588433 q 0,0.1143 -0.0889,0.1143 -0.08467,0 -0.08467,-0.1143 v -0.414866 h -1.240366 v 0.884766 h 0.613833 v -0.1905 q 0,-0.1143 0.0889,-0.1143 0.08467,0 0.08467,0.1143 v 0.554566 q 0,0.1143 -0.08467,0.1143 -0.0889,0 -0.0889,-0.1143 v -0.1905 z m 3.200391,-1.439332 v 2.417231 h 0.588433 q 0.1143,0 0.1143,0.08467 0,0.0889 -0.1143,0.0889 h -1.350432 q -0.118534,0 -0.118534,-0.0889 0,-0.08467 0.118534,-0.08467 h 0.588432 V 68.15412 l -0.558799,0.1778 q -0.0508,0.0127 -0.05927,0.0127 -0.02963,0 -0.05503,-0.0254 -0.0254,-0.02963 -0.0254,-0.05927 0,-0.0635 0.0889,-0.09313 z"
       id="text4"
       style="font-size:4.23333px;line-height:1.25;font-family:'Tlwg Typewriter';-inkscape-font-specification:'Tlwg Typewriter';letter-spacing:0px;word-spacing:0px;stroke-width:0.264583"
       aria-label="E1" />
    <path
       d="m 49.025026,57.906449 v 0.977899 h 1.329266 v -0.503766 q 0,-0.1143 0.0889,-0.1143 0.08467,0 0.08467,0.1143 v 0.677333 H 48.62286 q -0.1143,0 -0.1143,-0.0889 0,-0.08467 0.1143,-0.08467 h 0.2286 v -2.036231 h -0.2286 q -0.1143,0 -0.1143,-0.0889 0,-0.08467 0.1143,-0.08467 h 1.816098 v 0.588433 q 0,0.1143 -0.0889,0.1143 -0.08467,0 -0.08467,-0.1143 v -0.414866 h -1.240366 v 0.884766 h 0.613833 v -0.1905 q 0,-0.1143 0.0889,-0.1143 0.08467,0 0.08467,0.1143 v 0.554566 q 0,0.1143 -0.08467,0.1143 -0.0889,0 -0.0889,-0.1143 v -0.1905 z m 2.362192,0.977899 h 1.329265 v -0.1524 q 0,-0.1143 0.0889,-0.1143 0.08467,0 0.08467,0.1143 v 0.325967 h -1.667932 v -0.254 l 0.999066,-0.939799 q 0.296333,-0.2921 0.385233,-0.423333 0.09313,-0.131233 0.09313,-0.275167 0,-0.220133 -0.182033,-0.385233 -0.182034,-0.1651 -0.423333,-0.1651 -0.2159,0 -0.3937,0.127 -0.173567,0.127 -0.224366,0.3175 -0.0254,0.08467 -0.0889,0.08467 -0.02963,0 -0.05503,-0.02117 -0.0254,-0.0254 -0.0254,-0.05503 0,-0.135467 0.135467,-0.3048 0.249766,-0.321733 0.651933,-0.321733 0.309033,0 0.541866,0.220133 0.237066,0.220133 0.237066,0.508 0,0.186266 -0.110066,0.342899 -0.105833,0.156634 -0.499533,0.541867 -0.541866,0.533399 -0.876299,0.817032 z"
       id="text5"
       style="font-size:4.23333px;line-height:1.25;font-family:'Tlwg Typewriter';-inkscape-font-specification:'Tlwg Typewriter';letter-spacing:0px;word-spacing:0px;stroke-width:0.264583"
       aria-label="E2" />
    <path
       style="fill:none;stroke:#000000;stroke-width:0.264583px;stroke-linecap:butt;stroke-linejoin:miter;stroke-dasharray:1.5875, 0.264583;stroke-dashoffset:0;stroke-opacity:1;marker-start:url(#marker8);marker-end:url(#Dot)"
       d="m 40.173243,86.496656 c 4.923435,1.329427 9.846873,2.658854 13.559833,0.859723 3.71296,-1.799131 6.215342,-6.726625 8.717774,-11.654217"
       id="path5" />
    <path
       d="m 53.686843,90.175981 c 0,-0.08957 0.01895,-0.186035 0.05512,-0.28422 0.09819,-0.26355 0.335896,-0.504707 0.664903,-0.504707 0.06718,0 0.139526,0.01034 0.215318,0.03273 0.01206,0.0034 0.02412,0.0052 0.03445,0.0052 0.06373,0 0.105076,-0.06029 0.105076,-0.117134 0,-0.04306 -0.02239,-0.08613 -0.07579,-0.10163 -0.101631,-0.03101 -0.198093,-0.04651 -0.292833,-0.04651 -0.430637,0 -0.733806,0.320394 -0.861274,0.656291 -0.04479,0.120578 -0.0689,0.239434 -0.0689,0.354845 0,0.08613 0.01378,0.170532 0.0379,0.253214 0.07751,0.260105 0.308336,0.444418 0.659736,0.444418 0.156751,0 0.339342,-0.0379 0.544325,-0.111966 0.03962,-0.01378 0.07579,-0.05512 0.07579,-0.108521 0,-0.06029 -0.0534,-0.10852 -0.111966,-0.10852 -0.01378,0 -0.02584,0.0017 -0.03962,0.0069 -0.179145,0.06546 -0.334175,0.09646 -0.466811,0.09646 -0.304891,0 -0.475423,-0.184313 -0.475423,-0.466811 z m 2.037774,-1.117933 c -0.01378,-0.0052 -0.02756,-0.0069 -0.04134,-0.0052 -0.203261,0.0086 -0.384128,0.08613 -0.544325,0.232544 -0.160197,0.146417 -0.254937,0.332452 -0.287666,0.561551 -0.0069,0.04823 -0.01033,0.09474 -0.01033,0.139526 0,0.1757 0.04995,0.337619 0.146417,0.487481 0.144694,0.220486 0.37896,0.387573 0.718302,0.387573 0.18259,0 0.356567,-0.05512 0.492649,-0.142971 0.211873,-0.136081 0.382405,-0.396186 0.382405,-0.711412 0,-0.211874 -0.05512,-0.384128 -0.153307,-0.525377 -0.18259,-0.265273 -0.416856,-0.406522 -0.702799,-0.423747 z m 0.630452,0.937066 c 0,0.125746 -0.03273,0.253214 -0.09991,0.35829 -0.09991,0.158474 -0.308336,0.285943 -0.544325,0.285943 -0.08096,0 -0.163642,-0.01378 -0.248047,-0.04823 -0.201538,-0.08096 -0.399631,-0.306613 -0.399631,-0.601169 0,-0.385851 0.268717,-0.692464 0.621839,-0.713135 0.0086,0.0034 0.01895,0.0052 0.02756,0.0052 0.323839,0.02067 0.64251,0.313504 0.64251,0.713135 z m 0.683852,-0.925008 c -0.05684,0 -0.115411,0.04306 -0.115411,0.110243 0,0.02928 0.0155,0.05857 0.04134,0.09129 0.02928,0.03617 0.06201,0.118856 0.09818,0.251492 0.03617,0.132636 0.05684,0.330729 0.06201,0.594279 -0.02239,0.142971 -0.03445,0.298 -0.03445,0.46681 0,0.04995 0.0017,0.09991 0.0034,0.151584 0.0034,0.0689 0.05857,0.103353 0.113688,0.103353 0.05168,0 0.101631,-0.03101 0.108521,-0.09474 l 0.0069,-0.06718 c 0.01723,-0.167087 0.02584,-0.334175 0.02584,-0.499539 0,-0.0155 0,-0.02928 0,-0.04479 0.06374,-0.366903 0.24977,-0.766534 0.590834,-0.816488 0.02756,-0.0034 0.05512,-0.0052 0.08096,-0.0052 0.292833,0 0.490926,0.235989 0.546048,0.499539 0.01206,0.06201 0.01895,0.124024 0.01895,0.187758 0,0.215318 -0.07062,0.444417 -0.213596,0.694187 -0.04995,0.0844 0.02756,0.165364 0.09991,0.165364 0.03617,0 0.07407,-0.01722 0.09474,-0.0534 0.161919,-0.282498 0.242879,-0.551215 0.242879,-0.80443 0,-0.08096 -0.0086,-0.158474 -0.02412,-0.235989 -0.07407,-0.358289 -0.347955,-0.678683 -0.763089,-0.678683 -0.0379,0 -0.07579,0.0034 -0.11541,0.0086 -0.24977,0.03617 -0.449585,0.196371 -0.604614,0.477146 -0.0379,-0.208428 -0.09819,-0.361735 -0.180868,-0.461643 -0.02239,-0.02756 -0.0534,-0.03962 -0.08268,-0.03962 z m 2.230699,0 c -0.05684,0 -0.115411,0.04306 -0.115411,0.110243 0,0.02928 0.0155,0.05857 0.04134,0.09129 0.02928,0.03617 0.06201,0.118856 0.09819,0.251492 0.03617,0.132636 0.05684,0.330729 0.06201,0.594279 -0.02239,0.142971 -0.03445,0.298 -0.03445,0.46681 0,0.04995 0.0017,0.09991 0.0034,0.151584 0.0034,0.0689 0.05857,0.103353 0.113688,0.103353 0.05168,0 0.10163,-0.03101 0.10852,-0.09474 l 0.0069,-0.06718 c 0.01723,-0.167087 0.02584,-0.334175 0.02584,-0.499539 0,-0.0155 0,-0.02928 0,-0.04479 0.06373,-0.366903 0.249769,-0.766534 0.590833,-0.816488 0.02756,-0.0034 0.05512,-0.0052 0.08096,-0.0052 0.292833,0 0.490926,0.235989 0.546048,0.499539 0.01206,0.06201 0.01895,0.124024 0.01895,0.187758 0,0.215318 -0.07062,0.444417 -0.213596,0.694187 -0.04995,0.0844 0.02756,0.165364 0.09991,0.165364 0.03617,0 0.07407,-0.01722 0.09474,-0.0534 0.161919,-0.282498 0.242879,-0.551215 0.242879,-0.80443 0,-0.08096 -0.0086,-0.158474 -0.02412,-0.235989 -0.07407,-0.358289 -0.347954,-0.678683 -0.763088,-0.678683 -0.0379,0 -0.07579,0.0034 -0.115411,0.0086 -0.249769,0.03617 -0.449585,0.196371 -0.604614,0.477146 -0.0379,-0.208428 -0.09819,-0.361735 -0.180868,-0.461643 -0.02239,-0.02756 -0.0534,-0.03962 -0.08268,-0.03962 z m 2.359891,1.19028 c 0.0086,0.0017 0.01895,0.0034 0.02756,0.0034 0.478869,0 0.844049,-0.08613 1.093818,-0.254937 0.179145,-0.122301 0.280775,-0.260104 0.280775,-0.447862 0,-0.05512 -0.01033,-0.106798 -0.03273,-0.156752 -0.08096,-0.179145 -0.28422,-0.280775 -0.535712,-0.280775 -0.329007,0 -0.594279,0.09991 -0.79754,0.303168 -0.156752,0.156752 -0.248047,0.346232 -0.273885,0.563273 -0.0052,0.04306 -0.0069,0.08268 -0.0069,0.122301 0,0.177422 0.04995,0.315226 0.139526,0.440972 0.158475,0.223931 0.389296,0.313504 0.649401,0.313504 0.251492,0 0.528822,-0.0844 0.792372,-0.213596 0.03445,-0.01722 0.06201,-0.05512 0.06201,-0.105075 0,-0.06201 -0.0534,-0.108521 -0.111965,-0.108521 -0.01723,0 -0.03273,0.0034 -0.04995,0.01206 -0.25666,0.127468 -0.484036,0.191203 -0.680406,0.191203 -0.291111,0 -0.490927,-0.142972 -0.556383,-0.382406 z m -0.01895,-0.210151 c 0.03273,-0.432359 0.396186,-0.702799 0.854383,-0.702799 0.113688,0 0.201538,0.02412 0.266995,0.07407 0.04651,0.03617 0.07751,0.06718 0.07751,0.132637 0,0.10852 -0.06373,0.187757 -0.18259,0.268717 -0.213596,0.144694 -0.535713,0.217041 -0.969795,0.217041 -0.0155,0 -0.03101,0.0034 -0.04651,0.01033 z m 1.989542,0.125746 c 0,-0.08957 0.01895,-0.186035 0.05512,-0.28422 0.09819,-0.26355 0.335897,-0.504707 0.664903,-0.504707 0.06718,0 0.139527,0.01034 0.215319,0.03273 0.01206,0.0034 0.02411,0.0052 0.03445,0.0052 0.06373,0 0.105075,-0.06029 0.105075,-0.117134 0,-0.04306 -0.02239,-0.08613 -0.07579,-0.10163 -0.10163,-0.03101 -0.198093,-0.04651 -0.292833,-0.04651 -0.430637,0 -0.733805,0.320394 -0.861274,0.656291 -0.04479,0.120578 -0.0689,0.239434 -0.0689,0.354845 0,0.08613 0.01378,0.170532 0.0379,0.253214 0.07751,0.260105 0.308336,0.444418 0.659736,0.444418 0.156752,0 0.339342,-0.0379 0.544325,-0.111966 0.03962,-0.01378 0.07579,-0.05512 0.07579,-0.108521 0,-0.06029 -0.0534,-0.10852 -0.111965,-0.10852 -0.01378,0 -0.02584,0.0017 -0.03962,0.0069 -0.179145,0.06546 -0.334174,0.09646 -0.46681,0.09646 -0.304891,0 -0.475424,-0.184313 -0.475424,-0.466811 z m 2.337497,0.613227 c 0,-0.04479 -0.02756,-0.08268 -0.06201,-0.10163 -0.02928,-0.0155 -0.05684,-0.06201 -0.08268,-0.137804 -0.05684,-0.168809 -0.0844,-0.45992 -0.0844,-0.876777 0,-0.09129 0,-0.18948 0.0034,-0.292833 0.08957,0 0.177422,0.0017 0.266995,0.0017 h 0.0017 c 0.07063,0 0.106798,-0.05512 0.106798,-0.110243 0,-0.05684 -0.03617,-0.111966 -0.10852,-0.113688 l -0.260105,-0.0017 c 0.0052,-0.106798 0.0155,-0.416856 0.0155,-0.604614 0,-0.03445 -0.0017,-0.06373 -0.0017,-0.08785 -0.0017,-0.07062 -0.05684,-0.105075 -0.111965,-0.105075 -0.05512,0 -0.111966,0.03617 -0.111966,0.106797 0,0.02584 0.0017,0.05512 0.0017,0.0913 0,0.184313 -0.01034,0.496094 -0.0155,0.597725 l -0.346232,-0.0017 c -0.05857,0 -0.111966,0.0534 -0.111966,0.108521 0,0.06029 0.05168,0.11541 0.111966,0.11541 0.113688,0 0.225653,0.0017 0.339341,0.0017 -0.0034,0.113688 -0.0052,0.222208 -0.0052,0.323839 0,0.20326 0.0069,0.382405 0.02067,0.535712 0.03101,0.353122 0.120579,0.570163 0.268718,0.649401 0.01722,0.0086 0.03445,0.01378 0.05168,0.01378 0.06029,0 0.113688,-0.04995 0.113688,-0.111966 z m 0.742418,-0.528822 c 0.0086,0.0017 0.01895,0.0034 0.02756,0.0034 0.478868,0 0.844048,-0.08613 1.093818,-0.254937 0.179145,-0.122301 0.280775,-0.260104 0.280775,-0.447862 0,-0.05512 -0.01033,-0.106798 -0.03273,-0.156752 -0.08096,-0.179145 -0.284221,-0.280775 -0.535713,-0.280775 -0.329006,0 -0.594279,0.09991 -0.797539,0.303168 -0.156752,0.156752 -0.248047,0.346232 -0.273885,0.563273 -0.0052,0.04306 -0.0069,0.08268 -0.0069,0.122301 0,0.177422 0.04995,0.315226 0.139527,0.440972 0.158474,0.223931 0.389295,0.313504 0.6494,0.313504 0.251492,0 0.528822,-0.0844 0.792372,-0.213596 0.03445,-0.01722 0.06201,-0.05512 0.06201,-0.105075 0,-0.06201 -0.0534,-0.108521 -0.111966,-0.108521 -0.01722,0 -0.03273,0.0034 -0.04995,0.01206 -0.256659,0.127468 -0.484036,0.191203 -0.680406,0.191203 -0.291111,0 -0.490926,-0.142972 -0.556383,-0.382406 z m -0.01895,-0.210151 c 0.03273,-0.432359 0.396186,-0.702799 0.854384,-0.702799 0.113688,0 0.201538,0.02412 0.266995,0.07407 0.04651,0.03617 0.07751,0.06718 0.07751,0.132637 0,0.10852 -0.06373,0.187757 -0.18259,0.268717 -0.213596,0.144694 -0.535712,0.217041 -0.969794,0.217041 -0.0155,0 -0.03101,0.0034 -0.04651,0.01033 z m 3.451986,0.06029 c 0,-0.02412 0,-0.04823 0,-0.07062 0,-0.0534 -0.0034,-0.08785 -0.01033,-0.10852 -0.0017,-0.07752 -0.0017,-0.177423 -0.0017,-0.299724 0,-0.19637 0.0017,-0.451307 0.0034,-0.761366 l 0.0034,-0.422024 c 0.0017,-0.07235 -0.05512,-0.110243 -0.111965,-0.110243 -0.05512,0 -0.111966,0.03617 -0.111966,0.10852 l -0.0034,0.420302 c -0.0017,0.239434 -0.0017,0.430637 -0.0017,0.573608 -0.229099,-0.239434 -0.454752,-0.366902 -0.673516,-0.384128 -0.02067,-0.0017 -0.04306,-0.0017 -0.06373,-0.0017 -0.18948,0 -0.347955,0.07062 -0.470256,0.220486 -0.149861,0.179145 -0.242879,0.435804 -0.242879,0.694187 0,0.509874 0.3514,0.866441 0.852661,0.866441 0.248047,0 0.451308,-0.127468 0.611505,-0.37896 0.0034,0.09991 0.0086,0.180867 0.01378,0.239434 0.0052,0.06201 0.04823,0.118856 0.108521,0.118856 0.0913,0 0.1223,-0.07407 0.1223,-0.165365 0,-0.151584 -0.02412,-0.368625 -0.02412,-0.539157 z m -0.830268,0.501261 c -0.387573,0 -0.62873,-0.265272 -0.62873,-0.652846 0,-0.337619 0.191203,-0.682129 0.496094,-0.682129 0.01033,0 0.02067,0.0017 0.03101,0.0017 0.217041,0.01895 0.447862,0.187758 0.697631,0.508152 v 0.156751 c -0.0086,0.02239 -0.02067,0.05684 -0.0379,0.105076 -0.136081,0.375515 -0.320394,0.563273 -0.558105,0.563273 z"
       id="text6"
       style="font-size:3.52778px;line-height:1.25;font-family:Chilanka;-inkscape-font-specification:Chilanka;letter-spacing:0px;word-spacing:0px;stroke-width:0.264583"
       aria-label="connected" />
    <path
       d="m 30.937587,63.44673 c -0.05684,0 -0.115411,0.04306 -0.115411,0.110243 0,0.02928 0.0155,0.05857 0.04134,0.0913 0.02928,0.03617 0.06201,0.118856 0.09819,0.251492 0.03617,0.132636 0.05684,0.330729 0.06201,0.594279 -0.02239,0.142972 -0.03445,0.298001 -0.03445,0.466811 0,0.04995 0.0017,0.09991 0.0034,0.151584 0.0034,0.0689 0.05857,0.103353 0.113688,0.103353 0.05168,0 0.10163,-0.03101 0.10852,-0.09474 l 0.0069,-0.06718 c 0.01722,-0.167088 0.02584,-0.334175 0.02584,-0.49954 0,-0.0155 0,-0.02928 0,-0.04479 0.06373,-0.366903 0.249769,-0.766534 0.590834,-0.816488 0.02756,-0.0034 0.05512,-0.0052 0.08096,-0.0052 0.292833,0 0.490926,0.23599 0.546048,0.49954 0.01206,0.06201 0.01895,0.124023 0.01895,0.187757 0,0.215319 -0.07062,0.444418 -0.213596,0.694188 -0.04995,0.0844 0.02756,0.165364 0.09991,0.165364 0.03617,0 0.07407,-0.01722 0.09474,-0.0534 0.16192,-0.282498 0.242879,-0.551215 0.242879,-0.80443 0,-0.08096 -0.0086,-0.158475 -0.02412,-0.235989 -0.07407,-0.35829 -0.347955,-0.678684 -0.76309,-0.678684 -0.0379,0 -0.07579,0.0034 -0.11541,0.0086 -0.24977,0.03617 -0.449586,0.196371 -0.604615,0.477146 -0.0379,-0.208428 -0.09819,-0.361735 -0.180868,-0.461643 -0.02239,-0.02756 -0.0534,-0.03962 -0.08268,-0.03962 z m 2.998958,-0.01206 c -0.01378,-0.0052 -0.02756,-0.0069 -0.04134,-0.0052 -0.20326,0.0086 -0.384128,0.08613 -0.544325,0.232544 -0.160197,0.146417 -0.254937,0.332452 -0.287666,0.561551 -0.0069,0.04823 -0.01033,0.09474 -0.01033,0.139527 0,0.1757 0.04995,0.337619 0.146417,0.487481 0.144694,0.220486 0.37896,0.387573 0.718303,0.387573 0.18259,0 0.356567,-0.05512 0.492649,-0.142971 0.211873,-0.136082 0.382405,-0.396186 0.382405,-0.711413 0,-0.211873 -0.05512,-0.384128 -0.153306,-0.525377 -0.182591,-0.265273 -0.416857,-0.406522 -0.7028,-0.423747 z m 0.630452,0.937066 c 0,0.125746 -0.03273,0.253215 -0.09991,0.35829 -0.09991,0.158475 -0.308337,0.285944 -0.544326,0.285944 -0.08096,0 -0.163642,-0.01378 -0.248047,-0.04823 -0.201538,-0.08096 -0.399631,-0.306613 -0.399631,-0.601169 0,-0.385851 0.268717,-0.692465 0.62184,-0.713136 0.0086,0.0034 0.01895,0.0052 0.02756,0.0052 0.323839,0.02067 0.64251,0.313504 0.64251,0.713135 z m 1.469334,0.794095 c 0,-0.04479 -0.02756,-0.08268 -0.06201,-0.10163 -0.02928,-0.0155 -0.05684,-0.06201 -0.08268,-0.137804 -0.05684,-0.16881 -0.08441,-0.459921 -0.08441,-0.876777 0,-0.0913 0,-0.189481 0.0034,-0.292834 0.08957,0 0.177423,0.0017 0.266996,0.0017 h 0.0017 c 0.07062,0 0.106798,-0.05512 0.106798,-0.110243 0,-0.05684 -0.03617,-0.111966 -0.10852,-0.113688 l -0.260105,-0.0017 c 0.0052,-0.106798 0.0155,-0.416857 0.0155,-0.604615 0,-0.03445 -0.0017,-0.06373 -0.0017,-0.08785 -0.0017,-0.07062 -0.05684,-0.105075 -0.111966,-0.105075 -0.05512,0 -0.111965,0.03617 -0.111965,0.106798 0,0.02584 0.0017,0.05512 0.0017,0.0913 0,0.184313 -0.01033,0.496094 -0.0155,0.597724 l -0.346232,-0.0017 c -0.05857,0 -0.111966,0.0534 -0.111966,0.10852 0,0.06029 0.05168,0.115411 0.111966,0.115411 0.113688,0 0.225654,0.0017 0.339342,0.0017 -0.0034,0.113688 -0.0052,0.222209 -0.0052,0.323839 0,0.203261 0.0069,0.382406 0.02067,0.535713 0.03101,0.353122 0.120578,0.570163 0.268718,0.649401 0.01722,0.0086 0.03445,0.01378 0.05168,0.01378 0.06029,0 0.113688,-0.04995 0.113688,-0.111966 z m 1.686376,-0.613227 c 0,-0.08957 0.01895,-0.186035 0.05512,-0.284221 0.09819,-0.26355 0.335897,-0.504706 0.664904,-0.504706 0.06718,0 0.139526,0.01033 0.215318,0.03273 0.01206,0.0034 0.02412,0.0052 0.03445,0.0052 0.06373,0 0.105076,-0.06029 0.105076,-0.117134 0,-0.04306 -0.02239,-0.08613 -0.07579,-0.10163 -0.10163,-0.03101 -0.198093,-0.04651 -0.292833,-0.04651 -0.430637,0 -0.733806,0.320394 -0.861274,0.656291 -0.04479,0.120579 -0.0689,0.239435 -0.0689,0.354845 0,0.08613 0.01378,0.170533 0.0379,0.253215 0.07751,0.260105 0.308336,0.444418 0.659736,0.444418 0.156752,0 0.339342,-0.0379 0.544326,-0.111966 0.03962,-0.01378 0.07579,-0.05512 0.07579,-0.108521 0,-0.06029 -0.0534,-0.10852 -0.111966,-0.10852 -0.01378,0 -0.02584,0.0017 -0.03962,0.0069 -0.179145,0.06546 -0.334174,0.09646 -0.46681,0.09646 -0.304892,0 -0.475424,-0.184313 -0.475424,-0.466811 z m 2.037775,-1.117934 c -0.01378,-0.0052 -0.02756,-0.0069 -0.04134,-0.0052 -0.203261,0.0086 -0.384129,0.08613 -0.544326,0.232544 -0.160197,0.146417 -0.254937,0.332452 -0.287665,0.561551 -0.0069,0.04823 -0.01034,0.09474 -0.01034,0.139527 0,0.1757 0.04995,0.337619 0.146417,0.487481 0.144694,0.220486 0.378961,0.387573 0.718303,0.387573 0.18259,0 0.356567,-0.05512 0.492649,-0.142971 0.211873,-0.136082 0.382406,-0.396186 0.382406,-0.711413 0,-0.211873 -0.05512,-0.384128 -0.153307,-0.525377 -0.18259,-0.265273 -0.416857,-0.406522 -0.7028,-0.423747 z m 0.630453,0.937066 c 0,0.125746 -0.03273,0.253215 -0.09991,0.35829 -0.09991,0.158475 -0.308336,0.285944 -0.544326,0.285944 -0.08096,0 -0.163642,-0.01378 -0.248047,-0.04823 -0.201538,-0.08096 -0.399631,-0.306613 -0.399631,-0.601169 0,-0.385851 0.268718,-0.692465 0.62184,-0.713136 0.0086,0.0034 0.01895,0.0052 0.02756,0.0052 0.323839,0.02067 0.642511,0.313504 0.642511,0.713135 z m 0.683851,-0.925008 c -0.05684,0 -0.11541,0.04306 -0.11541,0.110243 0,0.02928 0.0155,0.05857 0.04134,0.0913 0.02928,0.03617 0.06201,0.118856 0.09819,0.251492 0.03617,0.132636 0.05684,0.330729 0.06201,0.594279 -0.02239,0.142972 -0.03445,0.298001 -0.03445,0.466811 0,0.04995 0.0017,0.09991 0.0034,0.151584 0.0034,0.0689 0.05857,0.103353 0.113688,0.103353 0.05168,0 0.101631,-0.03101 0.108521,-0.09474 l 0.0069,-0.06718 c 0.01723,-0.167088 0.02584,-0.334175 0.02584,-0.49954 0,-0.0155 0,-0.02928 0,-0.04479 0.06374,-0.366903 0.24977,-0.766534 0.590835,-0.816488 0.02756,-0.0034 0.05512,-0.0052 0.08096,-0.0052 0.292834,0 0.490927,0.23599 0.546048,0.49954 0.01206,0.06201 0.01895,0.124023 0.01895,0.187757 0,0.215319 -0.07062,0.444418 -0.213596,0.694188 -0.04995,0.0844 0.02756,0.165364 0.09991,0.165364 0.03617,0 0.07407,-0.01722 0.09474,-0.0534 0.16192,-0.282498 0.24288,-0.551215 0.24288,-0.80443 0,-0.08096 -0.0086,-0.158475 -0.02412,-0.235989 -0.07407,-0.35829 -0.347955,-0.678684 -0.763089,-0.678684 -0.0379,0 -0.07579,0.0034 -0.115411,0.0086 -0.249769,0.03617 -0.449585,0.196371 -0.604615,0.477146 -0.0379,-0.208428 -0.09819,-0.361735 -0.180867,-0.461643 -0.02239,-0.02756 -0.0534,-0.03962 -0.08268,-0.03962 z m 2.230702,0 c -0.05684,0 -0.115411,0.04306 -0.115411,0.110243 0,0.02928 0.0155,0.05857 0.04134,0.0913 0.02928,0.03617 0.06201,0.118856 0.09819,0.251492 0.03617,0.132636 0.05684,0.330729 0.06201,0.594279 -0.02239,0.142972 -0.03445,0.298001 -0.03445,0.466811 0,0.04995 0.0017,0.09991 0.0034,0.151584 0.0034,0.0689 0.05857,0.103353 0.113689,0.103353 0.05168,0 0.10163,-0.03101 0.10852,-0.09474 l 0.0069,-0.06718 c 0.01723,-0.167088 0.02584,-0.334175 0.02584,-0.49954 0,-0.0155 0,-0.02928 0,-0.04479 0.06373,-0.366903 0.249769,-0.766534 0.590834,-0.816488 0.02756,-0.0034 0.05512,-0.0052 0.08096,-0.0052 0.292833,0 0.490926,0.23599 0.546048,0.49954 0.01206,0.06201 0.01895,0.124023 0.01895,0.187757 0,0.215319 -0.07062,0.444418 -0.213596,0.694188 -0.04995,0.0844 0.02756,0.165364 0.09991,0.165364 0.03617,0 0.07407,-0.01722 0.09474,-0.0534 0.161919,-0.282498 0.242879,-0.551215 0.242879,-0.80443 0,-0.08096 -0.0086,-0.158475 -0.02412,-0.235989 -0.07407,-0.35829 -0.347954,-0.678684 -0.763089,-0.678684 -0.0379,0 -0.07579,0.0034 -0.11541,0.0086 -0.24977,0.03617 -0.449586,0.196371 -0.604615,0.477146 -0.0379,-0.208428 -0.09819,-0.361735 -0.180868,-0.461643 -0.02239,-0.02756 -0.0534,-0.03962 -0.08268,-0.03962 z m 2.359892,1.190281 c 0.0086,0.0017 0.01895,0.0034 0.02756,0.0034 0.478869,0 0.844049,-0.08613 1.093819,-0.254937 0.179145,-0.122301 0.280775,-0.260105 0.280775,-0.447863 0,-0.05512 -0.01034,-0.106798 -0.03273,-0.156752 -0.08096,-0.179145 -0.284221,-0.280775 -0.535713,-0.280775 -0.329007,0 -0.594279,0.09991 -0.79754,0.303168 -0.156752,0.156752 -0.248047,0.346233 -0.273885,0.563274 -0.0052,0.04306 -0.0069,0.08268 -0.0069,0.122301 0,0.177422 0.04995,0.315226 0.139526,0.440972 0.158475,0.223931 0.389296,0.313504 0.649401,0.313504 0.251492,0 0.528823,-0.08441 0.792372,-0.213596 0.03445,-0.01723 0.06201,-0.05512 0.06201,-0.105076 0,-0.06201 -0.0534,-0.10852 -0.111965,-0.10852 -0.01723,0 -0.03273,0.0034 -0.04995,0.01206 -0.25666,0.127468 -0.484037,0.191203 -0.680407,0.191203 -0.291111,0 -0.490927,-0.142972 -0.556383,-0.382406 z m -0.01895,-0.210151 c 0.03273,-0.43236 0.396186,-0.7028 0.854384,-0.7028 0.113688,0 0.201538,0.02412 0.266995,0.07407 0.04651,0.03617 0.07751,0.06718 0.07751,0.132636 0,0.10852 -0.06374,0.187758 -0.182591,0.268717 -0.213596,0.144695 -0.535712,0.217042 -0.969795,0.217042 -0.0155,0 -0.03101,0.0034 -0.04651,0.01034 z m 1.989544,0.125746 c 0,-0.08957 0.01895,-0.186035 0.05512,-0.284221 0.09819,-0.26355 0.335897,-0.504706 0.664904,-0.504706 0.06718,0 0.139526,0.01033 0.215318,0.03273 0.01206,0.0034 0.02412,0.0052 0.03445,0.0052 0.06374,0 0.105076,-0.06029 0.105076,-0.117134 0,-0.04306 -0.02239,-0.08613 -0.07579,-0.10163 -0.101631,-0.03101 -0.198094,-0.04651 -0.292834,-0.04651 -0.430637,0 -0.733806,0.320394 -0.861274,0.656291 -0.04479,0.120579 -0.0689,0.239435 -0.0689,0.354845 0,0.08613 0.01378,0.170533 0.0379,0.253215 0.07751,0.260105 0.308336,0.444418 0.659736,0.444418 0.156752,0 0.339342,-0.0379 0.544326,-0.111966 0.03962,-0.01378 0.07579,-0.05512 0.07579,-0.108521 0,-0.06029 -0.0534,-0.10852 -0.111966,-0.10852 -0.01378,0 -0.02584,0.0017 -0.03962,0.0069 -0.179145,0.06546 -0.334174,0.09646 -0.46681,0.09646 -0.304891,0 -0.475424,-0.184313 -0.475424,-0.466811 z m 2.337498,0.613227 c 0,-0.04479 -0.02756,-0.08268 -0.06201,-0.10163 -0.02928,-0.0155 -0.05684,-0.06201 -0.08268,-0.137804 -0.05685,-0.16881 -0.08441,-0.459921 -0.08441,-0.876777 0,-0.0913 0,-0.189481 0.0034,-0.292834 0.08957,0 0.177422,0.0017 0.266995,0.0017 h 0.0017 c 0.07062,0 0.106798,-0.05512 0.106798,-0.110243 0,-0.05684 -0.03617,-0.111966 -0.10852,-0.113688 l -0.260105,-0.0017 c 0.0052,-0.106798 0.0155,-0.416857 0.0155,-0.604615 0,-0.03445 -0.0017,-0.06373 -0.0017,-0.08785 -0.0017,-0.07062 -0.05684,-0.105075 -0.111965,-0.105075 -0.05512,0 -0.111966,0.03617 -0.111966,0.106798 0,0.02584 0.0017,0.05512 0.0017,0.0913 0,0.184313 -0.01034,0.496094 -0.0155,0.597724 l -0.346233,-0.0017 c -0.05857,0 -0.111965,0.0534 -0.111965,0.10852 0,0.06029 0.05168,0.115411 0.111965,0.115411 0.113689,0 0.225654,0.0017 0.339342,0.0017 -0.0034,0.113688 -0.0052,0.222209 -0.0052,0.323839 0,0.203261 0.0069,0.382406 0.02067,0.535713 0.03101,0.353122 0.120579,0.570163 0.268718,0.649401 0.01723,0.0086 0.03445,0.01378 0.05168,0.01378 0.06029,0 0.113689,-0.04995 0.113689,-0.111966 z m 0.742419,-0.528822 c 0.0086,0.0017 0.01895,0.0034 0.02756,0.0034 0.478868,0 0.844049,-0.08613 1.093818,-0.254937 0.179145,-0.122301 0.280776,-0.260105 0.280776,-0.447863 0,-0.05512 -0.01034,-0.106798 -0.03273,-0.156752 -0.08096,-0.179145 -0.28422,-0.280775 -0.535713,-0.280775 -0.329006,0 -0.594279,0.09991 -0.79754,0.303168 -0.156752,0.156752 -0.248047,0.346233 -0.273885,0.563274 -0.0052,0.04306 -0.0069,0.08268 -0.0069,0.122301 0,0.177422 0.04995,0.315226 0.139526,0.440972 0.158475,0.223931 0.389296,0.313504 0.649401,0.313504 0.251492,0 0.528823,-0.08441 0.792373,-0.213596 0.03445,-0.01723 0.06201,-0.05512 0.06201,-0.105076 0,-0.06201 -0.0534,-0.10852 -0.111966,-0.10852 -0.01723,0 -0.03273,0.0034 -0.04995,0.01206 -0.25666,0.127468 -0.484036,0.191203 -0.680407,0.191203 -0.291111,0 -0.490926,-0.142972 -0.556383,-0.382406 z m -0.01895,-0.210151 c 0.03273,-0.43236 0.396186,-0.7028 0.854384,-0.7028 0.113688,0 0.201538,0.02412 0.266995,0.07407 0.04651,0.03617 0.07752,0.06718 0.07752,0.132636 0,0.10852 -0.06373,0.187758 -0.18259,0.268717 -0.213596,0.144695 -0.535713,0.217042 -0.969795,0.217042 -0.0155,0 -0.03101,0.0034 -0.04651,0.01034 z m 3.451987,0.06029 c 0,-0.02412 0,-0.04823 0,-0.07062 0,-0.0534 -0.0034,-0.08785 -0.01034,-0.108521 -0.0017,-0.07751 -0.0017,-0.177423 -0.0017,-0.299723 0,-0.196371 0.0017,-0.451308 0.0034,-0.761367 l 0.0034,-0.422025 c 0.0017,-0.07235 -0.05512,-0.110243 -0.111966,-0.110243 -0.05512,0 -0.111966,0.03617 -0.111966,0.108521 l -0.0034,0.420302 c -0.0017,0.239434 -0.0017,0.430637 -0.0017,0.573609 -0.229099,-0.239435 -0.454753,-0.366903 -0.673517,-0.384129 -0.02067,-0.0017 -0.04306,-0.0017 -0.06373,-0.0017 -0.18948,0 -0.347955,0.07062 -0.470256,0.220486 -0.149862,0.179145 -0.242879,0.435805 -0.242879,0.694187 0,0.509875 0.3514,0.866442 0.852661,0.866442 0.248047,0 0.451308,-0.127468 0.611505,-0.378961 0.0034,0.09991 0.0086,0.180868 0.01378,0.239435 0.0052,0.06201 0.04823,0.118856 0.10852,0.118856 0.09129,0 0.122301,-0.07407 0.122301,-0.165365 0,-0.151584 -0.02412,-0.368626 -0.02412,-0.539158 z M 53.31866,64.98841 c -0.387574,0 -0.62873,-0.265273 -0.62873,-0.652846 0,-0.33762 0.191203,-0.68213 0.496094,-0.68213 0.01033,0 0.02067,0.0017 0.03101,0.0017 0.217041,0.01895 0.447862,0.187758 0.697632,0.508152 v 0.156752 c -0.0086,0.02239 -0.02067,0.05684 -0.0379,0.105075 -0.136082,0.375516 -0.320394,0.563274 -0.558106,0.563274 z"
       id="text7"
       style="font-size:3.52778px;line-height:1.25;font-family:Chilanka;-inkscape-font-specification:Chilanka;letter-spacing:0px;word-spacing:0px;stroke-width:0.264583"
       aria-label="not connected " />
    <path
       style="fill:none;stroke:#000000;stroke-width:0.264583px;stroke-linecap:butt;stroke-linejoin:miter;stroke-dasharray:2.11666, 0.264583;stroke-dashoffset:0;stroke-opacity:1;marker-start:url(#marker8);marker-end:url(#Dot)"
       d="m 26.980565,60.356186 c -2.907747,1.582065 -5.815494,3.164129 -7.37143,5.466871 -1.555936,2.302743 -1.760053,5.326041 -1.964175,8.349398"
       id="path7" />
  </g>
</svg>
