<?xml version="1.0" encoding="UTF-8" standalone="no"?>
<!-- Created with Inkscape (http://www.inkscape.org/) -->

<svg
   width="134.81168mm"
   height="95.427521mm"
   viewBox="0 0 134.81168 95.427521"
   version="1.1"
   id="svg5"
   sodipodi:docname="encoder_cell.svg"
   inkscape:version="1.2 (1:1.2+202206011327+fc4e4096c5)"
   inkscape:export-filename="Projects/blog/mypage/images/nvae/encoder_cell.svg"
   inkscape:export-xdpi="204.8"
   inkscape:export-ydpi="204.8"
   xmlns:inkscape="http://www.inkscape.org/namespaces/inkscape"
   xmlns:sodipodi="http://sodipodi.sourceforge.net/DTD/sodipodi-0.dtd"
   xmlns="http://www.w3.org/2000/svg"
   xmlns:svg="http://www.w3.org/2000/svg">
  <sodipodi:namedview
     id="namedview7"
     pagecolor="#ffffff"
     bordercolor="#666666"
     borderopacity="1.0"
     inkscape:showpageshadow="2"
     inkscape:pageopacity="0.0"
     inkscape:pagecheckerboard="0"
     inkscape:deskcolor="#d1d1d1"
     inkscape:document-units="mm"
     showgrid="false"
     inkscape:zoom="0.80711282"
     inkscape:cx="493.73519"
     inkscape:cy="403.28934"
     inkscape:window-width="1280"
     inkscape:window-height="656"
     inkscape:window-x="0"
     inkscape:window-y="27"
     inkscape:window-maximized="1"
     inkscape:current-layer="layer1" />
  <defs
     id="defs2">
    <inkscape:path-effect
       effect="bspline"
       id="path-effect14269"
       is_visible="true"
       lpeversion="1"
       weight="33.333333"
       steps="2"
       helper_size="0"
       apply_no_weight="true"
       apply_with_weight="true"
       only_selected="false" />
    <marker
       style="overflow:visible"
       id="EmptyTriangleIn"
       refX="0"
       refY="0"
       orient="auto-start-reverse"
       inkscape:stockid="EmptyTriangleIn"
       markerWidth="5.8241119"
       markerHeight="6.7330775"
       viewBox="0 0 5.8241121 6.7330776"
       inkscape:isstock="true"
       inkscape:collect="always"
       preserveAspectRatio="xMidYMid">
      <path
         transform="scale(0.5)"
         style="fill:context-fill;fill-rule:evenodd;stroke:context-stroke;stroke-width:2"
         d="M 5.77,0 -2.88,5 V -5 Z"
         id="path153" />
    </marker>
    <inkscape:path-effect
       effect="bspline"
       id="path-effect11469"
       is_visible="true"
       lpeversion="1"
       weight="33.333333"
       steps="2"
       helper_size="0"
       apply_no_weight="true"
       apply_with_weight="true"
       only_selected="false" />
    <inkscape:path-effect
       effect="bspline"
       id="path-effect11461"
       is_visible="true"
       lpeversion="1"
       weight="33.333333"
       steps="2"
       helper_size="0"
       apply_no_weight="true"
       apply_with_weight="true"
       only_selected="false" />
    <marker
       style="overflow:visible"
       id="marker4508"
       refX="0"
       refY="0"
       orient="auto-start-reverse"
       inkscape:stockid="Arrow5"
       markerWidth="5.8874264"
       markerHeight="6.6094756"
       viewBox="0 0 5.8874262 6.6094758"
       inkscape:isstock="true"
       inkscape:collect="always"
       preserveAspectRatio="xMidYMid">
      <path
         transform="scale(0.5)"
         style="fill:context-stroke;fill-rule:evenodd;stroke:context-stroke;stroke-width:1pt"
         d="m 6,0 c -3,1 -7,3 -9,5 0,0 0,-4 2,-5 -2,-1 -2,-5 -2,-5 2,2 6,4 9,5 z"
         id="path4506" />
    </marker>
    <inkscape:path-effect
       effect="bspline"
       id="path-effect4000"
       is_visible="true"
       lpeversion="1"
       weight="33.333333"
       steps="2"
       helper_size="0"
       apply_no_weight="true"
       apply_with_weight="true"
       only_selected="false" />
    <inkscape:path-effect
       effect="bspline"
       id="path-effect3996"
       is_visible="true"
       lpeversion="1"
       weight="33.333333"
       steps="2"
       helper_size="0"
       apply_no_weight="true"
       apply_with_weight="true"
       only_selected="false" />
    <marker
       style="overflow:visible"
       id="Arrow5"
       refX="0"
       refY="0"
       orient="auto-start-reverse"
       inkscape:stockid="Arrow5"
       markerWidth="5.8874259"
       markerHeight="6.6094756"
       viewBox="0 0 5.8874262 6.6094758"
       inkscape:isstock="true"
       inkscape:collect="always"
       preserveAspectRatio="xMidYMid">
      <path
         transform="scale(0.5)"
         style="fill:context-stroke;fill-rule:evenodd;stroke:context-stroke;stroke-width:1pt"
         d="m 6,0 c -3,1 -7,3 -9,5 0,0 0,-4 2,-5 -2,-1 -2,-5 -2,-5 2,2 6,4 9,5 z"
         id="path8893" />
    </marker>
    <filter
       style="color-interpolation-filters:sRGB"
       inkscape:label="Drop Shadow"
       id="filter9887"
       x="-0.26093709"
       y="-0.048942432"
       width="1.5218742"
       height="1.0978849">
      <feFlood
         flood-opacity="0.498039"
         flood-color="rgb(0,0,0)"
         result="flood"
         id="feFlood9877" />
      <feComposite
         in="flood"
         in2="SourceGraphic"
         operator="in"
         result="composite1"
         id="feComposite9879" />
      <feGaussianBlur
         in="composite1"
         stdDeviation="0.6"
         result="blur"
         id="feGaussianBlur9881" />
      <feOffset
         dx="-1.38778e-16"
         dy="1.38778e-16"
         result="offset"
         id="feOffset9883" />
      <feComposite
         in="SourceGraphic"
         in2="offset"
         operator="over"
         result="composite2"
         id="feComposite9885" />
    </filter>
  </defs>
  <g
     inkscape:groupmode="layer"
     id="layer2"
     inkscape:label="background"
     style="display:inline"
     transform="translate(-42.639714,-45.874797)">
    <rect
       style="display:inline;fill:#d7d6ed;fill-opacity:1;stroke:none;stroke-width:0.185;stroke-linejoin:round;stroke-dasharray:none;stroke-dashoffset:0;stroke-opacity:1"
       id="rect56426"
       width="134.81168"
       height="95.427521"
       x="42.639713"
       y="45.874798"
       ry="7.2626553"
       inkscape:export-filename="Projects/blog/mypage/images/nvae/encoder_cell.svg"
       inkscape:export-xdpi="204.8"
       inkscape:export-ydpi="204.8" />
    <path
       style="display:inline;fill:none;stroke:#000000;stroke-width:0.365;stroke-linecap:butt;stroke-linejoin:miter;stroke-dasharray:none;stroke-opacity:1;marker-end:url(#Arrow5)"
       d="m 153.67209,81.45034 c 3.20617,10e-7 6.41207,2e-6 9.6177,3e-6"
       id="path14267"
       inkscape:path-effect="#path-effect14269"
       inkscape:original-d="m 153.67209,81.45034 c 3.20617,2.66e-4 6.41207,2.67e-4 9.6177,3e-6"
       sodipodi:nodetypes="cc" />
  </g>
  <g
     inkscape:groupmode="layer"
     id="layer3"
     inkscape:label="flow"
     transform="translate(-42.639714,-45.874797)">
    <rect
       style="fill:#a3d4ff;stroke:#ff5444;stroke-width:0.365001;stroke-linecap:round;stroke-linejoin:bevel;stroke-dasharray:none"
       id="rect15311"
       width="5.8154578"
       height="6.3118587"
       x="147.85663"
       y="78.294411"
       ry="1.0536448" />
    <ellipse
       style="fill:none;fill-opacity:1;stroke:none;stroke-width:0.165;stroke-linecap:round;stroke-linejoin:bevel;stroke-dasharray:2.11666, 0.264583"
       id="path8002-3"
       cy="118.17145"
       cx="94.566628"
       rx="3.4604247"
       ry="3.9405982" />
    <ellipse
       style="fill:#1a1a1a;fill-opacity:1;stroke:none;stroke-width:0.165;stroke-linecap:round;stroke-linejoin:bevel;stroke-dasharray:2.11666, 0.264583"
       id="path8002"
       cy="81.450333"
       cx="50.99305"
       rx="0.55717254"
       ry="0.52918911" />
    <path
       style="fill:none;fill-rule:evenodd;stroke:#000000;stroke-width:0.365;stroke-linecap:butt;stroke-linejoin:miter;stroke-dasharray:none;stroke-opacity:1;marker-end:url(#Arrow5)"
       d="m 51.550222,81.450333 94.136858,7e-6"
       id="path8103"
       inkscape:connector-type="polyline"
       inkscape:connector-curvature="0"
       inkscape:connection-start="#path8002" />
    <path
       style="fill:none;stroke:#000000;stroke-width:0.365;stroke-linecap:butt;stroke-linejoin:miter;stroke-dasharray:none;stroke-opacity:1;marker-end:url(#marker4508)"
       d="m 98.027052,118.17145 c 13.371728,0 26.743188,0 35.328478,-5.24741 8.58528,-5.24741 12.38455,-15.741945 16.18395,-26.236841"
       id="path3998"
       inkscape:original-d="m 98.027052,118.17145 c 13.371728,2.6e-4 26.743188,2.6e-4 40.114388,0 3.79969,-10.4947 7.59896,-20.989239 11.39804,-31.484251"
       inkscape:path-effect="#path-effect4000"
       sodipodi:nodetypes="ccc" />
    <text
       xml:space="preserve"
       style="font-size:4.9389px;line-height:0px;font-family:Chilanka;-inkscape-font-specification:Chilanka;letter-spacing:0px;word-spacing:0px;stroke-width:0.264583"
       x="149.0666"
       y="82.892464"
       id="text11449"><tspan
         sodipodi:role="line"
         id="tspan11447"
         style="stroke-width:0.264583"
         x="149.0666"
         y="82.892464">+</tspan></text>
    <path
       style="fill:none;stroke:#000000;stroke-width:0.565;stroke-linecap:butt;stroke-linejoin:miter;stroke-dasharray:none;stroke-opacity:1;marker-end:url(#EmptyTriangleIn)"
       d="m 92.05116,53.784806 c -2.082493,0.775688 -4.165132,1.551431 -5.494226,2.919917 -1.329094,1.368487 -1.904426,3.329415 -2.479718,5.29021"
       id="path11459"
       inkscape:path-effect="#path-effect11461"
       inkscape:original-d="m 92.05116,53.784806 c -2.082374,0.776007 -4.165013,1.55175 -6.247916,2.327228 -0.57509,1.961268 -1.150421,3.922196 -1.726028,5.882899" />
    <path
       style="fill:none;stroke:#000000;stroke-width:0.565;stroke-linecap:butt;stroke-linejoin:miter;stroke-dasharray:none;stroke-opacity:1;marker-end:url(#EmptyTriangleIn)"
       d="m 113.04755,132.78904 c -2.77037,-0.19333 -5.54097,-0.38668 -7.61913,-1.24829 -2.07816,-0.8616 -3.46371,-2.39165 -4.84952,-3.92201"
       id="path11467"
       inkscape:path-effect="#path-effect11469"
       inkscape:original-d="m 113.04755,132.78904 c -2.77039,-0.19309 -5.54099,-0.38644 -8.31196,-0.58006 -1.38532,-1.52984 -2.77086,-3.0599 -4.15669,-4.59024"
       sodipodi:nodetypes="ccc" />
    <text
       xml:space="preserve"
       style="font-size:4.23333px;line-height:5.57143px;font-family:Chilanka;-inkscape-font-specification:Chilanka;letter-spacing:0px;word-spacing:0px;stroke-width:0.264583"
       x="94.581558"
       y="52.198215"
       id="text12825"><tspan
         sodipodi:role="line"
         id="tspan12823"
         style="font-size:4.23333px;stroke-width:0.264583"
         x="94.581558"
         y="52.198215">may double channels &amp;</tspan><tspan
         sodipodi:role="line"
         style="font-size:4.23333px;stroke-width:0.264583"
         x="94.581558"
         y="57.769646"
         id="tspan12827">halve dimentions</tspan></text>
    <text
       xml:space="preserve"
       style="font-size:4.23333px;line-height:5.57143px;font-family:Chilanka;-inkscape-font-specification:Chilanka;letter-spacing:0px;word-spacing:0px;white-space:pre;inline-size:55.7275;display:inline;stroke-width:0.264583"
       x="110.29666"
       y="128.56235"
       id="text12831"
       transform="translate(4.6891249,-3.0772732)"><tspan
         x="110.29666"
         y="128.56235"
         id="tspan149884">identity or a mix of </tspan><tspan
         x="110.29666"
         y="134.13377"
         id="tspan149886">convolutions 
</tspan><tspan
         x="110.29666"
         y="139.7052"
         id="tspan149888">if downscaling</tspan></text>
  </g>
  <g
     inkscape:label="blocks"
     inkscape:groupmode="layer"
     id="layer1"
     style="display:inline"
     transform="translate(-42.639714,-45.874797)">
    <rect
       style="fill:#ff5444;fill-opacity:1;stroke:#000000;stroke-width:0.146;stroke-linejoin:round;stroke-dasharray:none;stroke-opacity:1;filter:url(#filter9887)"
       id="rect739"
       width="5.7984972"
       height="30.914751"
       x="57.941368"
       y="66.047493" />
    <rect
       style="display:inline;fill:#ff5444;fill-opacity:1;stroke:#000000;stroke-width:0.146;stroke-linejoin:round;stroke-dasharray:none;stroke-opacity:1;filter:url(#filter9887)"
       id="rect739-7"
       width="5.7984972"
       height="30.914751"
       x="80.429138"
       y="66.047493" />
    <rect
       style="display:inline;fill:#ff5444;fill-opacity:1;stroke:#000000;stroke-width:0.146;stroke-linejoin:round;stroke-dasharray:none;stroke-opacity:1;filter:url(#filter9887)"
       id="rect739-3"
       width="5.7984972"
       height="30.914751"
       x="69.185257"
       y="66.047493" />
    <rect
       style="fill:#ff5444;fill-opacity:1;stroke:#000000;stroke-width:0.146;stroke-linejoin:round;stroke-dasharray:none;stroke-opacity:1;filter:url(#filter9887)"
       id="rect739-9"
       width="5.7984972"
       height="30.914751"
       x="91.673027"
       y="66.047493" />
    <rect
       style="fill:#bf76ff;fill-opacity:1;stroke:#000000;stroke-width:0.146086;stroke-linejoin:round;stroke-opacity:1;filter:url(#filter9887)"
       id="rect739-9-6"
       width="5.7984972"
       height="30.914751"
       x="91.673019"
       y="104.25536" />
    <rect
       style="display:inline;fill:#ff5444;fill-opacity:1;stroke:#000000;stroke-width:0.146;stroke-linejoin:round;stroke-dasharray:none;stroke-opacity:1;filter:url(#filter9887)"
       id="rect739-7-0"
       width="5.7984972"
       height="30.914751"
       x="114.1608"
       y="66.047493" />
    <rect
       style="display:inline;fill:#ff5444;fill-opacity:1;stroke:#0f0504;stroke-width:0.146;stroke-linejoin:round;stroke-dasharray:none;stroke-opacity:1;filter:url(#filter9887)"
       id="rect739-7-0-2"
       width="5.7984972"
       height="30.914751"
       x="125.40468"
       y="66.0205" />
    <rect
       style="display:inline;fill:#ff5444;fill-opacity:1;stroke:#000000;stroke-width:0.146;stroke-linejoin:round;stroke-dasharray:none;stroke-opacity:1;filter:url(#filter9887)"
       id="rect739-3-6"
       width="5.7984972"
       height="30.914751"
       x="102.9169"
       y="66.047493" />
    <g
       aria-label="BatchNorm"
       id="text306"
       style="font-weight:bold;font-size:2.82222px;line-height:1.25;font-family:'Tlwg Typewriter';-inkscape-font-specification:'Tlwg Typewriter Bold';text-align:center;letter-spacing:0px;word-spacing:0px;writing-mode:tb-rl;text-orientation:upright;white-space:pre;display:inline;fill:#ffffff;stroke-width:0.264583">
      <path
         d="m 60.21126,71.038667 q -0.186266,0 -0.186266,-0.141111 0,-0.141111 0.186266,-0.141111 h 0.04233 v -1.08091 h -0.04233 q -0.186266,0 -0.186266,-0.141111 0,-0.141111 0.186266,-0.141111 h 0.714022 q 0.239888,0 0.395111,0.132644 0.158044,0.132645 0.158044,0.333022 0,0.180623 -0.1778,0.318911 0.299155,0.149578 0.299155,0.409222 0,0.2032 -0.1524,0.327378 -0.152399,0.124177 -0.403577,0.124177 z m 0.324555,-0.965199 h 0.318911 q 0.1524,0 0.245533,-0.05927 0.09596,-0.06209 0.09596,-0.158045 0,-0.08467 -0.0762,-0.132644 -0.0762,-0.04798 -0.208844,-0.04798 h -0.375356 z m 0.781755,0.530578 q 0,-0.09031 -0.09596,-0.169334 -0.09596,-0.07902 -0.3048,-0.07902 h -0.381 v 0.400755 h 0.493889 q 0.287866,0 0.287866,-0.152399 z"
         id="path8396" />
      <path
         d="m 60.82086,72.87311 q -0.112889,0 -0.262467,0.03387 -0.146755,0.03105 -0.1778,0.03105 -0.05927,0 -0.09878,-0.03951 -0.03951,-0.04233 -0.03951,-0.104422 0,-0.09031 0.08467,-0.118533 0.239889,-0.08467 0.485422,-0.08467 0.259644,0 0.4064,0.110067 0.149577,0.110067 0.149577,0.307622 v 0.570089 h 0.04516 q 0.186266,0 0.186266,0.141111 0,0.141111 -0.186266,0.141111 h -0.3302 v -0.06491 q -0.211666,0.110067 -0.468488,0.110067 -0.208845,0 -0.358422,-0.110067 -0.149578,-0.112888 -0.149578,-0.270933 0,-0.183444 0.180622,-0.330199 0.183444,-0.146756 0.502355,-0.146756 0.127,0 0.293511,0.02822 v -0.06491 q 0,-0.138289 -0.262466,-0.138289 z m 0.265288,0.606778 v -0.141111 q -0.1778,-0.03104 -0.313266,-0.03104 -0.143933,0 -0.256822,0.06209 -0.110067,0.06209 -0.110067,0.143933 0,0.04798 0.06209,0.07902 0.06209,0.03104 0.1524,0.03104 0.231422,0 0.465666,-0.143933 z"
         id="path8398" />
      <path
         d="m 60.834971,76.446041 q 0.138288,0 0.245533,-0.03104 0.107244,-0.03104 0.169333,-0.06209 0.06209,-0.03387 0.09596,-0.03387 0.05644,0 0.09595,0.04233 0.03951,0.04233 0.03951,0.1016 0,0.0508 -0.03104,0.08467 -0.03104,0.03105 -0.110067,0.06773 -0.1016,0.04798 -0.251177,0.07902 -0.146756,0.03387 -0.256823,0.03387 -0.239888,0 -0.380999,-0.104422 Q 60.31004,76.519417 60.31004,76.338795 V 75.73202 h -0.09878 q -0.186266,0 -0.186266,-0.141111 0,-0.141111 0.186266,-0.141111 h 0.09878 v -0.248356 q 0,-0.186266 0.141111,-0.186266 0.141111,0 0.141111,0.186266 v 0.248356 h 0.510822 q 0.186266,0 0.186266,0.141111 0,0.141111 -0.186266,0.141111 H 60.59226 v 0.553155 q 0,0.1016 0.05362,0.132644 0.05362,0.02822 0.189089,0.02822 z"
         id="path8400" />
      <path
         d="m 60.863193,78.517551 q -0.200378,0 -0.321733,0.112889 -0.118533,0.110067 -0.118533,0.290689 0,0.347133 0.49671,0.347133 0.05927,0 0.110067,-0.0028 0.0508,-0.0056 0.08749,-0.0085 0.03669,-0.0056 0.07055,-0.01693 0.03387,-0.01129 0.0508,-0.01693 0.01976,-0.0056 0.04233,-0.01976 0.0254,-0.01693 0.03104,-0.01976 0.0085,-0.0056 0.0254,-0.02258 l 0.01976,-0.01693 q 0.03669,-0.03387 0.08467,-0.03387 0.05644,0 0.09878,0.04233 0.04233,0.04233 0.04233,0.1016 0,0.112888 -0.180622,0.206022 -0.186267,0.09031 -0.502355,0.09031 -0.189089,0 -0.333022,-0.04516 -0.141111,-0.04798 -0.220133,-0.115711 -0.07902,-0.06773 -0.129822,-0.158044 -0.04798,-0.09031 -0.06209,-0.163689 -0.01411,-0.07338 -0.01411,-0.146755 0,-0.301978 0.200377,-0.493889 0.2032,-0.191911 0.522111,-0.191911 0.242711,0 0.4064,0.08467 0.0254,-0.08467 0.107244,-0.08467 0.135467,0 0.135467,0.186267 v 0.217311 q 0,0.186266 -0.141111,0.186266 -0.06491,0 -0.09878,-0.03104 -0.03104,-0.03104 -0.04516,-0.104422 -0.01411,-0.06773 -0.06491,-0.1016 -0.115711,-0.07056 -0.299155,-0.07056 z"
         id="path8402" />
      <path
         d="m 60.538638,80.566483 v 0.663221 q 0.169333,-0.172155 0.386644,-0.172155 0.225777,0 0.361244,0.129822 0.138289,0.127 0.138289,0.338667 v 0.519288 q 0.104422,0 0.1524,0.03104 0.0508,0.03105 0.0508,0.110067 0,0.141111 -0.186267,0.141111 h -0.316089 q -0.189088,0 -0.189088,-0.141111 0,-0.0762 0.0508,-0.107244 0.0508,-0.03387 0.155222,-0.03387 v -0.4826 q 0,-0.124177 -0.06209,-0.172155 -0.05927,-0.0508 -0.186267,-0.0508 -0.09878,0 -0.166511,0.03669 -0.06773,0.03669 -0.189088,0.1524 v 0.516466 q 0.107244,0 0.155222,0.03104 0.0508,0.03105 0.0508,0.110067 0,0.141111 -0.189089,0.141111 h -0.316089 q -0.186266,0 -0.186266,-0.141111 0,-0.07902 0.04798,-0.110067 0.0508,-0.03104 0.155223,-0.03104 v -1.196621 h -0.04516 q -0.186266,0 -0.186266,-0.141111 0,-0.141111 0.186266,-0.141111 z"
         id="path8404" />
      <path
         d="m 60.476549,84.037812 v 0.829733 h 0.09878 q 0.186267,0 0.186267,0.141111 0,0.141111 -0.186267,0.141111 H 60.21126 q -0.189089,0 -0.189089,-0.141111 0,-0.141111 0.172156,-0.141111 v -1.08091 h -0.04233 q -0.186266,0 -0.186266,-0.141111 0,-0.141111 0.186266,-0.141111 h 0.324556 l 0.728133,1.10631 v -0.824088 h -0.09878 q -0.186267,0 -0.186267,-0.141111 0,-0.141111 0.186267,-0.141111 h 0.366888 q 0.186267,0 0.186267,0.141111 0,0.141111 -0.172155,0.141111 v 1.363132 h -0.2794 z"
         id="path8406" />
      <path
         d="m 60.843437,86.70199 q 0.299156,0 0.508,0.191911 0.211666,0.191911 0.211666,0.465666 0,0.276577 -0.211666,0.468488 -0.211667,0.189089 -0.516466,0.189089 -0.3048,0 -0.516467,-0.189089 -0.211666,-0.191911 -0.211666,-0.468488 0,-0.2794 0.211666,-0.468489 0.211667,-0.189088 0.524933,-0.189088 z m -0.0028,0.282222 q -0.191911,0 -0.321733,0.107244 -0.129822,0.107244 -0.129822,0.268111 0,0.158044 0.127,0.268111 0.129822,0.107244 0.318911,0.107244 0.189088,0 0.316088,-0.107244 0.129822,-0.110067 0.129822,-0.268111 0,-0.158044 -0.129822,-0.265289 -0.127,-0.110066 -0.310444,-0.110066 z"
         id="path8408" />
      <path
         d="m 61.458681,89.910854 q -0.0508,0 -0.110066,-0.0508 -0.05645,-0.0508 -0.110067,-0.0508 -0.06773,0 -0.166511,0.06209 -0.09596,0.05927 -0.299155,0.225777 v 0.414867 h 0.392288 q 0.189089,0 0.189089,0.141111 0,0.141111 -0.189089,0.141111 h -0.838199 q -0.186266,0 -0.186266,-0.141111 0,-0.141111 0.186266,-0.141111 H 60.49066 V 89.84312 h -0.09878 q -0.186266,0 -0.186266,-0.141111 0,-0.141111 0.186266,-0.141111 h 0.381 v 0.183445 q 0.169333,-0.127 0.268111,-0.172156 0.09878,-0.04515 0.2032,-0.04515 0.107244,0 0.231422,0.07338 0.124177,0.07056 0.124177,0.166511 0,0.05927 -0.04233,0.1016 -0.04233,0.04233 -0.09878,0.04233 z"
         id="path8410" />
      <path
         d="m 59.934682,92.524229 q 0,-0.141111 0.189089,-0.141111 h 0.262467 v 0.06773 q 0.129822,-0.104422 0.239888,-0.104422 0.160867,0 0.287867,0.138289 0.127,-0.138289 0.293511,-0.138289 0.158044,0 0.262466,0.107245 0.107245,0.104422 0.107245,0.262466 v 0.618066 q 0.169333,0 0.169333,0.141111 0,0.141111 -0.186267,0.141111 h -0.265288 v -0.87771 q 0,-0.06209 -0.02258,-0.08467 -0.01976,-0.0254 -0.0762,-0.0254 -0.05645,0 -0.1016,0.0254 -0.04233,0.0254 -0.112889,0.1016 V 93.3342 q 0.07902,0 0.124178,0.03951 0.04515,0.03669 0.04515,0.1016 0,0.141111 -0.186266,0.141111 h -0.265289 v -0.87771 q 0,-0.05927 -0.02258,-0.08467 -0.02258,-0.0254 -0.0762,-0.0254 -0.101599,0 -0.214488,0.127 v 0.578555 q 0.172155,0 0.172155,0.141111 0,0.141111 -0.186266,0.141111 h -0.248356 q -0.189089,0 -0.189089,-0.141111 0,-0.141111 0.169334,-0.141111 V 92.66534 q -0.169334,-0.0056 -0.169334,-0.141111 z"
         id="path8412" />
    </g>
    <g
       aria-label="Conv2d 3x3"
       id="text306-5"
       style="font-weight:bold;font-size:2.82222px;line-height:1.25;font-family:'Tlwg Typewriter';-inkscape-font-specification:'Tlwg Typewriter Bold';text-align:center;letter-spacing:0px;word-spacing:0px;writing-mode:tb-rl;text-orientation:upright;white-space:pre;display:inline;fill:#ffffff;stroke-width:0.264583">
      <path
         d="m 83.676465,68.037236 0.02822,0.01129 q 0.04798,-0.06773 0.118534,-0.06773 0.141111,0 0.141111,0.186266 v 0.237067 q 0,0.186266 -0.141111,0.186266 -0.06491,0 -0.09313,-0.03387 -0.02822,-0.03387 -0.04515,-0.115711 -0.01976,-0.09878 -0.141111,-0.158045 -0.118533,-0.05927 -0.256822,-0.05927 -0.214489,0 -0.3556,0.146755 -0.141111,0.143933 -0.141111,0.366889 v 0.180622 q 0,0.211666 0.149578,0.338666 0.1524,0.127 0.406399,0.127 0.07338,0 0.132645,-0.0085 0.06209,-0.01129 0.09878,-0.01975 0.03669,-0.01129 0.07338,-0.03387 0.03951,-0.0254 0.0508,-0.03387 0.01129,-0.01129 0.03669,-0.03951 l 0.0254,-0.0254 q 0.04516,-0.04516 0.1016,-0.04516 0.05644,0 0.09878,0.04233 0.04233,0.04233 0.04233,0.09878 0,0.118533 -0.189089,0.234244 -0.189089,0.112889 -0.479777,0.112889 -0.358422,0 -0.595489,-0.208844 -0.234244,-0.211667 -0.234244,-0.5334 v -0.186266 q 0,-0.338667 0.220133,-0.567266 0.220133,-0.2286 0.547511,-0.2286 0.197555,0 0.400755,0.09595 z"
         id="path8368" />
      <path
         d="m 83.270065,71.178367 q 0.299156,0 0.508,0.191911 0.211667,0.191911 0.211667,0.465666 0,0.276578 -0.211667,0.468489 -0.211666,0.189089 -0.516466,0.189089 -0.3048,0 -0.516466,-0.189089 -0.211667,-0.191911 -0.211667,-0.468489 0,-0.279399 0.211667,-0.468488 0.211666,-0.189089 0.524932,-0.189089 z m -0.0028,0.282222 q -0.191911,0 -0.321733,0.107244 -0.129822,0.107245 -0.129822,0.268111 0,0.158045 0.127,0.268111 0.129822,0.107245 0.318911,0.107245 0.189089,0 0.316088,-0.107245 0.129823,-0.110066 0.129823,-0.268111 0,-0.158044 -0.129823,-0.265288 -0.126999,-0.110067 -0.310444,-0.110067 z"
         id="path8370" />
      <path
         d="m 82.510888,74.178387 q 0,-0.141111 0.189089,-0.141111 h 0.265289 v 0.135466 q 0.1016,-0.09596 0.186266,-0.132644 0.08467,-0.03951 0.200378,-0.03951 0.220133,0 0.361244,0.124178 0.141111,0.124177 0.141111,0.349955 v 0.513644 q 0.172155,0 0.172155,0.141111 0,0.141111 -0.186266,0.141111 h -0.251178 q -0.189088,0 -0.189088,-0.141111 0,-0.141111 0.172155,-0.141111 V 74.48601 q 0,-0.2032 -0.254,-0.2032 -0.09878,0 -0.1778,0.04233 -0.0762,0.04233 -0.174977,0.149578 v 0.513644 h 0.01693 q 0.186267,0 0.186267,0.141111 0,0.141111 -0.186267,0.141111 H 82.66611 q -0.186266,0 -0.186266,-0.141111 0,-0.141111 0.186266,-0.141111 h 0.01693 v -0.668866 q -0.172156,-0.0056 -0.172156,-0.141111 z"
         id="path8372" />
      <path
         d="m 83.267243,77.748496 0.301978,-0.606777 q -0.110067,0 -0.163689,-0.03104 -0.0508,-0.03104 -0.0508,-0.110066 0,-0.141111 0.186267,-0.141111 h 0.380999 q 0.186267,0 0.186267,0.141111 0,0.141111 -0.186267,0.141111 h -0.04516 l -0.471311,0.951088 H 83.112021 L 82.64071,77.141719 H 82.6012 q -0.186266,0 -0.186266,-0.141111 0,-0.141111 0.186266,-0.141111 h 0.372533 q 0.186267,0 0.186267,0.141111 0,0.141111 -0.200378,0.141111 z"
         id="path8374" />
      <path
         d="m 83.834509,79.661961 q 0,0.183444 -0.132644,0.3302 -0.129822,0.146755 -0.702733,0.640644 h 0.567267 q 0.01129,-0.1524 0.141111,-0.1524 0.141111,0 0.141111,0.186266 v 0.248356 h -1.281288 v -0.296333 q 0.457199,-0.378178 0.651933,-0.550333 0.194733,-0.172156 0.262466,-0.259645 0.07056,-0.08749 0.07056,-0.158044 0,-0.107244 -0.09313,-0.180622 -0.09313,-0.07338 -0.231422,-0.07338 -0.174977,0 -0.273755,0.115711 -0.0254,0.03105 -0.04798,0.09031 -0.01975,0.05927 -0.04798,0.09031 -0.02822,0.03105 -0.09313,0.03105 -0.05644,0 -0.09878,-0.03951 -0.04233,-0.04233 -0.04233,-0.09596 0,-0.05927 0.03669,-0.135466 0.03669,-0.0762 0.107244,-0.1524 0.07056,-0.07902 0.191911,-0.132645 0.124178,-0.05362 0.273756,-0.05362 0.256822,0 0.428977,0.158045 0.172155,0.155222 0.172155,0.389466 z"
         id="path8376" />
      <path
         d="m 82.508066,83.119179 q 0,-0.166511 0.07056,-0.310444 0.07338,-0.143933 0.237066,-0.242711 0.163689,-0.1016 0.392289,-0.1016 0.245533,0 0.423333,0.141111 V 82.25558 h -0.04516 q -0.186266,0 -0.186266,-0.141111 0,-0.138289 0.186266,-0.138289 h 0.327378 v 1.478844 h 0.04515 q 0.186267,0 0.186267,0.141111 0,0.141111 -0.186267,0.141111 H 83.63131 v -0.09878 q -0.2032,0.138289 -0.426156,0.138289 -0.335844,0 -0.516466,-0.197556 -0.180622,-0.197555 -0.180622,-0.460022 z m 1.123244,0.0056 q 0,-0.05645 -0.01976,-0.115711 -0.01976,-0.06209 -0.06491,-0.121356 -0.04233,-0.06209 -0.132644,-0.1016 -0.08749,-0.03951 -0.206022,-0.03951 -0.118534,0 -0.206022,0.03951 -0.08467,0.03951 -0.129823,0.1016 -0.04233,0.06209 -0.06209,0.121356 -0.01976,0.05644 -0.01976,0.110066 0,0.160867 0.115711,0.268111 0.118533,0.107245 0.3048,0.107245 0.118533,0 0.206022,-0.03951 0.08749,-0.03951 0.129822,-0.1016 0.04516,-0.06209 0.06491,-0.118534 0.01976,-0.05927 0.01976,-0.110066 z"
         id="path8378" />
      <path
         d="m 82.74231,89.043021 q 0.03387,0 0.06209,0.01693 0.02822,0.01411 0.0508,0.03387 0.0254,0.01693 0.107244,0.03387 0.08185,0.01411 0.208845,0.01411 0.217311,0 0.335844,-0.06209 0.118533,-0.06209 0.118533,-0.214489 0,-0.127 -0.127,-0.208844 -0.127,-0.08467 -0.304799,-0.08467 -0.06773,0 -0.107245,-0.03387 -0.03951,-0.03669 -0.03951,-0.09595 0,-0.06209 0.03951,-0.1016 0.04233,-0.03951 0.107245,-0.03951 0.36971,0 0.36971,-0.222956 0,-0.09878 -0.08467,-0.155222 -0.08467,-0.05927 -0.231422,-0.05927 -0.110067,0 -0.183445,0.02822 -0.07055,0.0254 -0.09878,0.05927 -0.0254,0.03104 -0.06209,0.05927 -0.03387,0.0254 -0.08185,0.0254 -0.05644,0 -0.09878,-0.04233 -0.03951,-0.04233 -0.03951,-0.09878 0,-0.121355 0.1778,-0.217311 0.177799,-0.09595 0.403577,-0.09595 0.1524,0 0.268111,0.04798 0.118533,0.04798 0.183444,0.124178 0.06491,0.0762 0.09596,0.158044 0.03387,0.08185 0.03387,0.160867 0,0.115711 -0.05927,0.2032 -0.05927,0.08467 -0.197556,0.166511 0.318911,0.155222 0.318911,0.426155 0,0.270933 -0.200377,0.414866 -0.197556,0.141111 -0.527756,0.141111 -0.259644,0 -0.42051,-0.06491 -0.158045,-0.06773 -0.158045,-0.174977 0,-0.05927 0.03951,-0.09878 0.04233,-0.04233 0.1016,-0.04233 z"
         id="path8380" />
      <path
         d="m 83.357554,91.11453 q 0,-0.143933 0.186267,-0.143933 h 0.256822 q 0.189089,0 0.189089,0.141111 0,0.06209 -0.03951,0.1016 -0.03951,0.03951 -0.110067,0.03951 l -0.372533,0.310444 0.428977,0.358422 q 0.07056,0 0.110067,0.03951 0.04233,0.03669 0.04233,0.1016 0,0.141111 -0.186266,0.141111 h -0.316089 q -0.189089,0 -0.189089,-0.143933 0,-0.107245 0.112889,-0.138289 l -0.211666,-0.172155 -0.206022,0.172155 q 0.107244,0.04516 0.107244,0.138289 0,0.143933 -0.186267,0.143933 h -0.313266 q -0.186267,0 -0.186267,-0.141111 0,-0.06491 0.03951,-0.1016 0.04233,-0.03951 0.112889,-0.03951 l 0.409222,-0.361244 -0.361244,-0.307622 q -0.06773,0 -0.107244,-0.03951 -0.03951,-0.03951 -0.03951,-0.1016 0,-0.141111 0.186266,-0.141111 h 0.259644 q 0.186267,0 0.186267,0.138289 0,0.08184 -0.07338,0.129822 l 0.172156,0.138289 0.172155,-0.141111 q -0.07338,-0.0508 -0.07338,-0.121356 z"
         id="path8382" />
      <path
         d="m 82.74231,94.68746 q 0.03387,0 0.06209,0.01693 0.02822,0.01411 0.0508,0.03387 0.0254,0.01693 0.107244,0.03387 0.08185,0.01411 0.208845,0.01411 0.217311,0 0.335844,-0.06209 0.118533,-0.06209 0.118533,-0.214488 0,-0.127 -0.127,-0.208845 -0.127,-0.08467 -0.304799,-0.08467 -0.06773,0 -0.107245,-0.03387 -0.03951,-0.03669 -0.03951,-0.09596 0,-0.06209 0.03951,-0.1016 0.04233,-0.03951 0.107245,-0.03951 0.36971,0 0.36971,-0.222956 0,-0.09878 -0.08467,-0.155222 -0.08467,-0.05927 -0.231422,-0.05927 -0.110067,0 -0.183445,0.02822 -0.07055,0.0254 -0.09878,0.05927 -0.0254,0.03105 -0.06209,0.05927 -0.03387,0.0254 -0.08185,0.0254 -0.05644,0 -0.09878,-0.04233 -0.03951,-0.04233 -0.03951,-0.09878 0,-0.121356 0.1778,-0.217311 0.177799,-0.09596 0.403577,-0.09596 0.1524,0 0.268111,0.04798 0.118533,0.04798 0.183444,0.124178 0.06491,0.0762 0.09596,0.158044 0.03387,0.08185 0.03387,0.160867 0,0.115711 -0.05927,0.2032 -0.05927,0.08467 -0.197556,0.166511 0.318911,0.155222 0.318911,0.426155 0,0.270933 -0.200377,0.414866 -0.197556,0.141111 -0.527756,0.141111 -0.259644,0 -0.42051,-0.06491 -0.158045,-0.06773 -0.158045,-0.174978 0,-0.05927 0.03951,-0.09878 0.04233,-0.04233 0.1016,-0.04233 z"
         id="path8384" />
    </g>
    <g
       aria-label="BatchNorm"
       id="text306-3"
       style="font-weight:bold;font-size:2.82222px;line-height:1.25;font-family:'Tlwg Typewriter';-inkscape-font-specification:'Tlwg Typewriter Bold';text-align:center;letter-spacing:0px;word-spacing:0px;writing-mode:tb-rl;text-orientation:upright;white-space:pre;display:inline;fill:#ffffff;stroke-width:0.264583">
      <path
         d="m 94.007632,71.038667 q -0.186267,0 -0.186267,-0.141111 0,-0.141111 0.186267,-0.141111 h 0.04233 v -1.08091 h -0.04233 q -0.186267,0 -0.186267,-0.141111 0,-0.141111 0.186267,-0.141111 h 0.714021 q 0.239889,0 0.395111,0.132644 0.158044,0.132645 0.158044,0.333022 0,0.180623 -0.1778,0.318911 0.299156,0.149578 0.299156,0.409222 0,0.2032 -0.1524,0.327378 -0.1524,0.124177 -0.403578,0.124177 z m 0.324555,-0.965199 h 0.318911 q 0.1524,0 0.245533,-0.05927 0.09596,-0.06209 0.09596,-0.158045 0,-0.08467 -0.0762,-0.132644 -0.0762,-0.04798 -0.208844,-0.04798 h -0.375355 z m 0.781755,0.530578 q 0,-0.09031 -0.09596,-0.169334 -0.09595,-0.07902 -0.304799,-0.07902 h -0.381 v 0.400755 h 0.493888 q 0.287867,0 0.287867,-0.152399 z"
         id="path8415" />
      <path
         d="m 94.617231,72.87311 q -0.112889,0 -0.262466,0.03387 -0.146756,0.03105 -0.1778,0.03105 -0.05927,0 -0.09878,-0.03951 -0.03951,-0.04233 -0.03951,-0.104422 0,-0.09031 0.08467,-0.118533 0.239888,-0.08467 0.485421,-0.08467 0.259645,0 0.4064,0.110067 0.149578,0.110067 0.149578,0.307622 v 0.570089 h 0.04515 q 0.186267,0 0.186267,0.141111 0,0.141111 -0.186267,0.141111 h -0.330199 v -0.06491 q -0.211667,0.110067 -0.468489,0.110067 -0.208844,0 -0.358422,-0.110067 -0.149578,-0.112888 -0.149578,-0.270933 0,-0.183444 0.180622,-0.330199 0.183445,-0.146756 0.502356,-0.146756 0.127,0 0.293511,0.02822 v -0.06491 q 0,-0.138289 -0.262467,-0.138289 z m 0.265289,0.606778 v -0.141111 q -0.1778,-0.03104 -0.313267,-0.03104 -0.143933,0 -0.256822,0.06209 -0.110066,0.06209 -0.110066,0.143933 0,0.04798 0.06209,0.07902 0.06209,0.03104 0.152399,0.03104 0.231422,0 0.465667,-0.143933 z"
         id="path8417" />
      <path
         d="m 94.631342,76.446041 q 0.138289,0 0.245533,-0.03104 0.107245,-0.03104 0.169334,-0.06209 0.06209,-0.03387 0.09595,-0.03387 0.05644,0 0.09596,0.04233 0.03951,0.04233 0.03951,0.1016 0,0.0508 -0.03105,0.08467 -0.03104,0.03105 -0.110066,0.06773 -0.1016,0.04798 -0.251178,0.07902 -0.146755,0.03387 -0.256822,0.03387 -0.239889,0 -0.381,-0.104422 -0.141111,-0.104422 -0.141111,-0.285044 V 75.73202 h -0.09878 q -0.186267,0 -0.186267,-0.141111 0,-0.141111 0.186267,-0.141111 h 0.09878 v -0.248356 q 0,-0.186266 0.141111,-0.186266 0.141111,0 0.141111,0.186266 v 0.248356 h 0.510822 q 0.186267,0 0.186267,0.141111 0,0.141111 -0.186267,0.141111 h -0.510822 v 0.553155 q 0,0.1016 0.05362,0.132644 0.05362,0.02822 0.189089,0.02822 z"
         id="path8419" />
      <path
         d="m 94.659564,78.517551 q -0.200377,0 -0.321733,0.112889 -0.118533,0.110067 -0.118533,0.290689 0,0.347133 0.496711,0.347133 0.05927,0 0.110066,-0.0028 0.0508,-0.0056 0.08749,-0.0085 0.03669,-0.0056 0.07056,-0.01693 0.03387,-0.01129 0.0508,-0.01693 0.01976,-0.0056 0.04233,-0.01976 0.0254,-0.01693 0.03104,-0.01976 0.0085,-0.0056 0.0254,-0.02258 l 0.01976,-0.01693 q 0.03669,-0.03387 0.08467,-0.03387 0.05644,0 0.09878,0.04233 0.04233,0.04233 0.04233,0.1016 0,0.112888 -0.180622,0.206022 -0.186266,0.09031 -0.502355,0.09031 -0.189089,0 -0.333022,-0.04516 -0.141111,-0.04798 -0.220133,-0.115711 -0.07902,-0.06773 -0.129822,-0.158044 -0.04798,-0.09031 -0.06209,-0.163689 -0.01411,-0.07338 -0.01411,-0.146755 0,-0.301978 0.200378,-0.493889 0.203199,-0.191911 0.52211,-0.191911 0.242711,0 0.4064,0.08467 0.0254,-0.08467 0.107244,-0.08467 0.135467,0 0.135467,0.186267 v 0.217311 q 0,0.186266 -0.141111,0.186266 -0.06491,0 -0.09878,-0.03104 -0.03104,-0.03104 -0.04516,-0.104422 -0.01411,-0.06773 -0.06491,-0.1016 -0.115711,-0.07056 -0.299156,-0.07056 z"
         id="path8421" />
      <path
         d="m 94.335009,80.566483 v 0.663221 q 0.169333,-0.172155 0.386644,-0.172155 0.225778,0 0.361244,0.129822 0.138289,0.127 0.138289,0.338667 v 0.519288 q 0.104422,0 0.1524,0.03104 0.0508,0.03105 0.0508,0.110067 0,0.141111 -0.186267,0.141111 h -0.316088 q -0.189089,0 -0.189089,-0.141111 0,-0.0762 0.0508,-0.107244 0.0508,-0.03387 0.155222,-0.03387 v -0.4826 q 0,-0.124177 -0.06209,-0.172155 -0.05927,-0.0508 -0.186266,-0.0508 -0.09878,0 -0.166511,0.03669 -0.06773,0.03669 -0.189089,0.1524 v 0.516466 q 0.107244,0 0.155222,0.03104 0.0508,0.03105 0.0508,0.110067 0,0.141111 -0.189089,0.141111 h -0.316088 q -0.186267,0 -0.186267,-0.141111 0,-0.07902 0.04798,-0.110067 0.0508,-0.03104 0.155222,-0.03104 v -1.196621 h -0.04515 q -0.186267,0 -0.186267,-0.141111 0,-0.141111 0.186267,-0.141111 z"
         id="path8423" />
      <path
         d="m 94.27292,84.037812 v 0.829733 h 0.09878 q 0.186266,0 0.186266,0.141111 0,0.141111 -0.186266,0.141111 h -0.364066 q -0.189089,0 -0.189089,-0.141111 0,-0.141111 0.172155,-0.141111 v -1.08091 h -0.04233 q -0.186267,0 -0.186267,-0.141111 0,-0.141111 0.186267,-0.141111 h 0.324555 l 0.728133,1.10631 v -0.824088 h -0.09878 q -0.186266,0 -0.186266,-0.141111 0,-0.141111 0.186266,-0.141111 h 0.366889 q 0.186266,0 0.186266,0.141111 0,0.141111 -0.172155,0.141111 v 1.363132 h -0.2794 z"
         id="path8425" />
      <path
         d="m 94.639809,86.70199 q 0.299155,0 0.507999,0.191911 0.211667,0.191911 0.211667,0.465666 0,0.276577 -0.211667,0.468488 -0.211666,0.189089 -0.516466,0.189089 -0.3048,0 -0.516466,-0.189089 -0.211667,-0.191911 -0.211667,-0.468488 0,-0.2794 0.211667,-0.468489 0.211666,-0.189088 0.524933,-0.189088 z m -0.0028,0.282222 q -0.191911,0 -0.321733,0.107244 -0.129823,0.107244 -0.129823,0.268111 0,0.158044 0.127,0.268111 0.129822,0.107244 0.318911,0.107244 0.189089,0 0.316089,-0.107244 0.129822,-0.110067 0.129822,-0.268111 0,-0.158044 -0.129822,-0.265289 -0.127,-0.110066 -0.310444,-0.110066 z"
         id="path8427" />
      <path
         d="m 95.255053,89.910854 q -0.0508,0 -0.110067,-0.0508 -0.05644,-0.0508 -0.110066,-0.0508 -0.06773,0 -0.166511,0.06209 -0.09596,0.05927 -0.299156,0.225777 v 0.414867 h 0.392289 q 0.189089,0 0.189089,0.141111 0,0.141111 -0.189089,0.141111 h -0.838199 q -0.186267,0 -0.186267,-0.141111 0,-0.141111 0.186267,-0.141111 h 0.163688 V 89.84312 h -0.09878 q -0.186267,0 -0.186267,-0.141111 0,-0.141111 0.186267,-0.141111 h 0.380999 v 0.183445 q 0.169334,-0.127 0.268111,-0.172156 0.09878,-0.04515 0.2032,-0.04515 0.107244,0 0.231422,0.07338 0.124178,0.07056 0.124178,0.166511 0,0.05927 -0.04233,0.1016 -0.04233,0.04233 -0.09878,0.04233 z"
         id="path8429" />
      <path
         d="m 93.731054,92.524229 q 0,-0.141111 0.189089,-0.141111 h 0.262466 v 0.06773 q 0.129822,-0.104422 0.239889,-0.104422 0.160866,0 0.287866,0.138289 0.127,-0.138289 0.293511,-0.138289 0.158045,0 0.262467,0.107245 0.107244,0.104422 0.107244,0.262466 v 0.618066 q 0.169333,0 0.169333,0.141111 0,0.141111 -0.186266,0.141111 h -0.265289 v -0.87771 q 0,-0.06209 -0.02258,-0.08467 -0.01976,-0.0254 -0.0762,-0.0254 -0.05644,0 -0.1016,0.0254 -0.04233,0.0254 -0.112888,0.1016 V 93.3342 q 0.07902,0 0.124177,0.03951 0.04516,0.03669 0.04516,0.1016 0,0.141111 -0.186267,0.141111 h -0.265288 v -0.87771 q 0,-0.05927 -0.02258,-0.08467 -0.02258,-0.0254 -0.0762,-0.0254 -0.1016,0 -0.214489,0.127 v 0.578555 q 0.172156,0 0.172156,0.141111 0,0.141111 -0.186267,0.141111 h -0.248355 q -0.189089,0 -0.189089,-0.141111 0,-0.141111 0.169333,-0.141111 V 92.66534 q -0.169333,-0.0056 -0.169333,-0.141111 z"
         id="path8431" />
    </g>
    <g
       aria-label="Conv2d 3x3"
       id="text306-5-6"
       style="font-weight:bold;font-size:2.82222px;line-height:1.25;font-family:'Tlwg Typewriter';-inkscape-font-specification:'Tlwg Typewriter Bold';text-align:center;letter-spacing:0px;word-spacing:0px;writing-mode:tb-rl;text-orientation:upright;white-space:pre;display:inline;fill:#ffffff;stroke-width:0.264583">
      <path
         d="m 117.52258,68.037236 0.0282,0.01129 q 0.048,-0.06773 0.11854,-0.06773 0.14111,0 0.14111,0.186266 v 0.237067 q 0,0.186266 -0.14111,0.186266 -0.0649,0 -0.0931,-0.03387 -0.0282,-0.03387 -0.0452,-0.115711 -0.0198,-0.09878 -0.14111,-0.158045 -0.11854,-0.05927 -0.25683,-0.05927 -0.21448,0 -0.3556,0.146755 -0.14111,0.143933 -0.14111,0.366889 v 0.180622 q 0,0.211666 0.14958,0.338666 0.1524,0.127 0.4064,0.127 0.0734,0 0.13264,-0.0085 0.0621,-0.01129 0.0988,-0.01975 0.0367,-0.01129 0.0734,-0.03387 0.0395,-0.0254 0.0508,-0.03387 0.0113,-0.01129 0.0367,-0.03951 l 0.0254,-0.0254 q 0.0452,-0.04516 0.1016,-0.04516 0.0564,0 0.0988,0.04233 0.0423,0.04233 0.0423,0.09878 0,0.118533 -0.18909,0.234244 -0.18909,0.112889 -0.47978,0.112889 -0.35842,0 -0.59548,-0.208844 -0.23425,-0.211667 -0.23425,-0.5334 v -0.186266 q 0,-0.338667 0.22013,-0.567266 0.22014,-0.2286 0.54752,-0.2286 0.19755,0 0.40075,0.09595 z"
         id="path8443" />
      <path
         d="m 117.11618,71.178367 q 0.29916,0 0.508,0.191911 0.21167,0.191911 0.21167,0.465666 0,0.276578 -0.21167,0.468489 -0.21167,0.189089 -0.51647,0.189089 -0.3048,0 -0.51646,-0.189089 -0.21167,-0.191911 -0.21167,-0.468489 0,-0.279399 0.21167,-0.468488 0.21166,-0.189089 0.52493,-0.189089 z m -0.003,0.282222 q -0.19191,0 -0.32173,0.107244 -0.12983,0.107245 -0.12983,0.268111 0,0.158045 0.127,0.268111 0.12983,0.107245 0.31891,0.107245 0.18909,0 0.31609,-0.107245 0.12982,-0.110066 0.12982,-0.268111 0,-0.158044 -0.12982,-0.265288 -0.127,-0.110067 -0.31044,-0.110067 z"
         id="path8445" />
      <path
         d="m 116.357,74.178387 q 0,-0.141111 0.18909,-0.141111 h 0.26529 v 0.135466 q 0.1016,-0.09596 0.18627,-0.132644 0.0847,-0.03951 0.20037,-0.03951 0.22014,0 0.36125,0.124178 0.14111,0.124177 0.14111,0.349955 v 0.513644 q 0.17216,0 0.17216,0.141111 0,0.141111 -0.18627,0.141111 h -0.25118 q -0.18909,0 -0.18909,-0.141111 0,-0.141111 0.17216,-0.141111 V 74.48601 q 0,-0.2032 -0.254,-0.2032 -0.0988,0 -0.1778,0.04233 -0.0762,0.04233 -0.17498,0.149578 v 0.513644 h 0.0169 q 0.18627,0 0.18627,0.141111 0,0.141111 -0.18627,0.141111 h -0.31608 q -0.18627,0 -0.18627,-0.141111 0,-0.141111 0.18627,-0.141111 h 0.0169 v -0.668866 q -0.17216,-0.0056 -0.17216,-0.141111 z"
         id="path8447" />
      <path
         d="m 117.11336,77.748496 0.30198,-0.606777 q -0.11007,0 -0.16369,-0.03104 -0.0508,-0.03104 -0.0508,-0.110066 0,-0.141111 0.18626,-0.141111 h 0.381 q 0.18627,0 0.18627,0.141111 0,0.141111 -0.18627,0.141111 h -0.0451 l -0.47131,0.951088 h -0.29351 l -0.47131,-0.951088 h -0.0395 q -0.18626,0 -0.18626,-0.141111 0,-0.141111 0.18626,-0.141111 h 0.37254 q 0.18626,0 0.18626,0.141111 0,0.141111 -0.20037,0.141111 z"
         id="path8449" />
      <path
         d="m 117.68062,79.661961 q 0,0.183444 -0.13264,0.3302 -0.12982,0.146755 -0.70273,0.640644 h 0.56726 q 0.0113,-0.1524 0.14111,-0.1524 0.14112,0 0.14112,0.186266 v 0.248356 h -1.28129 v -0.296333 q 0.4572,-0.378178 0.65193,-0.550333 0.19473,-0.172156 0.26247,-0.259645 0.0705,-0.08749 0.0705,-0.158044 0,-0.107244 -0.0931,-0.180622 -0.0931,-0.07338 -0.23142,-0.07338 -0.17498,0 -0.27376,0.115711 -0.0254,0.03105 -0.048,0.09031 -0.0198,0.05927 -0.048,0.09031 -0.0282,0.03105 -0.0931,0.03105 -0.0564,0 -0.0988,-0.03951 -0.0423,-0.04233 -0.0423,-0.09596 0,-0.05927 0.0367,-0.135466 0.0367,-0.0762 0.10725,-0.1524 0.0706,-0.07902 0.19191,-0.132645 0.12417,-0.05362 0.27375,-0.05362 0.25682,0 0.42898,0.158045 0.17215,0.155222 0.17215,0.389466 z"
         id="path8451" />
      <path
         d="m 116.35418,83.119179 q 0,-0.166511 0.0706,-0.310444 0.0734,-0.143933 0.23706,-0.242711 0.16369,-0.1016 0.39229,-0.1016 0.24553,0 0.42333,0.141111 V 82.25558 h -0.0451 q -0.18627,0 -0.18627,-0.141111 0,-0.138289 0.18627,-0.138289 h 0.32738 v 1.478844 h 0.0452 q 0.18627,0 0.18627,0.141111 0,0.141111 -0.18627,0.141111 h -0.32738 v -0.09878 q -0.2032,0.138289 -0.42615,0.138289 -0.33584,0 -0.51647,-0.197556 -0.18062,-0.197555 -0.18062,-0.460022 z m 1.12324,0.0056 q 0,-0.05645 -0.0198,-0.115711 -0.0198,-0.06209 -0.0649,-0.121356 -0.0423,-0.06209 -0.13265,-0.1016 -0.0875,-0.03951 -0.20602,-0.03951 -0.11853,0 -0.20602,0.03951 -0.0847,0.03951 -0.12982,0.1016 -0.0423,0.06209 -0.0621,0.121356 -0.0198,0.05644 -0.0198,0.110066 0,0.160867 0.11571,0.268111 0.11854,0.107245 0.3048,0.107245 0.11854,0 0.20603,-0.03951 0.0875,-0.03951 0.12982,-0.1016 0.0452,-0.06209 0.0649,-0.118534 0.0198,-0.05927 0.0198,-0.110066 z"
         id="path8453" />
      <path
         d="m 116.58843,89.043021 q 0.0339,0 0.0621,0.01693 0.0282,0.01411 0.0508,0.03387 0.0254,0.01693 0.10725,0.03387 0.0818,0.01411 0.20884,0.01411 0.21731,0 0.33585,-0.06209 0.11853,-0.06209 0.11853,-0.214489 0,-0.127 -0.127,-0.208844 -0.127,-0.08467 -0.3048,-0.08467 -0.0677,0 -0.10724,-0.03387 -0.0395,-0.03669 -0.0395,-0.09595 0,-0.06209 0.0395,-0.1016 0.0423,-0.03951 0.10724,-0.03951 0.36971,0 0.36971,-0.222956 0,-0.09878 -0.0847,-0.155222 -0.0847,-0.05927 -0.23142,-0.05927 -0.11006,0 -0.18344,0.02822 -0.0706,0.0254 -0.0988,0.05927 -0.0254,0.03104 -0.0621,0.05927 -0.0339,0.0254 -0.0818,0.0254 -0.0564,0 -0.0988,-0.04233 -0.0395,-0.04233 -0.0395,-0.09878 0,-0.121355 0.1778,-0.217311 0.1778,-0.09595 0.40358,-0.09595 0.1524,0 0.26811,0.04798 0.11853,0.04798 0.18344,0.124178 0.0649,0.0762 0.096,0.158044 0.0339,0.08185 0.0339,0.160867 0,0.115711 -0.0593,0.2032 -0.0593,0.08467 -0.19756,0.166511 0.31891,0.155222 0.31891,0.426155 0,0.270933 -0.20038,0.414866 -0.19755,0.141111 -0.52775,0.141111 -0.25964,0 -0.42051,-0.06491 -0.15805,-0.06773 -0.15805,-0.174977 0,-0.05927 0.0395,-0.09878 0.0423,-0.04233 0.1016,-0.04233 z"
         id="path8455" />
      <path
         d="m 117.20367,91.11453 q 0,-0.143933 0.18627,-0.143933 h 0.25682 q 0.18909,0 0.18909,0.141111 0,0.06209 -0.0395,0.1016 -0.0395,0.03951 -0.11007,0.03951 l -0.37253,0.310444 0.42897,0.358422 q 0.0706,0 0.11007,0.03951 0.0423,0.03669 0.0423,0.1016 0,0.141111 -0.18626,0.141111 h -0.31609 q -0.18909,0 -0.18909,-0.143933 0,-0.107245 0.11289,-0.138289 l -0.21167,-0.172155 -0.20602,0.172155 q 0.10724,0.04516 0.10724,0.138289 0,0.143933 -0.18626,0.143933 h -0.31327 q -0.18627,0 -0.18627,-0.141111 0,-0.06491 0.0395,-0.1016 0.0423,-0.03951 0.11288,-0.03951 l 0.40923,-0.361244 -0.36125,-0.307622 q -0.0677,0 -0.10724,-0.03951 -0.0395,-0.03951 -0.0395,-0.1016 0,-0.141111 0.18626,-0.141111 h 0.25965 q 0.18626,0 0.18626,0.138289 0,0.08184 -0.0734,0.129822 l 0.17215,0.138289 0.17216,-0.141111 q -0.0734,-0.0508 -0.0734,-0.121356 z"
         id="path8457" />
      <path
         d="m 116.58843,94.68746 q 0.0339,0 0.0621,0.01693 0.0282,0.01411 0.0508,0.03387 0.0254,0.01693 0.10725,0.03387 0.0818,0.01411 0.20884,0.01411 0.21731,0 0.33585,-0.06209 0.11853,-0.06209 0.11853,-0.214488 0,-0.127 -0.127,-0.208845 -0.127,-0.08467 -0.3048,-0.08467 -0.0677,0 -0.10724,-0.03387 -0.0395,-0.03669 -0.0395,-0.09596 0,-0.06209 0.0395,-0.1016 0.0423,-0.03951 0.10724,-0.03951 0.36971,0 0.36971,-0.222956 0,-0.09878 -0.0847,-0.155222 -0.0847,-0.05927 -0.23142,-0.05927 -0.11006,0 -0.18344,0.02822 -0.0706,0.0254 -0.0988,0.05927 -0.0254,0.03105 -0.0621,0.05927 -0.0339,0.0254 -0.0818,0.0254 -0.0564,0 -0.0988,-0.04233 -0.0395,-0.04233 -0.0395,-0.09878 0,-0.121356 0.1778,-0.217311 0.1778,-0.09596 0.40358,-0.09596 0.1524,0 0.26811,0.04798 0.11853,0.04798 0.18344,0.124178 0.0649,0.0762 0.096,0.158044 0.0339,0.08185 0.0339,0.160867 0,0.115711 -0.0593,0.2032 -0.0593,0.08467 -0.19756,0.166511 0.31891,0.155222 0.31891,0.426155 0,0.270933 -0.20038,0.414866 -0.19755,0.141111 -0.52775,0.141111 -0.25964,0 -0.42051,-0.06491 -0.15805,-0.06773 -0.15805,-0.174978 0,-0.05927 0.0395,-0.09878 0.0423,-0.04233 0.1016,-0.04233 z"
         id="path8459" />
    </g>
    <g
       aria-label="S&amp;E"
       id="text306-5-6-8"
       style="font-weight:bold;font-size:2.82222px;line-height:1.25;font-family:'Tlwg Typewriter';-inkscape-font-specification:'Tlwg Typewriter Bold';text-align:center;letter-spacing:0px;word-spacing:0px;writing-mode:tb-rl;text-orientation:upright;white-space:pre;display:inline;fill:#ffffff;stroke-width:0.264583">
      <path
         d="m 128.93895,77.999488 v 0.248355 q 0,0.189089 -0.13829,0.189089 -0.031,0 -0.0564,-0.0085 -0.0226,-0.01129 -0.0367,-0.02258 -0.0113,-0.01129 -0.0226,-0.03105 -0.0113,-0.02258 -0.0141,-0.03387 -0.003,-0.01129 -0.008,-0.03104 -0.003,-0.02258 -0.003,-0.0254 -0.0198,-0.08467 -0.11289,-0.135467 -0.0903,-0.05362 -0.22296,-0.05362 -0.13264,0 -0.22577,0.06209 -0.0931,0.06209 -0.0931,0.1524 0,0.05644 0.0282,0.09878 0.0311,0.03951 0.096,0.06491 0.0649,0.02258 0.10442,0.03387 0.0423,0.01129 0.12418,0.0254 0.10724,0.01976 0.18627,0.04233 0.0818,0.01976 0.17215,0.05927 0.0903,0.03951 0.14676,0.09313 0.0593,0.0508 0.0959,0.132644 0.0395,0.08184 0.0395,0.186266 0,0.220134 -0.1778,0.3556 -0.1778,0.135467 -0.46849,0.135467 -0.23424,0 -0.44026,-0.110067 -0.0564,0.06773 -0.11289,0.06773 -0.14393,0 -0.14393,-0.186266 v -0.186267 q 0,-0.186266 0.14111,-0.186266 0.0198,0 0.0367,0.0056 0.0169,0.0028 0.031,0.01129 0.0141,0.0056 0.0226,0.01411 0.0113,0.0056 0.0169,0.01976 0.008,0.01129 0.0141,0.01976 0.006,0.0085 0.008,0.01976 0.006,0.01129 0.006,0.01976 0.003,0.0056 0.006,0.01693 l 0.003,0.0085 q 0.0198,0.0762 0.13547,0.129823 0.11571,0.05362 0.25682,0.05362 0.15804,0 0.26529,-0.06209 0.10724,-0.06209 0.10724,-0.1524 0,-0.07055 -0.0621,-0.115711 -0.0593,-0.04798 -0.11853,-0.06209 -0.0593,-0.01693 -0.19473,-0.04233 -0.0198,-0.0028 -0.0282,-0.0056 -0.12982,-0.0254 -0.22295,-0.05362 -0.0903,-0.03104 -0.18344,-0.08467 -0.0903,-0.05645 -0.13829,-0.146756 -0.0452,-0.09313 -0.0452,-0.217311 0,-0.214488 0.17498,-0.355599 0.17498,-0.143934 0.43744,-0.143934 0.21731,0 0.36689,0.09313 0.0226,-0.05362 0.0452,-0.07338 0.0226,-0.01976 0.0649,-0.01976 0.13829,0 0.13829,0.186267 z"
         id="path8462" />
      <path
         d="m 128.50997,81.761507 0.0649,-0.231422 h 0.14958 q 0.18626,0 0.18626,0.143933 0,0.05362 -0.0367,0.09313 -0.0339,0.03951 -0.0847,0.04516 -0.0395,0.146756 -0.0847,0.225778 h 0.0226 q 0.18627,0 0.18627,0.141111 0,0.141111 -0.18627,0.141111 h -0.17216 l -0.031,-0.04233 q -0.11571,0.08185 -0.31891,0.08185 -0.23424,0 -0.37536,-0.121356 -0.13828,-0.121355 -0.13828,-0.324555 0,-0.290689 0.27093,-0.448733 -0.096,-0.163689 -0.096,-0.270933 0,-0.172155 0.127,-0.299155 0.12983,-0.127 0.30198,-0.127 0.0931,0 0.19756,0.04798 0.0593,-0.01976 0.079,-0.01976 0.0536,0 0.0931,0.04516 0.0423,0.04233 0.0423,0.09596 0,0.04798 -0.0254,0.07902 -0.0226,0.02822 -0.0903,0.06773 l -0.11571,0.06209 q -0.10724,-0.09596 -0.1778,-0.09596 -0.0621,0 -0.10724,0.04233 -0.0423,0.03951 -0.0423,0.09878 0,0.04798 0.079,0.160866 z m -0.14958,0.276578 -0.23706,-0.338667 q -0.14958,0.06773 -0.14958,0.214489 0,0.163689 0.23142,0.163689 0.0875,0 0.15522,-0.03951 z"
         id="path8464" />
      <path
         d="m 128.40555,83.968484 q 0.14111,0 0.14111,0.189088 v 0.318911 q 0,0.186267 -0.13829,0.186267 -0.14111,0 -0.14111,-0.186267 v -0.01976 h -0.23989 V 84.8603 h 0.72249 v -0.14675 q 0,-0.189089 0.14111,-0.189089 0.14111,0 0.14111,0.189089 v 0.428977 h -1.32927 q -0.18626,0 -0.18626,-0.141111 0,-0.141111 0.18626,-0.141111 h 0.0423 v -1.08091 h -0.0423 q -0.18626,0 -0.18626,-0.141111 0,-0.141111 0.18626,-0.141111 h 1.26718 v 0.423333 q 0,0.189089 -0.14111,0.189089 -0.14111,0 -0.14111,-0.189089 v -0.141111 h -0.6604 v 0.397933 h 0.23989 v -0.01976 q 0,-0.189088 0.13829,-0.189088 z"
         id="path8466" />
    </g>
    <g
       aria-label="Skip Cell"
       id="text306-3-7"
       style="font-weight:bold;font-size:2.82222px;line-height:1.25;font-family:'Tlwg Typewriter';-inkscape-font-specification:'Tlwg Typewriter Bold';text-align:center;letter-spacing:0px;word-spacing:0px;writing-mode:tb-rl;text-orientation:upright;white-space:pre;display:inline;fill:#ffffff;stroke-width:0.264583"
       transform="translate(2.0091858e-6,-2.1009216e-5)">
      <path
         d="m 95.236897,107.76768 v 0.24836 q 0,0.18909 -0.138288,0.18909 -0.03104,0 -0.05644,-0.008 -0.02258,-0.0113 -0.03669,-0.0226 -0.01129,-0.0113 -0.02258,-0.031 -0.01129,-0.0226 -0.01411,-0.0339 -0.0028,-0.0113 -0.0085,-0.031 -0.0028,-0.0226 -0.0028,-0.0254 -0.01976,-0.0847 -0.112889,-0.13547 -0.09031,-0.0536 -0.222956,-0.0536 -0.132644,0 -0.225777,0.0621 -0.09313,0.0621 -0.09313,0.1524 0,0.0564 0.02822,0.0988 0.03104,0.0395 0.09595,0.0649 0.06491,0.0226 0.104422,0.0339 0.04233,0.0113 0.124178,0.0254 0.107244,0.0198 0.186267,0.0423 0.08184,0.0198 0.172155,0.0593 0.09031,0.0395 0.146756,0.0931 0.05927,0.0508 0.09596,0.13264 0.03951,0.0819 0.03951,0.18627 0,0.22013 -0.1778,0.3556 -0.1778,0.13546 -0.468488,0.13546 -0.234245,0 -0.440267,-0.11006 -0.05644,0.0677 -0.112888,0.0677 -0.143934,0 -0.143934,-0.18627 v -0.18626 q 0,-0.18627 0.141111,-0.18627 0.01976,0 0.03669,0.006 0.01693,0.003 0.03104,0.0113 0.01411,0.006 0.02258,0.0141 0.01129,0.006 0.01693,0.0198 0.0085,0.0113 0.01411,0.0198 0.0056,0.008 0.0085,0.0198 0.0056,0.0113 0.0056,0.0198 0.0028,0.006 0.0056,0.0169 l 0.0028,0.008 q 0.01976,0.0762 0.135466,0.12982 0.115711,0.0536 0.256822,0.0536 0.158044,0 0.265289,-0.0621 0.107244,-0.0621 0.107244,-0.1524 0,-0.0705 -0.06209,-0.11571 -0.05927,-0.048 -0.118533,-0.0621 -0.05927,-0.0169 -0.194733,-0.0423 -0.01976,-0.003 -0.02822,-0.006 -0.129822,-0.0254 -0.222956,-0.0536 -0.09031,-0.031 -0.183444,-0.0847 -0.09031,-0.0564 -0.138289,-0.14676 -0.04516,-0.0931 -0.04516,-0.21731 0,-0.21449 0.174977,-0.3556 0.174978,-0.14393 0.437444,-0.14393 0.217311,0 0.366889,0.0931 0.02258,-0.0536 0.04516,-0.0734 0.02258,-0.0198 0.06491,-0.0198 0.138288,0 0.138288,0.18626 z"
         id="path8948" />
      <path
         d="m 94.384587,111.62566 v 0.46284 h -0.327378 q -0.186266,0 -0.186266,-0.14111 0,-0.14111 0.186266,-0.14111 h 0.04516 v -1.19662 h -0.04516 q -0.186266,0 -0.186266,-0.14111 0,-0.14111 0.186266,-0.14111 h 0.327378 v 0.95109 l 0.222955,-0.1778 q -0.04515,-0.0536 -0.04515,-0.10443 0,-0.14111 0.189089,-0.14111 h 0.316088 q 0.186267,0 0.186267,0.14111 0,0.14111 -0.186267,0.14111 h -0.07902 l -0.333022,0.27094 0.451555,0.39793 h 0.09313 q 0.189088,0 0.189088,0.14111 0,0.14111 -0.189088,0.14111 H 94.86719 q -0.186267,0 -0.186267,-0.14111 0,-0.0564 0.04516,-0.10442 l -0.290689,-0.25682 z"
         id="path8950" />
      <path
         d="m 94.139054,114.91072 q -0.186267,0 -0.186267,-0.14111 0,-0.14111 0.186267,-0.14111 h 0.344311 v -0.66887 h -0.220133 q -0.189089,0 -0.189089,-0.14111 0,-0.14111 0.189089,-0.14111 h 0.502355 v 0.95109 h 0.344311 q 0.186266,0 0.186266,0.14111 0,0.14111 -0.186266,0.14111 z m 0.587022,-1.75824 v 0.29633 h -0.333022 v -0.29633 z"
         id="path8952" />
      <path
         d="m 94.268876,117.54668 v 0.4826 h 0.163689 q 0.186266,0 0.186266,0.14111 0,0.14111 -0.186266,0.14111 h -0.491067 q -0.186266,0 -0.186266,-0.14111 0,-0.14111 0.186266,-0.14111 h 0.04516 v -1.24742 h -0.04516 q -0.186266,0 -0.186266,-0.14112 0,-0.14111 0.186266,-0.14111 h 0.327378 v 0.127 q 0.191911,-0.16369 0.4318,-0.16369 0.296333,0 0.491066,0.18345 0.197555,0.18062 0.197555,0.45438 0,0.25964 -0.194733,0.4318 -0.194733,0.17215 -0.488244,0.17215 -0.231422,0 -0.437444,-0.15804 z m 0.838199,-0.46285 q 0,-0.12135 -0.104422,-0.2286 -0.1016,-0.11006 -0.313266,-0.11006 -0.217311,0 -0.318911,0.11006 -0.1016,0.11007 -0.1016,0.22578 0,0.14958 0.115711,0.24553 0.118533,0.096 0.3048,0.096 0.183444,0 0.299155,-0.096 0.118533,-0.0959 0.118533,-0.24271 z"
         id="path8954" />
      <path
         d="m 95.039342,121.78847 0.02822,0.0113 q 0.04798,-0.0677 0.118534,-0.0677 0.141111,0 0.141111,0.18626 v 0.23707 q 0,0.18627 -0.141111,0.18627 -0.06491,0 -0.09313,-0.0339 -0.02822,-0.0339 -0.04515,-0.11571 -0.01976,-0.0988 -0.141111,-0.15804 -0.118534,-0.0593 -0.256822,-0.0593 -0.214489,0 -0.3556,0.14675 -0.141111,0.14394 -0.141111,0.36689 v 0.18063 q 0,0.21166 0.149578,0.33866 0.1524,0.127 0.406399,0.127 0.07338,0 0.132645,-0.008 0.06209,-0.0113 0.09878,-0.0198 0.03669,-0.0113 0.07338,-0.0339 0.03951,-0.0254 0.0508,-0.0339 0.01129,-0.0113 0.03669,-0.0395 l 0.0254,-0.0254 q 0.04516,-0.0451 0.1016,-0.0451 0.05644,0 0.09878,0.0423 0.04233,0.0423 0.04233,0.0988 0,0.11853 -0.189089,0.23424 -0.189089,0.11289 -0.479777,0.11289 -0.358422,0 -0.595489,-0.20884 -0.234244,-0.21167 -0.234244,-0.5334 v -0.18627 q 0,-0.33866 0.220133,-0.56726 0.220133,-0.2286 0.547511,-0.2286 0.197555,0 0.400755,0.096 z"
         id="path8956" />
      <path
         d="m 94.641409,125.96254 q 0.149578,0 0.333022,-0.0452 0.183444,-0.048 0.220133,-0.048 0.05644,0 0.09596,0.0423 0.03951,0.0395 0.03951,0.0988 0,0.0818 -0.09878,0.127 -0.09595,0.0423 -0.282222,0.0734 -0.183444,0.0339 -0.333022,0.0339 -0.327377,0 -0.536222,-0.18344 -0.208844,-0.18345 -0.208844,-0.47132 0,-0.2794 0.208844,-0.46848 0.211667,-0.19192 0.519289,-0.19192 0.316088,0 0.52211,0.19192 0.208845,0.19191 0.208845,0.4826 v 0.11006 h -1.151466 q 0.09595,0.24836 0.462844,0.24836 z m -0.454377,-0.49671 h 0.829732 q -0.03387,-0.11571 -0.146755,-0.18345 -0.112889,-0.0705 -0.268111,-0.0705 -0.155222,0 -0.270933,0.0705 -0.112889,0.0706 -0.143933,0.18345 z"
         id="path8958" />
      <path
         d="m 94.139054,129.02182 q -0.186267,0 -0.186267,-0.14111 0,-0.14111 0.186267,-0.14111 h 0.344311 v -1.19662 h -0.220133 q -0.189089,0 -0.189089,-0.14111 0,-0.14111 0.189089,-0.14111 h 0.502355 v 1.47884 h 0.344311 q 0.186266,0 0.186266,0.14111 0,0.14111 -0.186266,0.14111 z"
         id="path8960" />
      <path
         d="m 94.139054,131.84404 q -0.186267,0 -0.186267,-0.14111 0,-0.14111 0.186267,-0.14111 h 0.344311 v -1.19662 h -0.220133 q -0.189089,0 -0.189089,-0.14111 0,-0.14111 0.189089,-0.14111 h 0.502355 v 1.47884 h 0.344311 q 0.186266,0 0.186266,0.14111 0,0.14111 -0.186266,0.14111 z"
         id="path8962" />
    </g>
    <path
       style="fill:none;stroke:#000000;stroke-width:0.365;stroke-linecap:butt;stroke-linejoin:miter;stroke-dasharray:none;stroke-opacity:1;marker-end:url(#marker4508)"
       d="m 50.99305,81.979522 c 0.08124,12.064241 0.162468,24.128218 6.58367,30.160078 6.421201,6.03185 19.181595,6.03185 31.941981,6.03185"
       id="path3994"
       sodipodi:nodetypes="ccc"
       inkscape:original-d="m 50.99305,81.979522 c 0.0815,12.064239 0.162731,24.128218 0.2437,36.191928 12.761171,2.6e-4 25.521565,2.6e-4 38.281951,0"
       inkscape:path-effect="#path-effect3996" />
    <g
       aria-label="Swish"
       id="text23971-9-5"
       style="font-weight:bold;font-size:2.82222px;line-height:1.25;font-family:'Tlwg Typo';-inkscape-font-specification:'Tlwg Typo Bold';text-align:center;letter-spacing:0px;word-spacing:0px;writing-mode:tb-rl;text-orientation:upright;text-anchor:middle;white-space:pre;display:inline;fill:#ffffff;stroke-width:0.264583">
      <path
         d="m 72.696927,75.20426 v 0.248356 q 0,0.189088 -0.138289,0.189088 -0.03104,0 -0.05644,-0.0085 -0.02258,-0.01129 -0.03669,-0.02258 -0.01129,-0.01129 -0.02258,-0.03104 -0.01129,-0.02258 -0.01411,-0.03387 -0.0028,-0.01129 -0.0085,-0.03105 -0.0028,-0.02258 -0.0028,-0.0254 -0.01976,-0.08467 -0.112889,-0.135466 -0.09031,-0.05362 -0.222955,-0.05362 -0.132644,0 -0.225778,0.06209 -0.09313,0.06209 -0.09313,0.152399 0,0.05645 0.02822,0.09878 0.03105,0.03951 0.09596,0.06491 0.06491,0.02258 0.104422,0.03387 0.04233,0.01129 0.124178,0.0254 0.107244,0.01975 0.186266,0.04233 0.08185,0.01976 0.172156,0.05927 0.09031,0.03951 0.146755,0.09313 0.05927,0.0508 0.09596,0.132644 0.03951,0.08185 0.03951,0.186267 0,0.220133 -0.1778,0.3556 -0.1778,0.135466 -0.468489,0.135466 -0.234244,0 -0.440266,-0.110066 -0.05644,0.06773 -0.112889,0.06773 -0.143933,0 -0.143933,-0.186267 v -0.186266 q 0,-0.186267 0.141111,-0.186267 0.01976,0 0.03669,0.0056 0.01693,0.0028 0.03104,0.01129 0.01411,0.0056 0.02258,0.01411 0.01129,0.0056 0.01693,0.01976 0.0085,0.01129 0.01411,0.01976 0.0056,0.0085 0.0085,0.01976 0.0056,0.01129 0.0056,0.01976 0.0028,0.0056 0.0056,0.01693 l 0.0028,0.0085 q 0.01976,0.0762 0.135467,0.129822 0.115711,0.05362 0.256822,0.05362 0.158044,0 0.265288,-0.06209 0.107245,-0.06209 0.107245,-0.1524 0,-0.07055 -0.06209,-0.115711 -0.05927,-0.04798 -0.118533,-0.06209 -0.05927,-0.01693 -0.194733,-0.04233 -0.01976,-0.0028 -0.02822,-0.0056 -0.129822,-0.0254 -0.222955,-0.05362 -0.09031,-0.03105 -0.183444,-0.08467 -0.09031,-0.05644 -0.138289,-0.146755 -0.04516,-0.09313 -0.04516,-0.217311 0,-0.214489 0.174978,-0.3556 0.174978,-0.143933 0.437444,-0.143933 0.217311,0 0.366889,0.09313 0.02258,-0.05362 0.04516,-0.07338 0.02258,-0.01976 0.06491,-0.01976 0.138289,0 0.138289,0.186266 z"
         id="path19444" />
      <path
         d="m 72.296172,78.43288 q 0,-0.141111 0.186266,-0.141111 h 0.262467 q 0.186266,0 0.186266,0.141111 0,0.06209 -0.03951,0.1016 -0.03951,0.03669 -0.107244,0.03669 L 72.54735,79.52508 H 72.287706 L 72.087329,79.014258 71.895418,79.52508 H 71.630129 L 71.39024,78.57117 q -0.07055,0 -0.112889,-0.03669 -0.03951,-0.03951 -0.03951,-0.1016 0,-0.141111 0.186267,-0.141111 h 0.259644 q 0.186267,0 0.186267,0.141111 0,0.138289 -0.180623,0.138289 l 0.110067,0.431799 0.169333,-0.44591 h 0.248356 l 0.172155,0.44591 0.112889,-0.431799 q -0.206022,0 -0.206022,-0.138289 z"
         id="path19446" />
      <path
         d="m 71.599083,82.347299 q -0.186266,0 -0.186266,-0.141111 0,-0.141111 0.186266,-0.141111 h 0.344311 v -0.668866 h -0.220133 q -0.189089,0 -0.189089,-0.141111 0,-0.141111 0.189089,-0.141111 h 0.502355 v 0.951088 h 0.344311 q 0.186267,0 0.186267,0.141111 0,0.141111 -0.186267,0.141111 z m 0.587022,-1.758243 v 0.296333 h -0.333022 v -0.296333 z"
         id="path19448" />
      <path
         d="m 71.587795,85.166698 q -0.143934,0 -0.143934,-0.186267 v -0.09313 q 0,-0.189089 0.143934,-0.189089 0.107244,0 0.143933,0.124178 0.121355,0.110066 0.352777,0.110066 0.135467,0 0.231422,-0.03669 0.09878,-0.03669 0.09878,-0.08467 0,-0.110067 -0.3556,-0.146756 -0.296333,-0.03104 -0.428977,-0.121355 -0.132644,-0.09031 -0.132644,-0.256822 0,-0.169333 0.163688,-0.276578 0.163689,-0.110066 0.417689,-0.110066 0.206022,0 0.364066,0.07338 0.03105,-0.07338 0.09031,-0.07338 0.132645,0 0.132645,0.186266 v 0.104422 q 0,0.186267 -0.141111,0.186267 -0.08185,0 -0.146756,-0.112889 -0.115711,-0.08184 -0.290688,-0.08184 -0.107245,0 -0.194734,0.03104 -0.08467,0.02822 -0.08467,0.06773 0,0.04516 0.06491,0.06491 0.06491,0.01976 0.206022,0.03951 0.01693,0.0028 0.0254,0.0028 0.104422,0.01411 0.1778,0.03104 0.0762,0.01411 0.166511,0.04798 0.09031,0.03104 0.143933,0.0762 0.05644,0.04233 0.09313,0.112889 0.03951,0.07055 0.03951,0.160866 0,0.172156 -0.1778,0.285044 -0.177799,0.112889 -0.451555,0.112889 -0.245533,0 -0.417688,-0.08184 -0.04233,0.03387 -0.09031,0.03387 z"
         id="path19450" />
      <path
         d="m 71.788172,86.230674 v 0.663222 q 0.169333,-0.172155 0.386644,-0.172155 0.225778,0 0.361245,0.129822 0.138288,0.127 0.138288,0.338666 v 0.519289 q 0.104422,0 0.1524,0.03104 0.0508,0.03104 0.0508,0.110067 0,0.141111 -0.186266,0.141111 h -0.316089 q -0.189089,0 -0.189089,-0.141111 0,-0.0762 0.0508,-0.107245 0.0508,-0.03387 0.155222,-0.03387 v -0.4826 q 0,-0.124178 -0.06209,-0.172155 -0.05927,-0.0508 -0.186266,-0.0508 -0.09878,0 -0.166511,0.03669 -0.06773,0.03669 -0.189089,0.1524 v 0.516467 q 0.107245,0 0.155222,0.03104 0.0508,0.03104 0.0508,0.110067 0,0.141111 -0.189088,0.141111 h -0.316089 q -0.186267,0 -0.186267,-0.141111 0,-0.07902 0.04798,-0.110067 0.0508,-0.03104 0.155222,-0.03104 V 86.51289 h -0.04515 q -0.186267,0 -0.186267,-0.141111 0,-0.141111 0.186267,-0.141111 z"
         id="path19452" />
    </g>
    <g
       aria-label="Swish"
       id="text23971-9-5-7"
       style="font-weight:bold;font-size:2.82222px;line-height:1.25;font-family:'Tlwg Typo';-inkscape-font-specification:'Tlwg Typo Bold';text-align:center;letter-spacing:0px;word-spacing:0px;writing-mode:tb-rl;text-orientation:upright;text-anchor:middle;white-space:pre;display:inline;fill:#ffffff;stroke-width:0.264583">
      <path
         d="m 106.63045,75.20426 v 0.248356 q 0,0.189088 -0.13829,0.189088 -0.031,0 -0.0564,-0.0085 -0.0226,-0.01129 -0.0367,-0.02258 -0.0113,-0.01129 -0.0226,-0.03104 -0.0113,-0.02258 -0.0141,-0.03387 -0.003,-0.01129 -0.008,-0.03105 -0.003,-0.02258 -0.003,-0.0254 -0.0198,-0.08467 -0.11289,-0.135466 -0.0903,-0.05362 -0.22295,-0.05362 -0.13265,0 -0.22578,0.06209 -0.0931,0.06209 -0.0931,0.152399 0,0.05645 0.0282,0.09878 0.031,0.03951 0.096,0.06491 0.0649,0.02258 0.10443,0.03387 0.0423,0.01129 0.12417,0.0254 0.10725,0.01975 0.18627,0.04233 0.0819,0.01976 0.17216,0.05927 0.0903,0.03951 0.14675,0.09313 0.0593,0.0508 0.096,0.132644 0.0395,0.08185 0.0395,0.186267 0,0.220133 -0.1778,0.3556 -0.1778,0.135466 -0.46849,0.135466 -0.23424,0 -0.44027,-0.110066 -0.0564,0.06773 -0.11288,0.06773 -0.14394,0 -0.14394,-0.186267 v -0.186266 q 0,-0.186267 0.14111,-0.186267 0.0198,0 0.0367,0.0056 0.0169,0.0028 0.031,0.01129 0.0141,0.0056 0.0226,0.01411 0.0113,0.0056 0.0169,0.01976 0.008,0.01129 0.0141,0.01976 0.006,0.0085 0.008,0.01976 0.006,0.01129 0.006,0.01976 0.003,0.0056 0.006,0.01693 l 0.003,0.0085 q 0.0198,0.0762 0.13546,0.129822 0.11571,0.05362 0.25682,0.05362 0.15805,0 0.26529,-0.06209 0.10725,-0.06209 0.10725,-0.1524 0,-0.07055 -0.0621,-0.115711 -0.0593,-0.04798 -0.11853,-0.06209 -0.0593,-0.01693 -0.19474,-0.04233 -0.0198,-0.0028 -0.0282,-0.0056 -0.12982,-0.0254 -0.22295,-0.05362 -0.0903,-0.03105 -0.18345,-0.08467 -0.0903,-0.05644 -0.13829,-0.146755 -0.0452,-0.09313 -0.0452,-0.217311 0,-0.214489 0.17497,-0.3556 0.17498,-0.143933 0.43745,-0.143933 0.21731,0 0.36689,0.09313 0.0226,-0.05362 0.0452,-0.07338 0.0226,-0.01976 0.0649,-0.01976 0.13829,0 0.13829,0.186266 z"
         id="path19455" />
      <path
         d="m 106.2297,78.43288 q 0,-0.141111 0.18626,-0.141111 h 0.26247 q 0.18627,0 0.18627,0.141111 0,0.06209 -0.0395,0.1016 -0.0395,0.03669 -0.10725,0.03669 l -0.23707,0.95391 h -0.25964 l -0.20038,-0.510822 -0.19191,0.510822 h -0.26529 l -0.23989,-0.95391 q -0.0705,0 -0.11288,-0.03669 -0.0395,-0.03951 -0.0395,-0.1016 0,-0.141111 0.18627,-0.141111 h 0.25965 q 0.18626,0 0.18626,0.141111 0,0.138289 -0.18062,0.138289 l 0.11007,0.431799 0.16933,-0.44591 h 0.24835 l 0.17216,0.44591 0.11289,-0.431799 q -0.20602,0 -0.20602,-0.138289 z"
         id="path19457" />
      <path
         d="m 105.53261,82.347299 q -0.18627,0 -0.18627,-0.141111 0,-0.141111 0.18627,-0.141111 h 0.34431 v -0.668866 h -0.22013 q -0.18909,0 -0.18909,-0.141111 0,-0.141111 0.18909,-0.141111 h 0.50235 v 0.951088 h 0.34431 q 0.18627,0 0.18627,0.141111 0,0.141111 -0.18627,0.141111 z m 0.58702,-1.758243 v 0.296333 h -0.33302 v -0.296333 z"
         id="path19459" />
      <path
         d="m 105.52132,85.166698 q -0.14393,0 -0.14393,-0.186267 v -0.09313 q 0,-0.189089 0.14393,-0.189089 0.10724,0 0.14393,0.124178 0.12136,0.110066 0.35278,0.110066 0.13547,0 0.23142,-0.03669 0.0988,-0.03669 0.0988,-0.08467 0,-0.110067 -0.3556,-0.146756 -0.29633,-0.03104 -0.42898,-0.121355 -0.13264,-0.09031 -0.13264,-0.256822 0,-0.169333 0.16369,-0.276578 0.16369,-0.110066 0.41769,-0.110066 0.20602,0 0.36406,0.07338 0.031,-0.07338 0.0903,-0.07338 0.13265,0 0.13265,0.186266 v 0.104422 q 0,0.186267 -0.14111,0.186267 -0.0818,0 -0.14676,-0.112889 -0.11571,-0.08184 -0.29069,-0.08184 -0.10724,0 -0.19473,0.03104 -0.0847,0.02822 -0.0847,0.06773 0,0.04516 0.0649,0.06491 0.0649,0.01976 0.20603,0.03951 0.0169,0.0028 0.0254,0.0028 0.10442,0.01411 0.1778,0.03104 0.0762,0.01411 0.16651,0.04798 0.0903,0.03104 0.14393,0.0762 0.0564,0.04233 0.0931,0.112889 0.0395,0.07055 0.0395,0.160866 0,0.172156 -0.1778,0.285044 -0.1778,0.112889 -0.45155,0.112889 -0.24553,0 -0.41769,-0.08184 -0.0423,0.03387 -0.0903,0.03387 z"
         id="path19461" />
      <path
         d="m 105.7217,86.230674 v 0.663222 q 0.16933,-0.172155 0.38664,-0.172155 0.22578,0 0.36125,0.129822 0.13828,0.127 0.13828,0.338666 v 0.519289 q 0.10443,0 0.1524,0.03104 0.0508,0.03104 0.0508,0.110067 0,0.141111 -0.18626,0.141111 h -0.31609 q -0.18909,0 -0.18909,-0.141111 0,-0.0762 0.0508,-0.107245 0.0508,-0.03387 0.15522,-0.03387 v -0.4826 q 0,-0.124178 -0.0621,-0.172155 -0.0593,-0.0508 -0.18626,-0.0508 -0.0988,0 -0.16651,0.03669 -0.0677,0.03669 -0.18909,0.1524 v 0.516467 q 0.10724,0 0.15522,0.03104 0.0508,0.03104 0.0508,0.110067 0,0.141111 -0.18909,0.141111 h -0.31609 q -0.18626,0 -0.18626,-0.141111 0,-0.07902 0.048,-0.110067 0.0508,-0.03104 0.15523,-0.03104 V 86.51289 h -0.0452 q -0.18627,0 -0.18627,-0.141111 0,-0.141111 0.18627,-0.141111 z"
         id="path19463" />
    </g>
  </g>
</svg>
